<?xml version="1.0" standalone="no"?>
<!DOCTYPE svg PUBLIC "-//W3C//DTD SVG 1.1//EN" "http://www.w3.org/Graphics/SVG/1.1/DTD/svg11.dtd" >
<svg xmlns="http://www.w3.org/2000/svg" xmlns:xlink="http://www.w3.org/1999/xlink" version="1.1">
<metadata>
Created by FontForge 20170731 at Fri Jan  1 02:30:17 1904
 By Aleksey,,,
Copyright 1990-1993 Bitstream Inc.  All rights reserved.
</metadata>
<defs>
<font id="Humanist521BT-Italic" horiz-adv-x="1024" >
  <font-face 
    font-family="Humanst521 BT"
    font-weight="400"
    font-style="italic"
    font-stretch="normal"
    units-per-em="2048"
    panose-1="2 11 6 2 2 2 4 9 2 4"
    ascent="1638"
    descent="-410"
    x-height="924"
    cap-height="1399"
    bbox="-342 -483 2841 1956"
    underline-thickness="123"
    underline-position="-414"
    slope="-8.5"
    unicode-range="U+0020-F002"
  />
<missing-glyph horiz-adv-x="1229" 
d="M102 -362v1806h1024v-1806h-1024zM217 -248h795v1577h-795v-1577z" />
    <glyph glyph-name=".notdef" horiz-adv-x="1229" 
d="M102 -362v1806h1024v-1806h-1024zM217 -248h795v1577h-795v-1577z" />
    <glyph glyph-name=".null" horiz-adv-x="0" 
 />
    <glyph glyph-name="nonmarkingreturn" horiz-adv-x="516" 
 />
    <glyph glyph-name="space" unicode=" " horiz-adv-x="516" 
 />
    <glyph glyph-name="exclam" unicode="!" horiz-adv-x="516" 
d="M164 356q40 284 58 634q6 106 9 138q18 164 46.5 226.5t80.5 62.5q46 0 69.5 -26t23.5 -78q0 -74 -79 -398t-124 -559h-84zM68 88q0 44 30.5 74.5t75.5 30.5t76 -30.5t31 -74.5t-31 -75t-76 -31q-44 0 -75 31t-31 75z" />
    <glyph glyph-name="quotedbl" unicode="&#x22;" horiz-adv-x="614" 
d="M524 1436v-555h-139v555h139zM229 1436v-555h-139v555h139z" />
    <glyph glyph-name="numbersign" unicode="#" horiz-adv-x="1575" 
d="M969 858h-260l-93 -264h261zM924 1458l-162 -454h256l164 454h164l-160 -454h301l-51 -146h-303l-93 -262h322l-51 -147h-322l-162 -453h-165l161 453h-258l-162 -453h-165l159 453h-309l53 147h310l92 262h-330l51 146h332l162 454h166z" />
    <glyph glyph-name="dollar" unicode="$" horiz-adv-x="1034" 
d="M484 178q89 8 140.5 58t51.5 129q0 58 -34.5 105t-104.5 85zM10 104l33 185q88 -52 163.5 -79t145.5 -32l64 451q-149 85 -222 184.5t-73 216.5q0 153 111.5 248.5t304.5 105.5l24 168h129l-24 -165q73 -5 136.5 -18.5t117.5 -35.5l-27 -172q-84 31 -145.5 45.5
t-108.5 15.5l-68 -464q164 -93 235 -181.5t71 -197.5q0 -167 -112.5 -267.5t-303.5 -103.5l-35 -223h-129l33 225q-78 6 -157 29.5t-163 64.5zM510 1222q-89 -3 -142 -53t-53 -129q0 -57 33.5 -106t104.5 -94z" />
    <glyph glyph-name="percent" unicode="%" horiz-adv-x="1964" 
d="M1247 391q0 -101 70.5 -171t171.5 -70q100 0 170 70t70 171q0 102 -69.5 172t-170.5 70t-171.5 -70t-70.5 -172zM1071 391q0 175 121.5 296.5t296.5 121.5q174 0 295 -121.5t121 -296.5q0 -173 -121.5 -294.5t-294.5 -121.5q-175 0 -296.5 121t-121.5 295zM426 -25
l944 1446h168l-948 -1446h-164zM231 1006q0 -101 71 -171.5t171 -70.5t171 70.5t71 171.5q0 100 -71 170.5t-171 70.5q-101 0 -171.5 -70t-70.5 -171zM57 1004q0 175 120.5 296t295.5 121q174 0 296 -121.5t122 -295.5t-122 -295t-296 -121t-295 120.5t-121 295.5z" />
    <glyph glyph-name="ampersand" unicode="&#x26;" horiz-adv-x="1374" 
d="M756 246q-87 79 -164 180t-148 227q-112 -72 -162.5 -140t-50.5 -146q0 -101 68 -164.5t176 -63.5q71 0 140.5 26.5t140.5 80.5zM516 874q100 54 149.5 119t49.5 144q0 54 -32 88.5t-83 34.5q-63 0 -103 -51.5t-40 -135.5q0 -39 14.5 -88t44.5 -111zM1303 127l-63 -144
q-11 -4 -22 -5t-34 -1q-74 0 -149.5 38.5t-162.5 119.5q-103 -79 -210.5 -118.5t-219.5 -39.5q-178 0 -297.5 109t-119.5 266q0 137 85 244t259 190q-42 90 -63 163t-21 128q0 150 92.5 248t232.5 98q126 0 207.5 -79t81.5 -201q0 -118 -74.5 -219t-230.5 -195
q75 -128 145.5 -219.5t145.5 -159.5q58 62 111.5 145t111.5 207h182q-65 -156 -134.5 -267t-151.5 -189q62 -61 133 -90t157 -29h9z" />
    <glyph glyph-name="quotesingle" unicode="'" horiz-adv-x="317" 
d="M229 1436v-555h-139v555h139z" />
    <glyph glyph-name="parenleft" unicode="(" horiz-adv-x="692" 
d="M461 -393h-125q-95 200 -142 388.5t-47 371.5q0 249 101.5 506t314.5 548h150q-185 -300 -276 -578.5t-91 -545.5q0 -139 28 -308.5t87 -381.5z" />
    <glyph glyph-name="parenright" unicode=")" horiz-adv-x="692" 
d="M176 1421h125q95 -201 141.5 -388.5t46.5 -368.5q0 -250 -101 -508t-314 -549h-150q185 300 276 578.5t91 545.5q0 139 -28 308.5t-87 381.5z" />
    <glyph glyph-name="asterisk" unicode="*" horiz-adv-x="905" 
d="M729 1352l98 -99l-282 -217l354 47v-139l-354 47l282 -217l-98 -98l-215 282l45 -352h-139l47 352l-217 -282l-98 98l282 217l-352 -47v139l352 -45l-282 215l98 99l217 -283l-47 354h139l-45 -354z" />
    <glyph glyph-name="plus" unicode="+" horiz-adv-x="1706" 
d="M924 1221v-541h528v-139h-528v-541h-142v541h-528v139h528v541h142z" />
    <glyph glyph-name="comma" unicode="," horiz-adv-x="516" 
d="M35 -150q46 14 75.5 44.5t43.5 78.5q-44 15 -67.5 42.5t-23.5 62.5q0 49 33.5 84t79.5 35q52 0 84.5 -39t32.5 -101q0 -97 -71 -171.5t-187 -96.5v61z" />
    <glyph glyph-name="hyphen" unicode="-" horiz-adv-x="692" 
d="M37 379l18 166h525l-19 -166h-524z" />
    <glyph glyph-name="period" unicode="." horiz-adv-x="516" 
d="M68 88q0 44 30.5 74.5t75.5 30.5t76 -30.5t31 -74.5t-31 -75t-76 -31q-44 0 -75 31t-31 75z" />
    <glyph glyph-name="slash" unicode="/" horiz-adv-x="578" 
d="M88 -190h-137l479 1607h145z" />
    <glyph glyph-name="zero" unicode="0" horiz-adv-x="1034" 
d="M47 485q0 202 54.5 391t152.5 330q73 104 170.5 159.5t204.5 55.5q168 0 263 -132t95 -365q0 -223 -57.5 -421.5t-161.5 -338.5q-69 -91 -159.5 -139t-192.5 -48q-182 0 -275.5 129t-93.5 379zM621 1260q-62 0 -122 -45t-108 -128q-72 -124 -112.5 -289t-40.5 -333
q0 -157 47.5 -241.5t136.5 -84.5q58 0 113 39t100 113q77 127 120.5 296t43.5 345q0 164 -44.5 246t-133.5 82z" />
    <glyph glyph-name="one" unicode="1" horiz-adv-x="1034" 
d="M307 0l234 1399h188l-233 -1399h-189z" />
    <glyph glyph-name="two" unicode="2" horiz-adv-x="1034" 
d="M-2 0l2 20q362 434 527 681.5t165 355.5q0 79 -55 125.5t-150 46.5q-61 0 -135.5 -28.5t-154.5 -82.5l28 193q72 47 146 70.5t151 23.5q161 0 254.5 -88.5t93.5 -239.5q0 -136 -109.5 -326t-432.5 -583h528l-31 -168h-827z" />
    <glyph glyph-name="three" unicode="3" horiz-adv-x="1034" 
d="M2 66l29 161q97 -43 165.5 -61.5t129.5 -18.5q141 0 227 72.5t86 188.5q0 104 -64 166.5t-190 80.5l25 154q140 8 223.5 77.5t83.5 176.5q0 90 -56.5 140t-156.5 50q-63 0 -130 -20t-143 -62l31 191q65 31 129 46t129 15q182 0 292 -98t110 -260q0 -125 -69.5 -210
t-205.5 -128q92 -50 136 -126t44 -183q0 -197 -134.5 -320t-352.5 -123q-91 0 -175.5 22.5t-162.5 68.5z" />
    <glyph glyph-name="four" unicode="4" horiz-adv-x="1034" 
d="M575 578l76 454l-379 -454h303zM479 0l70 432h-526l2 84l749 883h100l-129 -821h199l-22 -146h-199l-70 -432h-174z" />
    <glyph glyph-name="five" unicode="5" horiz-adv-x="1034" 
d="M-37 94l64 152q75 -46 142.5 -69t127.5 -23q152 0 245 87t93 230q0 117 -75.5 180.5t-213.5 63.5q-24 0 -52.5 -2.5t-65.5 -7.5l124 694h570l-25 -176h-399l-64 -342q191 -17 294 -126t103 -294q0 -203 -147.5 -343.5t-366.5 -140.5q-95 0 -183 29t-171 88z" />
    <glyph glyph-name="six" unicode="6" horiz-adv-x="1034" 
d="M240 348q0 -96 53 -152.5t143 -56.5q123 0 211 99t88 229q0 101 -53 159t-145 58q-118 0 -207.5 -102.5t-89.5 -233.5zM408 813q37 22 80 32.5t98 10.5q149 0 242.5 -102.5t93.5 -268.5q0 -95 -36 -183t-104 -161q-76 -80 -170 -123t-196 -43q-165 0 -266 108t-101 284
q0 121 59.5 264t190.5 334l297 434h211z" />
    <glyph glyph-name="seven" unicode="7" horiz-adv-x="1034" 
d="M174 0l571 1223h-565l27 176h805l-652 -1399h-186z" />
    <glyph glyph-name="eight" unicode="8" horiz-adv-x="1034" 
d="M494 643q-125 0 -205 -80.5t-80 -206.5q0 -93 64.5 -156t160.5 -63q131 0 210 77.5t79 205.5q0 101 -62.5 162t-166.5 61zM598 1255q-98 0 -167 -69t-69 -166q0 -86 56.5 -142.5t142.5 -56.5q95 0 166.5 70.5t71.5 165.5q0 86 -57 142t-144 56zM338 758
q-76 43 -115 112.5t-39 161.5q0 165 119.5 277t298.5 112q167 0 269 -95t102 -251q0 -123 -65.5 -216t-174.5 -124q89 -46 137 -122t48 -173q0 -200 -137.5 -331.5t-344.5 -131.5q-175 0 -292 113t-117 279q0 148 85 254.5t226 134.5z" />
    <glyph glyph-name="nine" unicode="9" horiz-adv-x="1034" 
d="M610 586q-37 -22 -80 -32.5t-98 -10.5q-150 0 -244 102.5t-94 267.5q0 95 36.5 183t105.5 161q76 82 169 124t195 42q165 0 267 -108.5t102 -284.5q0 -121 -59 -262.5t-191 -333.5l-299 -434h-209zM776 1049q0 96 -52.5 153.5t-141.5 57.5q-123 0 -212 -99t-89 -229
q0 -101 53 -159t145 -58q118 0 207.5 101.5t89.5 232.5z" />
    <glyph glyph-name="colon" unicode=":" horiz-adv-x="516" 
d="M186 838q0 45 30.5 75.5t74.5 30.5t75 -31t31 -75q0 -45 -31 -76t-75 -31t-74.5 31t-30.5 76zM68 88q0 44 30.5 74.5t75.5 30.5t76 -30.5t31 -74.5t-31 -75t-76 -31q-44 0 -75 31t-31 75z" />
    <glyph glyph-name="semicolon" unicode=";" horiz-adv-x="516" 
d="M35 -150q46 14 75.5 44.5t43.5 78.5q-44 15 -67.5 42.5t-23.5 62.5q0 49 33.5 84t79.5 35q52 0 84.5 -39t32.5 -101q0 -97 -71 -171.5t-187 -96.5v61zM186 838q0 45 30.5 75.5t74.5 30.5t75 -31t31 -75q0 -45 -31 -76t-75 -31t-74.5 31t-30.5 76z" />
    <glyph glyph-name="less" unicode="&#x3c;" horiz-adv-x="1706" 
d="M1442 1006l-969 -396l969 -393v-154l-1178 484v129l1178 483v-153z" />
    <glyph glyph-name="equal" unicode="=" horiz-adv-x="1706" 
d="M1452 481v-139h-1198v139h1198zM1452 879v-140h-1198v140h1198z" />
    <glyph glyph-name="greater" unicode="&#x3e;" horiz-adv-x="1706" 
d="M1442 676v-129l-1178 -484v154l971 393l-971 396v153z" />
    <glyph glyph-name="question" unicode="?" horiz-adv-x="659" 
d="M59 88q0 45 30 75t75 30t75.5 -30.5t30.5 -74.5t-31 -75t-75 -31t-74.5 30.5t-30.5 75.5zM154 356v17q0 108 38 208.5t127 221.5q25 32 71 87q118 141 118 220q0 65 -40.5 104t-107.5 39q-44 0 -94.5 -23.5t-132.5 -84.5l35 201q50 36 103.5 53.5t115.5 17.5
q140 0 220.5 -78.5t80.5 -214.5q0 -88 -32 -159.5t-146 -194.5q-123 -133 -174.5 -225t-63.5 -189h-118z" />
    <glyph glyph-name="at" unicode="@" horiz-adv-x="2048" 
d="M1284 854l57 115h132l-146 -576q-4 -16 -6 -31t-2 -28q0 -46 25.5 -70t74.5 -24q48 0 102.5 26.5t106.5 75.5q80 76 125 186.5t45 233.5q0 259 -190.5 420t-499.5 161q-133 0 -246 -28t-211 -86q-191 -114 -296 -299.5t-105 -409.5q0 -177 61.5 -308t192.5 -230
q100 -77 236.5 -118.5t287.5 -41.5q169 0 328.5 49t292.5 141l55 -82q-148 -111 -314.5 -167t-349.5 -56q-190 0 -348 47t-280 140q-154 118 -230 274t-76 354q0 165 52 313t151 269q146 178 351.5 270t455.5 92q163 0 310 -45t253 -127q130 -100 197.5 -231t67.5 -283
q0 -175 -63.5 -315t-184.5 -236q-68 -54 -149.5 -83t-166.5 -29q-99 0 -149.5 39.5t-50.5 117.5v19q-55 -89 -129 -131.5t-172 -42.5q-153 0 -233.5 85t-80.5 247q0 235 138 394t339 159q85 0 145.5 -37.5t96.5 -112.5zM1190 475l59 236q-17 88 -68.5 136t-129.5 48
q-138 0 -232 -130t-94 -319q0 -105 48.5 -162t137.5 -57q97 0 174.5 69t104.5 179z" />
    <glyph glyph-name="A" unicode="A" horiz-adv-x="1067" 
d="M698 588l-116 555l-226 -555h342zM115 0h-193l604 1399h176l291 -1399h-174l-86 418h-450z" />
    <glyph glyph-name="B" unicode="B" horiz-adv-x="1081" 
d="M49 0l209 1399h176q231 0 353 -87.5t122 -252.5q0 -98 -47.5 -173t-138.5 -122q137 -54 205.5 -145.5t68.5 -219.5q0 -118 -61.5 -211.5t-173.5 -144.5q-49 -23 -111 -33t-182 -10h-57h-363zM367 838q1 -1 6 -1q42 -3 63 -3q135 0 209 58t74 163q0 86 -66 131t-194 45
h-33zM266 152h162q193 0 285 61t92 190q0 133 -108.5 206t-307.5 73h-45z" />
    <glyph glyph-name="C" unicode="C" horiz-adv-x="1165" 
d="M1063 307l-27 -209q-99 -61 -201 -92t-204 -31q-246 0 -400.5 166t-154.5 428q0 393 261.5 622.5t715.5 229.5q35 0 70.5 -1.5t72.5 -4.5l-20 -178q-9 0 -26 1q-65 3 -89 3q-359 0 -569.5 -180.5t-210.5 -485.5q0 -186 98.5 -301.5t255.5 -115.5q91 0 194 35.5t234 113.5
z" />
    <glyph glyph-name="D" unicode="D" horiz-adv-x="1356" 
d="M272 170h189q309 0 463.5 131.5t154.5 394.5q0 248 -152 390.5t-419 142.5h-78zM49 0l209 1399h174q182 0 302.5 -23.5t209.5 -75.5q160 -92 249 -252t89 -352q0 -168 -62.5 -308t-177.5 -230q-108 -85 -244.5 -121.5t-391.5 -36.5h-357z" />
    <glyph glyph-name="E" unicode="E" horiz-adv-x="1067" 
d="M977 0h-928l209 1399h746l-25 -166h-559l-64 -426h494l-25 -172h-493l-70 -465h739z" />
    <glyph glyph-name="F" unicode="F" horiz-adv-x="977" 
d="M49 0l209 1399h746l-25 -166h-559l-64 -426h494l-25 -172h-493l-92 -635h-191z" />
    <glyph glyph-name="G" unicode="G" horiz-adv-x="1319" 
d="M1159 133q-117 -79 -237.5 -118.5t-245.5 -39.5q-266 0 -433 173t-167 448q0 167 62 312.5t181 260.5q130 125 314 188.5t416 63.5q61 0 130 -6.5t150 -19.5l-26 -172q-75 11 -145 16.5t-136 5.5q-333 0 -537 -179t-204 -468q0 -204 113.5 -323t310.5 -119q72 0 141.5 18
t144.5 57l37 238h-211l17 156h399z" />
    <glyph glyph-name="H" unicode="H" horiz-adv-x="1485" 
d="M51 0l209 1399h193l-91 -602h789l90 602h191l-209 -1399h-191l94 627h-788l-94 -627h-193z" />
    <glyph glyph-name="I" unicode="I" horiz-adv-x="512" 
d="M248 0h-191l207 1399h193z" />
    <glyph glyph-name="J" unicode="J" horiz-adv-x="508" 
d="M223 -135q-24 -169 -113.5 -253.5t-244.5 -84.5q-27 0 -58 4.5t-70 13.5l-52 181q38 -11 73.5 -16t69.5 -5q104 0 149.5 47t73.5 242l209 1405h191z" />
    <glyph glyph-name="K" unicode="K" horiz-adv-x="1118" 
d="M354 805l594 594h244l-645 -645l602 -754h-227l-580 723l-109 -723h-192l209 1399h192z" />
    <glyph glyph-name="L" unicode="L" horiz-adv-x="868" 
d="M49 0l209 1399h193l-185 -1233h570l-27 -166h-760z" />
    <glyph glyph-name="M" unicode="M" horiz-adv-x="1649" 
d="M147 0h-184l453 1399h159l228 -938l493 938h168l37 -1399h-176l-25 1057l-563 -1057l-252 1057z" />
    <glyph glyph-name="N" unicode="N" horiz-adv-x="1436" 
d="M240 0h-189l209 1399h107l690 -1039l147 1039h187l-207 -1399h-101l-696 1036z" />
    <glyph glyph-name="O" unicode="O" horiz-adv-x="1368" 
d="M72 565q0 174 52 332t150 281q97 121 222 183t272 62q244 0 385 -159t141 -433q0 -171 -52 -329t-150 -283q-96 -120 -221 -182t-273 -62q-246 0 -386 157.5t-140 432.5zM760 1253q-100 0 -186 -47t-150 -137q-72 -100 -111 -229t-39 -271q0 -206 84.5 -316t241.5 -110
q104 0 191.5 46.5t150.5 136.5q73 100 111.5 228t38.5 269q0 207 -86.5 318.5t-245.5 111.5z" />
    <glyph glyph-name="P" unicode="P" horiz-adv-x="948" 
d="M342 762h147q113 0 187 69.5t74 174.5q0 112 -76.5 168.5t-229.5 56.5h-32zM37 0l209 1399h239q220 0 336.5 -97t116.5 -278q0 -211 -127 -322.5t-367 -111.5h-129l-86 -590h-192z" />
    <glyph glyph-name="Q" unicode="Q" horiz-adv-x="1368" 
d="M760 1253q-99 0 -185.5 -47.5t-150.5 -138.5q-73 -100 -111.5 -228.5t-38.5 -269.5q0 -206 84.5 -316t241.5 -110q105 0 192.5 46t149.5 135q73 100 111.5 228t38.5 269q0 207 -87 319.5t-245 112.5zM469 -18q-188 43 -292.5 196.5t-104.5 386.5q0 170 52.5 328
t149.5 283q96 121 220.5 183t273.5 62q244 0 385 -158t141 -432q0 -171 -52.5 -330.5t-149.5 -283.5q-79 -100 -181 -160t-231 -82q33 -104 105.5 -162.5t168.5 -58.5t173.5 59.5t125.5 170.5h9q-4 -192 -95 -295t-258 -103q-156 0 -269 101.5t-171 294.5z" />
    <glyph glyph-name="R" unicode="R" horiz-adv-x="1053" 
d="M229 0h-190l209 1399h244q241 0 359 -93t118 -284q0 -130 -74.5 -221t-206.5 -123q34 -30 67 -79.5t70 -127.5l226 -471h-209l-211 430q-52 109 -107 148.5t-147 39.5h-32.5t-23.5 -2zM348 784h98q156 0 240 64.5t84 181.5q0 95 -55.5 143.5t-170.5 53.5l-130 6z" />
    <glyph glyph-name="S" unicode="S" horiz-adv-x="881" 
d="M14 80l31 201q96 -66 178 -97.5t156 -31.5q93 0 152 53.5t59 136.5q0 98 -215 274q-6 5 -11 9q-152 124 -207 214t-55 199q0 164 126.5 273.5t320.5 109.5q55 0 120 -15t146 -46l-22 -186q-70 36 -130 53.5t-114 17.5q-113 0 -183.5 -55t-70.5 -141q0 -107 218 -288
q16 -13 24 -20q4 -3 11 -9q232 -192 232 -370q0 -175 -114 -281t-306 -106q-86 0 -171.5 26t-174.5 79z" />
    <glyph glyph-name="T" unicode="T" horiz-adv-x="1073" 
d="M528 0h-182l182 1219h-405l29 180h974l-26 -180h-389z" />
    <glyph glyph-name="U" unicode="U" horiz-adv-x="1331" 
d="M242 1399h196l-123 -821q-8 -57 -11 -89.5t-3 -56.5q0 -125 81 -200.5t214 -75.5q168 0 261.5 93.5t123.5 291.5l129 858h190l-127 -851l-1 -7q-37 -250 -123 -359q-80 -97 -202.5 -151t-268.5 -54q-208 0 -340 124t-132 319q1 20 4.5 55.5t16.5 130.5z" />
    <glyph glyph-name="V" unicode="V" horiz-adv-x="1053" 
d="M467 -14h-80l-287 1413h185l194 -959l449 959h202z" />
    <glyph glyph-name="W" unicode="W" horiz-adv-x="1937" 
d="M506 -10h-72l-334 1409h187l227 -983l471 983h72l272 -983l477 983h187l-660 -1409h-80l-270 981z" />
    <glyph glyph-name="X" unicode="X" horiz-adv-x="1290" 
d="M166 0h-240l633 731l-424 668h223l328 -522l453 522h252l-598 -688l456 -711h-215l-370 563z" />
    <glyph glyph-name="Y" unicode="Y" horiz-adv-x="993" 
d="M489 0h-190l104 705l-331 694h200l236 -504l350 504h221l-483 -694z" />
    <glyph glyph-name="Z" unicode="Z" horiz-adv-x="1319" 
d="M1165 0h-1179l1003 1223h-799l25 176h1159l-1016 -1219h834z" />
    <glyph glyph-name="bracketleft" unicode="[" horiz-adv-x="692" 
d="M293 -223h264l-22 -148h-429l263 1770h428l-21 -144h-264z" />
    <glyph glyph-name="backslash" unicode="\" horiz-adv-x="578" 
d="M326 -190l-220 1607h138l221 -1607h-139z" />
    <glyph glyph-name="bracketright" unicode="]" horiz-adv-x="692" 
d="M141 1399h428l-264 -1770h-430l23 144h262l223 1478h-264z" />
    <glyph glyph-name="asciicircum" unicode="^" horiz-adv-x="2048" 
d="M1116 1458l510 -557h-180l-422 420l-424 -420h-180l510 557h186z" />
    <glyph glyph-name="underscore" unicode="_" 
d="M1024 -340v-143h-1024v143h1024z" />
    <glyph glyph-name="grave" unicode="`" 
d="M682 1059h-100l-285 348h166z" />
    <glyph glyph-name="a" unicode="a" horiz-adv-x="948" 
d="M743 0h-174l17 115q-54 -68 -114 -100.5t-130 -32.5q-134 0 -223.5 105t-89.5 265q0 94 30.5 184t87.5 166q90 118 209 170t308 52h215zM612 285l70 487q-8 1 -18 1.5t-29 0.5q-184 0 -300 -113t-116 -290q0 -109 49.5 -175.5t128.5 -66.5q61 0 115 39t100 117z" />
    <glyph glyph-name="b" unicode="b" horiz-adv-x="973" 
d="M311 821q58 64 120.5 94.5t133.5 30.5q138 0 227 -105.5t89 -271.5q0 -144 -70.5 -270.5t-194.5 -202.5q-84 -52 -195.5 -75t-291.5 -23q-18 0 -56 1t-59 1l211 1399h172zM287 641l-76 -487q9 -1 21.5 -1.5t35.5 -0.5q191 0 314 119.5t123 301.5q0 101 -51.5 162.5
t-133.5 61.5q-71 0 -131 -40t-102 -116z" />
    <glyph glyph-name="c" unicode="c" horiz-adv-x="844" 
d="M715 229l-17 -180q-70 -34 -136.5 -50.5t-133.5 -16.5q-186 0 -298 108t-112 287q0 248 163 407.5t415 159.5q44 0 91.5 -5.5t94.5 -16.5l-16 -150q-41 8 -75.5 12t-63.5 4q-184 0 -303 -110t-119 -279q0 -123 65 -193.5t179 -70.5q67 0 132.5 23.5t133.5 70.5z" />
    <glyph glyph-name="d" unicode="d" horiz-adv-x="948" 
d="M743 -2q-86 -9 -142 -12.5t-93 -3.5q-226 0 -354.5 108t-128.5 295q0 133 62 250t177 201q78 57 176.5 84.5t227.5 27.5h41l65 451h178zM585 139l95 654q-7 0 -21.5 1t-21.5 1q-191 0 -309.5 -108t-118.5 -277q0 -126 77.5 -203.5t202.5 -77.5q29 0 52.5 2.5t43.5 7.5z
" />
    <glyph glyph-name="e" unicode="e" horiz-adv-x="918" 
d="M768 270l-29 -186q-80 -53 -157.5 -78.5t-155.5 -25.5q-174 0 -285.5 122t-111.5 314q0 230 126.5 380t319.5 150q160 0 245 -93.5t85 -268.5v-105h-584l-4 -61v-23q0 -113 65 -188.5t160 -75.5q75 0 152.5 33t173.5 106zM250 608h389v25q0 78 -43 124t-117 46
q-87 0 -142.5 -47.5t-86.5 -147.5z" />
    <glyph glyph-name="f" unicode="f" horiz-adv-x="528" 
d="M195 1034q35 202 128 290.5t267 88.5q61 0 119.5 -12t113.5 -37l-22 -156q-54 28 -110 42t-113 14q-91 0 -144 -53.5t-69 -161.5l-21 -125h193l-21 -156h-194l-172 -1147h-168l170 1147h-148l23 156h149z" />
    <glyph glyph-name="g" unicode="g" horiz-adv-x="854" 
d="M213 567q0 -78 47.5 -130t116.5 -52q77 0 129.5 60.5t52.5 150.5q0 81 -44.5 130.5t-117.5 49.5q-80 0 -132 -58.5t-52 -150.5zM334 -84q-144 -41 -192 -69t-48 -64q0 -53 58.5 -84t160.5 -31t158.5 29.5t56.5 81.5q0 43 -45 75.5t-149 61.5zM180 -35q-83 37 -116 72.5
t-33 83.5q0 54 43 99t125 75q-76 41 -113 107t-37 159q0 173 114 268t322 95h359l-21 -142h-157q34 -40 50.5 -84.5t16.5 -95.5q0 -108 -57 -195t-156 -128q-69 -29 -165 -45q-17 -3 -26 -5q-67 -11 -95.5 -27.5t-28.5 -41.5q0 -52 139 -87q75 -20 119 -34
q133 -42 188.5 -97t55.5 -141q0 -119 -105.5 -192.5t-282.5 -73.5t-285 64.5t-108 164.5q0 73 66.5 126t187.5 75z" />
    <glyph glyph-name="h" unicode="h" horiz-adv-x="977" 
d="M14 0l209 1399h176l-92 -621q87 85 168 126.5t162 41.5q105 0 162 -65.5t57 -186.5q0 -29 -3 -64.5t-9 -76.5l-82 -553h-178l75 512q13 83 17 118t4 54q0 58 -26 87.5t-79 29.5q-61 0 -134 -49.5t-160 -151.5l-88 -600h-179z" />
    <glyph glyph-name="i" unicode="i" horiz-adv-x="449" 
d="M197 1210q0 41 28.5 69t69.5 28q40 0 68 -28.5t28 -68.5t-28 -68t-68 -28q-42 0 -70 27.5t-28 68.5zM209 0h-178l135 924h178z" />
    <glyph glyph-name="j" unicode="j" horiz-adv-x="465" 
d="M199 -115l-1 -8q-26 -182 -92 -252q-41 -43 -97.5 -66.5t-119.5 -23.5q-27 0 -57 4t-61 12l23 162q22 -11 42.5 -13.5t40.5 -2.5q117 0 147 210l1 8l149 1009h178zM205 1210q0 41 27.5 69t68.5 28q40 0 68 -28.5t28 -68.5t-28 -68t-68 -28q-41 0 -68.5 27.5t-27.5 68.5z
" />
    <glyph glyph-name="k" unicode="k" horiz-adv-x="934" 
d="M201 0h-183l209 1399h183l-129 -869l393 394h221l-434 -422l459 -502h-230l-420 461z" />
    <glyph glyph-name="l" unicode="l" horiz-adv-x="449" 
d="M242 1399h182l-211 -1399h-182z" />
    <glyph glyph-name="m" unicode="m" horiz-adv-x="1511" 
d="M14 0l140 924h178l-21 -129q78 76 154 113.5t153 37.5q88 0 144 -46t72 -132q99 94 181 136t165 42q105 0 161 -63.5t56 -184.5q0 -26 -4 -63.5t-11 -82.5l-82 -552h-178l88 598q4 26 6.5 49t2.5 43q0 54 -27 81.5t-80 27.5q-64 0 -134 -47t-144 -140l-91 -612h-176
l88 598q4 26 6.5 49t2.5 43q0 54 -27 81.5t-80 27.5q-64 0 -134 -47t-144 -140l-86 -612h-179z" />
    <glyph glyph-name="n" unicode="n" horiz-adv-x="977" 
d="M14 0l140 924h178l-23 -148q86 86 167 128t161 42q104 0 161.5 -66.5t57.5 -187.5q0 -30 -3 -65.5t-9 -75.5l-82 -551h-178l84 596q4 29 6 53t2 39q0 54 -27 81.5t-80 27.5q-64 0 -134 -47t-144 -140l-98 -610h-179z" />
    <glyph glyph-name="o" unicode="o" horiz-adv-x="930" 
d="M25 393q0 231 130.5 391t311.5 160q170 0 268.5 -110.5t98.5 -303.5q0 -237 -130 -392.5t-327 -155.5q-164 0 -258 109.5t-94 301.5zM473 797q-105 0 -182.5 -123t-77.5 -295q0 -118 46.5 -186t125.5 -68q114 0 188 118t74 306q0 118 -45.5 183t-128.5 65z" />
    <glyph glyph-name="p" unicode="p" horiz-adv-x="973" 
d="M145 -465h-178l170 1149q-57 -42 -97 -102t-48 -60q-6 0 -10.5 6t-4.5 15q0 37 51.5 118.5t129.5 151.5l49 336h176l-33 -231q40 15 78.5 22.5t75.5 7.5q172 0 275.5 -123.5t103.5 -330.5q0 -129 -67 -247.5t-179 -187.5q-64 -37 -158 -56t-215 -19h-53zM234 135
q10 -1 21 -1.5t32 -0.5q195 0 305 100.5t110 278.5q0 140 -70 221.5t-192 81.5q-24 0 -51.5 -6.5t-58.5 -20.5z" />
    <glyph glyph-name="q" unicode="q" horiz-adv-x="973" 
d="M631 283l73 487q-9 1 -21 1.5t-36 0.5q-190 0 -312 -118.5t-122 -301.5q0 -100 51 -162.5t133 -62.5q72 0 131.5 40t102.5 116zM606 102q-57 -63 -119.5 -94t-134.5 -31q-137 0 -226 106.5t-89 272.5q0 145 70.5 271t193.5 202q85 51 194.5 74t284.5 23q19 0 60 -1t63 -1
l-213 -1389h-170z" />
    <glyph glyph-name="r" unicode="r" horiz-adv-x="639" 
d="M188 0h-172l138 924h172l-25 -174q68 106 122 147t120 41q17 0 36.5 -4t41.5 -12l-46 -166q-14 3 -26 4.5t-25 1.5q-77 0 -139 -57.5t-119 -182.5z" />
    <glyph glyph-name="s" unicode="s" horiz-adv-x="750" 
d="M-2 109l43 172q93 -75 158.5 -107.5t122.5 -32.5q54 0 89 27t35 68q0 64 -164 179l-3 3q-130 91 -165.5 146t-35.5 128q0 113 80.5 182.5t214.5 69.5q81 0 154.5 -24t138.5 -72l-15 -186q-79 62 -151 93t-135 31q-49 0 -79 -22.5t-30 -58.5q0 -54 127 -142q58 -40 92 -65
q86 -66 120 -122.5t34 -129.5q0 -116 -84.5 -190t-216.5 -74q-84 0 -163.5 30.5t-166.5 96.5z" />
    <glyph glyph-name="t" unicode="t" horiz-adv-x="678" 
d="M311 391q-8 -44 -12 -75t-4 -54q0 -58 28.5 -86.5t86.5 -28.5q33 0 72.5 13.5t82.5 40.5v-162q-59 -30 -111 -44.5t-98 -14.5q-111 0 -180.5 68.5t-69.5 180.5q0 30 5 67t18 99l82 398h-156l29 131h158l45 194h182l-43 -194h182l-30 -131h-183z" />
    <glyph glyph-name="u" unicode="u" horiz-adv-x="977" 
d="M893 924l-137 -924h-178l20 150q-86 -87 -167 -128.5t-161 -41.5q-104 0 -161.5 66t-57.5 187q0 31 3 66.5t9 75.5l84 549h177l-82 -588q-4 -28 -6.5 -53t-2.5 -39q0 -54 27.5 -81.5t79.5 -27.5q64 0 134 47t144 140l97 602h178z" />
    <glyph glyph-name="v" unicode="v" horiz-adv-x="758" 
d="M305 0h-90l-207 924h178l121 -576l287 576h184z" />
    <glyph glyph-name="w" unicode="w" horiz-adv-x="1280" 
d="M305 0h-86l-192 924h174l112 -574l301 574h86l123 -574l293 574h176l-481 -924h-76l-129 588z" />
    <glyph glyph-name="x" unicode="x" horiz-adv-x="864" 
d="M131 0h-217l403 494l-213 430h189l141 -287l234 287h219l-369 -455l236 -469h-195l-162 326z" />
    <glyph glyph-name="y" unicode="y" horiz-adv-x="801" 
d="M139 -465h-184l250 522l-166 867h174l117 -607l291 607h190z" />
    <glyph glyph-name="z" unicode="z" horiz-adv-x="862" 
d="M760 0h-838l2 18l606 746h-477l23 160h780v-19l-602 -743h539z" />
    <glyph glyph-name="braceleft" unicode="{" 
d="M866 1327h-41q-120 0 -161 -44.5t-41 -184.5v-242q0 -160 -44.5 -228t-156.5 -98q113 -28 157 -96t44 -229v-242q0 -141 41.5 -185t162.5 -44h39v-148h-43q-108 0 -169 11.5t-103 37.5q-55 34 -77.5 97t-22.5 211v245q0 149 -54.5 210t-185.5 61q-7 0 -21.5 -1t-21.5 -1
v149q8 0 23 -1t22 -1q130 0 184 60.5t54 207.5v246q0 148 22.5 210.5t77.5 96.5q45 28 108.5 40t169.5 12h37v-150z" />
    <glyph glyph-name="bar" unicode="|" 
d="M588 1565v-2048h-150v2048h150z" />
    <glyph glyph-name="braceright" unicode="}" 
d="M575 1118v-246q0 -147 54 -207.5t184 -60.5q7 0 22 1t23 1v-149q-7 0 -22 1t-21 1q-132 0 -186 -60.5t-54 -210.5v-245q0 -148 -22.5 -211t-77.5 -97q-42 -26 -103 -37.5t-169 -11.5h-43v148h39q120 0 162 45t42 186v240q0 160 44.5 228t156.5 97q-112 30 -156.5 98
t-44.5 228v242q0 140 -42 184.5t-162 44.5h-39v150h37q107 0 171 -12.5t107 -39.5q55 -34 77.5 -96.5t22.5 -210.5z" />
    <glyph glyph-name="asciitilde" unicode="~" horiz-adv-x="1706" 
d="M1530 614q-104 -72 -199 -106.5t-190 -34.5q-93 0 -256 58q-22 8 -34 12q-5 2 -15 5q-176 60 -273 60q-84 0 -175 -37t-210 -120v155q106 72 202 108t185 36q62 0 127.5 -13.5t163.5 -48.5q16 -5 47 -17q159 -57 240 -57q88 0 179.5 37t207.5 119v-156z" />
    <glyph glyph-name="nonbreakingspace" unicode="&#xa0;" horiz-adv-x="1034" 
 />
    <glyph glyph-name="exclamdown" unicode="&#xa1;" horiz-adv-x="516" 
d="M352 1042q-40 -283 -58 -635q-6 -107 -9 -138q-18 -166 -45.5 -226.5t-79.5 -60.5q-46 0 -69 26t-23 78q0 74 78.5 397.5t123.5 558.5h82zM449 1311q0 -45 -31 -76t-76 -31q-44 0 -74 31t-30 76t30 75.5t74 30.5q45 0 76 -31t31 -75z" />
    <glyph glyph-name="cent" unicode="&#xa2;" horiz-adv-x="1034" 
d="M791 250l-17 -182q-69 -36 -137 -53t-139 -17q-13 0 -27.5 1t-44.5 3l-113 -313h-106l121 336q-118 60 -179 162.5t-61 238.5q0 224 166.5 380.5t415.5 160.5l100 270h109l-101 -279q23 0 43.5 -2.5t36.5 -7.5l-17 -153q-30 7 -58.5 10.5t-57.5 3.5l-242 -653q2 -1 5 -1
q28 -3 42 -3q62 0 125.5 24t135.5 74zM610 803q-152 -24 -241.5 -127.5t-89.5 -253.5q0 -74 26 -133t80 -107z" />
    <glyph glyph-name="sterling" unicode="&#xa3;" horiz-adv-x="1034" 
d="M920 221l-33 -198q-56 -24 -110 -36t-109 -12q-51 0 -186 16.5t-220 16.5q-52 0 -104.5 -4.5t-105.5 -13.5l224 624h-188l53 160h191l102 264q71 184 185.5 284.5t250.5 100.5q28 0 63.5 -6t82.5 -18l-23 -176q-31 14 -59.5 21t-52.5 7q-88 0 -160.5 -69t-122.5 -199
l-80 -209h219l-49 -160h-231l-146 -419q87 0 211.5 -16.5t163.5 -16.5q58 0 115.5 14.5t118.5 44.5z" />
    <glyph glyph-name="currency" unicode="&#xa4;" horiz-adv-x="1241" 
d="M926 887q0 125 -89 214t-214 89q-126 0 -215 -89t-89 -214q0 -126 89 -215.5t215 -89.5q125 0 214 89.5t89 215.5zM367 1219q57 43 120 64.5t134 21.5t134.5 -21.5t121.5 -64.5l204 204l82 -80l-205 -206q41 -55 61.5 -118t20.5 -134q0 -73 -20 -135.5t-62 -116.5
l205 -205l-82 -82l-204 205q-59 -44 -122 -65t-132 -21q-72 0 -135.5 21.5t-120.5 64.5l-205 -205l-82 82l207 205q-41 51 -62.5 116t-21.5 136q0 70 21 133t63 119l-207 206l82 80z" />
    <glyph glyph-name="yen" unicode="&#xa5;" horiz-adv-x="1063" 
d="M850 1022h227l-14 -96h-283l-118 -170h376l-14 -99h-403l-99 -657h-186l98 657h-405l14 99h373l-82 170h-264l14 96h203l-178 377h192l240 -516l356 516h213z" />
    <glyph glyph-name="brokenbar" unicode="&#xa6;" 
d="M588 408v-758h-150v758h150zM588 1432v-758h-150v758h150z" />
    <glyph glyph-name="section" unicode="&#xa7;" horiz-adv-x="1034" 
d="M571 383q87 44 127.5 91.5t40.5 105.5q0 50 -30 92t-93 80l-172 102q-91 -39 -133.5 -87.5t-42.5 -113.5q0 -47 32.5 -92t90.5 -78zM121 102q89 -67 160 -98t137 -31q64 0 100.5 34t36.5 93q0 52 -29.5 90t-144.5 105q-182 105 -236.5 177.5t-54.5 174.5q0 104 63 179.5
t187 119.5q-32 33 -46.5 74t-14.5 94q0 137 86 222t227 85q82 0 157 -24.5t148 -75.5l-25 -176q-93 64 -157.5 90.5t-126.5 26.5q-64 0 -99.5 -33t-35.5 -92q0 -53 30.5 -92t143.5 -105q185 -108 238 -179t53 -171q0 -103 -64 -179t-188 -120q31 -33 46 -74t15 -94
q0 -138 -86 -222.5t-227 -84.5q-88 0 -168 27.5t-154 82.5z" />
    <glyph glyph-name="dieresis" unicode="&#xa8;" 
d="M666 1210q0 38 29.5 67.5t68.5 29.5q40 0 69 -28.5t29 -68.5q0 -43 -28 -72.5t-70 -29.5q-40 0 -69 30.5t-29 71.5zM291 1210q0 38 29.5 67.5t68.5 29.5q40 0 69 -28.5t29 -68.5q0 -43 -28 -72.5t-70 -29.5q-40 0 -69 30.5t-29 71.5z" />
    <glyph glyph-name="copyright" unicode="&#xa9;" horiz-adv-x="1706" 
d="M1053 907q-13 77 -66 118.5t-139 41.5q-105 0 -165 -90.5t-60 -249.5q0 -157 62 -244.5t173 -87.5q82 0 136.5 47t68.5 129h145q-9 -130 -107.5 -211t-248.5 -81q-182 0 -285.5 120t-103.5 334q0 200 109 322.5t286 122.5q142 0 236.5 -75t105.5 -196h-147zM1493 727
q0 130 -47.5 246.5t-136.5 206.5q-93 92 -209 140t-246 48q-129 0 -243.5 -47t-204.5 -137q-93 -93 -143 -211.5t-50 -245.5q0 -126 49 -242t141 -209q92 -91 207.5 -139.5t243.5 -48.5q125 0 242 49t213 142q90 88 137 202.5t47 245.5zM852 1464q152 0 285.5 -54.5
t238.5 -160.5q104 -103 159.5 -238.5t55.5 -283.5q0 -149 -54.5 -281.5t-158.5 -234.5q-110 -107 -245.5 -164t-280.5 -57t-278.5 56t-239.5 163q-106 105 -161.5 238.5t-55.5 279.5q0 147 56 281.5t163 242.5q104 104 236 158.5t280 54.5z" />
    <glyph glyph-name="ordfeminine" unicode="&#xaa;" horiz-adv-x="711" 
d="M557 752h-129l12 79q-41 -47 -85.5 -69.5t-98.5 -22.5q-99 0 -166 73.5t-67 184.5q0 68 22.5 131t65.5 115q67 83 156 119.5t231 36.5h161zM459 950l53 342q-6 1 -13 1.5t-22 0.5q-139 0 -226 -79.5t-87 -202.5q0 -77 37 -123.5t98 -46.5q46 0 86 27t74 81z" />
    <glyph glyph-name="guillemotleft" unicode="&#xab;" horiz-adv-x="844" 
d="M707 152h-146l-203 303l279 317h156l-285 -317zM369 152h-142l-198 303l264 317h147l-268 -317z" />
    <glyph glyph-name="logicalnot" unicode="&#xac;" horiz-adv-x="1706" 
d="M1452 860v-502h-137v363h-1061v139h1198z" />
    <glyph glyph-name="sfthyphen" unicode="&#xad;" horiz-adv-x="692" 
d="M37 379l18 166h525l-19 -166h-524z" />
    <glyph glyph-name="registered" unicode="&#xae;" horiz-adv-x="1706" 
d="M844 1057h-129v-277h133q113 0 162 31.5t49 101.5q0 76 -51 110t-164 34zM872 1159q174 0 261.5 -57.5t87.5 -171.5q0 -89 -50 -148t-141 -77l187 -381h-177l-170 356h-155v-356h-158v835h315zM1493 721q0 134 -46.5 251t-135.5 206q-92 93 -208.5 141.5t-248.5 48.5
q-130 0 -245 -47t-201 -135q-94 -95 -144.5 -214t-50.5 -245q0 -125 48.5 -240.5t139.5 -207.5q90 -92 206.5 -141.5t240.5 -49.5q130 0 246.5 48t212.5 140q90 88 138 202.5t48 242.5zM852 1464q151 0 286 -56t240 -163q103 -104 158 -238t55 -280q0 -151 -55 -283.5
t-160 -234.5q-109 -106 -244.5 -162.5t-279.5 -56.5q-147 0 -280.5 56.5t-239.5 164.5q-105 106 -160 238.5t-55 277.5q0 146 57.5 282.5t165.5 245.5q101 103 231.5 156t280.5 53z" />
    <glyph glyph-name="macron" unicode="&#xaf;" 
d="M309 1153l27 127h516l-27 -127h-516z" />
    <glyph glyph-name="degree" unicode="&#xb0;" horiz-adv-x="674" 
d="M530 1169q0 81 -55.5 137t-136.5 56t-138 -56t-57 -137t57 -138.5t138 -57.5t136.5 57.5t55.5 138.5zM338 1456q118 0 202.5 -84.5t84.5 -204.5q0 -119 -84 -202.5t-205 -83.5t-204 83t-83 203t84.5 204.5t204.5 84.5z" />
    <glyph glyph-name="plusminus" unicode="&#xb1;" horiz-adv-x="1706" 
d="M1452 170v-141h-1198v141h1198zM924 1192v-340h528v-139h-528v-340h-142v340h-528v139h528v340h142z" />
    <glyph glyph-name="twosuperior" unicode="&#xb2;" horiz-adv-x="682" 
d="M-2 559l2 12q240 261 348.5 409.5t108.5 213.5q0 47 -37 74.5t-98 27.5q-41 0 -90 -16.5t-103 -48.5l21 115q47 29 95 43t99 14q107 0 169 -53.5t62 -143.5q0 -82 -72 -195.5t-286 -351.5h348l-20 -100h-547z" />
    <glyph glyph-name="threesuperior" unicode="&#xb3;" horiz-adv-x="682" 
d="M2 598l18 98q65 -26 109.5 -37.5t85.5 -11.5q93 0 150 43.5t57 112.5q0 63 -42.5 101t-125.5 48l16 92q92 5 147.5 46.5t55.5 105.5q0 54 -37 84.5t-104 30.5q-42 0 -86 -12t-92 -37l18 114q44 19 86 28t86 9q119 0 191.5 -59t72.5 -156q0 -75 -45 -125.5t-135 -77.5
q60 -31 89.5 -76.5t29.5 -109.5q0 -118 -89 -191t-233 -73q-60 0 -115.5 13t-107.5 40z" />
    <glyph glyph-name="acute" unicode="&#xb4;" 
d="M524 1059h-106l235 348h178z" />
    <glyph glyph-name="mu" unicode="&#xb5;" horiz-adv-x="1151" 
d="M385 1071l-129 -600q-7 -32 -10.5 -64.5t-3.5 -68.5q0 -99 52 -153t148 -54q132 0 208.5 92.5t123.5 311.5l115 536h178l-156 -732q-1 -6 -4 -20q-18 -87 -18 -112q0 -37 16.5 -52.5t55.5 -15.5q12 0 18.5 0.5t13.5 1.5l-30 -143q-25 -5 -51 -7.5t-58 -2.5q-63 0 -97 29
t-52 100q-45 -66 -112.5 -98.5t-158.5 -32.5q-82 0 -143 27.5t-113 88.5l-110 -530h-181l318 1499h180z" />
    <glyph glyph-name="paragraph" unicode="&#xb6;" 
d="M958 1393h-120v-1393h-111v1393h-176v-1393h-113v782q-170 8 -271 102.5t-101 245.5q0 157 107.5 253t285.5 96h499v-86z" />
    <glyph glyph-name="glyph121" unicode="&#xb7;" horiz-adv-x="516" 
d="M139 711q0 50 34 84t85 34q49 0 84 -34.5t35 -83.5q0 -51 -34 -85t-85 -34t-85 34t-34 85z" />
    <glyph glyph-name="cedilla" unicode="&#xb8;" 
d="M102 -418l33 86q68 -20 124.5 -30.5t98.5 -10.5q61 0 93 27t32 78q0 44 -36.5 63t-127.5 19h-36l63 186h72l-35 -106h18q113 0 164 -40.5t51 -127.5q0 -88 -64.5 -141.5t-172.5 -53.5q-53 0 -122.5 13t-154.5 38z" />
    <glyph glyph-name="onesuperior" unicode="&#xb9;" horiz-adv-x="682" 
d="M203 559l153 840h125l-153 -840h-125z" />
    <glyph glyph-name="ordmasculine" unicode="&#xba;" horiz-adv-x="698" 
d="M18 1026q0 163 98 275t234 112q128 0 201.5 -78t73.5 -213q0 -165 -97.5 -274t-244.5 -109q-123 0 -194 77t-71 210zM354 1309q-78 0 -136 -85.5t-58 -205.5q0 -83 35 -130.5t94 -47.5q85 0 140.5 82.5t55.5 214.5q0 82 -34 127t-97 45z" />
    <glyph glyph-name="guillemotright" unicode="&#xbb;" horiz-adv-x="844" 
d="M63 772h146l203 -303l-279 -317h-156l285 317zM401 772h142l198 -303l-264 -317h-147l268 317z" />
    <glyph glyph-name="onequarter" unicode="&#xbc;" horiz-adv-x="1653" 
d="M1364 324l47 254l-237 -254h190zM1303 0l45 242h-332l2 47l471 493h63l-82 -458h125l-12 -82h-127l-43 -242h-110zM1182 1421h151l-872 -1439h-152zM193 614l147 783h119l-148 -783h-118z" />
    <glyph glyph-name="onehalf" unicode="&#xbd;" horiz-adv-x="1653" 
d="M999 0l2 12q228 243 332.5 381.5t104.5 198.5q0 44 -34.5 70t-94.5 26q-38 0 -85 -15.5t-100 -45.5l19 106q45 27 91.5 40t96.5 13q101 0 160 -49t59 -133q0 -76 -67.5 -181t-274.5 -329h332l-18 -94h-523zM1182 1421h151l-872 -1439h-152zM193 614l147 783h119
l-148 -783h-118z" />
    <glyph glyph-name="threequarters" unicode="&#xbe;" horiz-adv-x="1653" 
d="M1364 324l47 254l-237 -254h190zM1303 0l45 242h-332l2 47l471 493h63l-82 -458h125l-12 -82h-127l-43 -242h-110zM1182 1421h151l-872 -1439h-152zM2 651l16 90q65 -24 108 -34.5t79 -10.5q89 0 143.5 41t54.5 105q0 59 -40 93.5t-121 45.5l16 86q89 5 142 44t53 99
q0 50 -36 78.5t-100 28.5q-39 0 -81 -11.5t-91 -35.5l21 106q38 18 78 26.5t84 8.5q115 0 184.5 -55t69.5 -146q0 -69 -44.5 -117t-129.5 -71q58 -29 86 -71.5t28 -102.5q0 -110 -85 -179t-222 -69q-57 0 -110.5 13t-102.5 38z" />
    <glyph glyph-name="questiondown" unicode="&#xbf;" horiz-adv-x="659" 
d="M612 1311q0 -45 -30 -76t-74 -31q-45 0 -76 31t-31 76q0 44 31 75t76 31q44 0 74 -30.5t30 -75.5zM518 1042v-16q0 -108 -38 -208.5t-128 -221.5q-24 -32 -70 -88q-118 -140 -118 -219q0 -66 40.5 -106t106.5 -40q43 0 92.5 23.5t135.5 87.5l-35 -201
q-51 -36 -104.5 -53.5t-114.5 -17.5q-140 0 -220.5 78.5t-80.5 213.5q0 89 32 160t146 195q123 132 174.5 224.5t62.5 188.5h119z" />
    <glyph glyph-name="Agrave" unicode="&#xc0;" horiz-adv-x="1067" 
d="M698 588l-116 555l-226 -555h342zM115 0h-193l604 1399h176l291 -1399h-174l-86 418h-450zM758 1538h-100l-285 348h166z" />
    <glyph glyph-name="Aacute" unicode="&#xc1;" horiz-adv-x="1067" 
d="M698 588l-116 555l-226 -555h342zM115 0h-193l604 1399h176l291 -1399h-174l-86 418h-450zM600 1538h-106l235 348h178z" />
    <glyph glyph-name="Acircumflex" unicode="&#xc2;" horiz-adv-x="1067" 
d="M698 588l-116 555l-226 -555h342zM115 0h-193l604 1399h176l291 -1399h-174l-86 418h-450zM907 1538h-94l-141 229l-229 -229h-107l270 348h154z" />
    <glyph glyph-name="Atilde" unicode="&#xc3;" horiz-adv-x="1067" 
d="M698 588l-116 555l-226 -555h342zM115 0h-193l604 1399h176l291 -1399h-174l-86 418h-450zM940 1806q-32 -104 -75 -148t-111 -44q-19 0 -38.5 3t-41.5 9l-65 20q-21 7 -38.5 11t-29.5 4q-31 0 -51 -18t-33 -58h-86q30 101 75 146.5t113 45.5q19 0 38.5 -3t39.5 -9
l68 -22q21 -7 37 -10t30 -3q34 0 53.5 18.5t28.5 57.5h86z" />
    <glyph glyph-name="Adieresis" unicode="&#xc4;" horiz-adv-x="1067" 
d="M698 588l-116 555l-226 -555h342zM115 0h-193l604 1399h176l291 -1399h-174l-86 418h-450zM742 1689q0 38 29.5 67.5t68.5 29.5q40 0 69 -28.5t29 -68.5q0 -43 -28 -72.5t-70 -29.5q-40 0 -69 30.5t-29 71.5zM367 1689q0 38 29.5 67.5t68.5 29.5q40 0 69 -28.5t29 -68.5
q0 -43 -28 -72.5t-70 -29.5q-40 0 -69 30.5t-29 71.5z" />
    <glyph glyph-name="Aring" unicode="&#xc5;" horiz-adv-x="1067" 
d="M471 1708q0 -63 43.5 -106t106.5 -43q61 0 104 43t43 106t-43 106.5t-104 43.5q-63 0 -106.5 -43.5t-43.5 -106.5zM371 1708q0 104 72.5 176t177.5 72q104 0 175.5 -72t71.5 -176t-71.5 -176t-175.5 -72q-105 0 -177.5 72t-72.5 176zM698 588l-116 555l-226 -555h342z
M115 0h-193l604 1399h176l291 -1399h-174l-86 418h-450z" />
    <glyph glyph-name="AE" unicode="&#xc6;" horiz-adv-x="1792" 
d="M1702 0h-934l63 418h-434l-282 -418h-195l946 1399h860l-24 -166h-557l-64 -426h492l-25 -172h-491l-70 -465h739zM856 588l102 659h-12l-432 -659h342z" />
    <glyph glyph-name="Ccedilla" unicode="&#xc7;" horiz-adv-x="1165" 
d="M1063 307l-27 -209q-99 -61 -201 -92t-204 -31q-246 0 -400.5 166t-154.5 428q0 393 261.5 622.5t715.5 229.5q35 0 70.5 -1.5t72.5 -4.5l-20 -178q-9 0 -26 1q-65 3 -89 3q-359 0 -569.5 -180.5t-210.5 -485.5q0 -186 98.5 -301.5t255.5 -115.5q91 0 194 35.5t234 113.5
zM276 -418l33 86q68 -20 124.5 -30.5t98.5 -10.5q61 0 93 27t32 78q0 44 -36.5 63t-127.5 19h-36l63 186h72l-35 -106h18q113 0 164 -40.5t51 -127.5q0 -88 -64.5 -141.5t-172.5 -53.5q-53 0 -122.5 13t-154.5 38z" />
    <glyph glyph-name="Egrave" unicode="&#xc8;" horiz-adv-x="1067" 
d="M977 0h-928l209 1399h746l-25 -166h-559l-64 -426h494l-25 -172h-493l-70 -465h739zM780 1538h-100l-285 348h166z" />
    <glyph glyph-name="Eacute" unicode="&#xc9;" horiz-adv-x="1067" 
d="M977 0h-928l209 1399h746l-25 -166h-559l-64 -426h494l-25 -172h-493l-70 -465h739zM622 1538h-106l235 348h178z" />
    <glyph glyph-name="Ecircumflex" unicode="&#xca;" horiz-adv-x="1067" 
d="M977 0h-928l209 1399h746l-25 -166h-559l-64 -426h494l-25 -172h-493l-70 -465h739zM929 1538h-94l-141 229l-229 -229h-107l270 348h154z" />
    <glyph glyph-name="Edieresis" unicode="&#xcb;" horiz-adv-x="1067" 
d="M977 0h-928l209 1399h746l-25 -166h-559l-64 -426h494l-25 -172h-493l-70 -465h739zM764 1689q0 38 29.5 67.5t68.5 29.5q40 0 69 -28.5t29 -68.5q0 -43 -28 -72.5t-70 -29.5q-40 0 -69 30.5t-29 71.5zM389 1689q0 38 29.5 67.5t68.5 29.5q40 0 69 -28.5t29 -68.5
q0 -43 -28 -72.5t-70 -29.5q-40 0 -69 30.5t-29 71.5z" />
    <glyph glyph-name="Igrave" unicode="&#xcc;" horiz-adv-x="512" 
d="M248 0h-191l207 1399h193zM504 1538h-100l-285 348h166z" />
    <glyph glyph-name="Iacute" unicode="&#xcd;" horiz-adv-x="512" 
d="M248 0h-191l207 1399h193zM346 1538h-106l235 348h178z" />
    <glyph glyph-name="Icircumflex" unicode="&#xce;" horiz-adv-x="512" 
d="M248 0h-191l207 1399h193zM653 1538h-94l-141 229l-229 -229h-107l270 348h154z" />
    <glyph glyph-name="Idieresis" unicode="&#xcf;" horiz-adv-x="512" 
d="M248 0h-191l207 1399h193zM488 1689q0 38 29.5 67.5t68.5 29.5q40 0 69 -28.5t29 -68.5q0 -43 -28 -72.5t-70 -29.5q-40 0 -69 30.5t-29 71.5zM113 1689q0 38 29.5 67.5t68.5 29.5q40 0 69 -28.5t29 -68.5q0 -43 -28 -72.5t-70 -29.5q-40 0 -69 30.5t-29 71.5z" />
    <glyph glyph-name="Eth" unicode="&#xd0;" horiz-adv-x="1372" 
d="M289 170h186q310 0 465.5 132t155.5 394q0 248 -152.5 390.5t-419.5 142.5h-78l-67 -447h328l-23 -145h-326zM63 0l97 637h-174l22 145h172l92 617h174q182 0 303 -23.5t209 -75.5q160 -92 249 -252t89 -352q0 -168 -62 -308t-177 -230q-108 -85 -244.5 -121.5
t-392.5 -36.5h-357z" />
    <glyph glyph-name="Ntilde" unicode="&#xd1;" horiz-adv-x="1436" 
d="M240 0h-189l209 1399h107l690 -1039l147 1039h187l-207 -1399h-101l-696 1036zM1147 1806q-32 -104 -75 -148t-111 -44q-19 0 -38.5 3t-41.5 9l-65 20q-21 7 -38.5 11t-29.5 4q-31 0 -51 -18t-33 -58h-86q30 101 75 146.5t113 45.5q19 0 38.5 -3t39.5 -9l68 -22
q21 -7 37 -10t30 -3q34 0 53.5 18.5t28.5 57.5h86z" />
    <glyph glyph-name="Ograve" unicode="&#xd2;" horiz-adv-x="1368" 
d="M72 565q0 174 52 332t150 281q97 121 222 183t272 62q244 0 385 -159t141 -433q0 -171 -52 -329t-150 -283q-96 -120 -221 -182t-273 -62q-246 0 -386 157.5t-140 432.5zM760 1253q-100 0 -186 -47t-150 -137q-72 -100 -111 -229t-39 -271q0 -206 84.5 -316t241.5 -110
q104 0 191.5 46.5t150.5 136.5q73 100 111.5 228t38.5 269q0 207 -86.5 318.5t-245.5 111.5zM932 1538h-100l-285 348h166z" />
    <glyph glyph-name="Oacute" unicode="&#xd3;" horiz-adv-x="1368" 
d="M72 565q0 174 52 332t150 281q97 121 222 183t272 62q244 0 385 -159t141 -433q0 -171 -52 -329t-150 -283q-96 -120 -221 -182t-273 -62q-246 0 -386 157.5t-140 432.5zM760 1253q-100 0 -186 -47t-150 -137q-72 -100 -111 -229t-39 -271q0 -206 84.5 -316t241.5 -110
q104 0 191.5 46.5t150.5 136.5q73 100 111.5 228t38.5 269q0 207 -86.5 318.5t-245.5 111.5zM774 1538h-106l235 348h178z" />
    <glyph glyph-name="Ocircumflex" unicode="&#xd4;" horiz-adv-x="1368" 
d="M72 565q0 174 52 332t150 281q97 121 222 183t272 62q244 0 385 -159t141 -433q0 -171 -52 -329t-150 -283q-96 -120 -221 -182t-273 -62q-246 0 -386 157.5t-140 432.5zM760 1253q-100 0 -186 -47t-150 -137q-72 -100 -111 -229t-39 -271q0 -206 84.5 -316t241.5 -110
q104 0 191.5 46.5t150.5 136.5q73 100 111.5 228t38.5 269q0 207 -86.5 318.5t-245.5 111.5zM1081 1538h-94l-141 229l-229 -229h-107l270 348h154z" />
    <glyph glyph-name="Otilde" unicode="&#xd5;" horiz-adv-x="1368" 
d="M72 565q0 174 52 332t150 281q97 121 222 183t272 62q244 0 385 -159t141 -433q0 -171 -52 -329t-150 -283q-96 -120 -221 -182t-273 -62q-246 0 -386 157.5t-140 432.5zM760 1253q-100 0 -186 -47t-150 -137q-72 -100 -111 -229t-39 -271q0 -206 84.5 -316t241.5 -110
q104 0 191.5 46.5t150.5 136.5q73 100 111.5 228t38.5 269q0 207 -86.5 318.5t-245.5 111.5zM1114 1806q-32 -104 -75 -148t-111 -44q-19 0 -38.5 3t-41.5 9l-65 20q-21 7 -38.5 11t-29.5 4q-31 0 -51 -18t-33 -58h-86q30 101 75 146.5t113 45.5q19 0 38.5 -3t39.5 -9
l68 -22q21 -7 37 -10t30 -3q34 0 53.5 18.5t28.5 57.5h86z" />
    <glyph glyph-name="Odieresis" unicode="&#xd6;" horiz-adv-x="1368" 
d="M72 565q0 174 52 332t150 281q97 121 222 183t272 62q244 0 385 -159t141 -433q0 -171 -52 -329t-150 -283q-96 -120 -221 -182t-273 -62q-246 0 -386 157.5t-140 432.5zM760 1253q-100 0 -186 -47t-150 -137q-72 -100 -111 -229t-39 -271q0 -206 84.5 -316t241.5 -110
q104 0 191.5 46.5t150.5 136.5q73 100 111.5 228t38.5 269q0 207 -86.5 318.5t-245.5 111.5zM916 1689q0 38 29.5 67.5t68.5 29.5q40 0 69 -28.5t29 -68.5q0 -43 -28 -72.5t-70 -29.5q-40 0 -69 30.5t-29 71.5zM541 1689q0 38 29.5 67.5t68.5 29.5q40 0 69 -28.5t29 -68.5
q0 -43 -28 -72.5t-70 -29.5q-40 0 -69 30.5t-29 71.5z" />
    <glyph glyph-name="multiply" unicode="&#xd7;" horiz-adv-x="1706" 
d="M860 709l469 469l98 -99l-469 -469l469 -469l-98 -96l-469 467l-469 -467l-98 96l469 469l-469 469l98 99z" />
    <glyph glyph-name="Oslash" unicode="&#xd8;" horiz-adv-x="1368" 
d="M301 360l660 826q-43 34 -91.5 49.5t-109.5 15.5q-103 0 -193 -52t-155 -148q-70 -105 -108 -234.5t-38 -265.5q0 -61 8.5 -108t26.5 -83zM1184 1221q55 -80 81.5 -168.5t26.5 -190.5q0 -395 -195.5 -641t-506.5 -246q-98 0 -177 26.5t-145 80.5l-110 -139l-117 94
l127 158q-49 72 -71.5 160t-22.5 204q0 174 46.5 325.5t135.5 268.5q102 135 234 202.5t292 67.5q84 0 155 -22t138 -70l105 131l118 -94zM1053 1061l-666 -832q37 -44 88 -66t119 -22q85 0 160.5 32.5t138.5 94.5q91 91 146 238.5t55 304.5q0 52 -10 113.5t-31 136.5z" />
    <glyph glyph-name="Ugrave" unicode="&#xd9;" horiz-adv-x="1331" 
d="M242 1399h196l-123 -821q-8 -57 -11 -89.5t-3 -56.5q0 -125 81 -200.5t214 -75.5q168 0 261.5 93.5t123.5 291.5l129 858h190l-127 -851l-1 -7q-37 -250 -123 -359q-80 -97 -202.5 -151t-268.5 -54q-208 0 -340 124t-132 319q1 20 4.5 55.5t16.5 130.5zM913 1538h-100
l-285 348h166z" />
    <glyph glyph-name="Uacute" unicode="&#xda;" horiz-adv-x="1331" 
d="M242 1399h196l-123 -821q-8 -57 -11 -89.5t-3 -56.5q0 -125 81 -200.5t214 -75.5q168 0 261.5 93.5t123.5 291.5l129 858h190l-127 -851l-1 -7q-37 -250 -123 -359q-80 -97 -202.5 -151t-268.5 -54q-208 0 -340 124t-132 319q1 20 4.5 55.5t16.5 130.5zM755 1538h-106
l235 348h178z" />
    <glyph glyph-name="Ucircumflex" unicode="&#xdb;" horiz-adv-x="1331" 
d="M242 1399h196l-123 -821q-8 -57 -11 -89.5t-3 -56.5q0 -125 81 -200.5t214 -75.5q168 0 261.5 93.5t123.5 291.5l129 858h190l-127 -851l-1 -7q-37 -250 -123 -359q-80 -97 -202.5 -151t-268.5 -54q-208 0 -340 124t-132 319q1 20 4.5 55.5t16.5 130.5zM1062 1538h-94
l-141 229l-229 -229h-107l270 348h154z" />
    <glyph glyph-name="Udieresis" unicode="&#xdc;" horiz-adv-x="1331" 
d="M242 1399h196l-123 -821q-8 -57 -11 -89.5t-3 -56.5q0 -125 81 -200.5t214 -75.5q168 0 261.5 93.5t123.5 291.5l129 858h190l-127 -851l-1 -7q-37 -250 -123 -359q-80 -97 -202.5 -151t-268.5 -54q-208 0 -340 124t-132 319q1 20 4.5 55.5t16.5 130.5zM897 1689
q0 38 29.5 67.5t68.5 29.5q40 0 69 -28.5t29 -68.5q0 -43 -28 -72.5t-70 -29.5q-40 0 -69 30.5t-29 71.5zM522 1689q0 38 29.5 67.5t68.5 29.5q40 0 69 -28.5t29 -68.5q0 -43 -28 -72.5t-70 -29.5q-40 0 -69 30.5t-29 71.5z" />
    <glyph glyph-name="Yacute" unicode="&#xdd;" horiz-adv-x="993" 
d="M489 0h-190l104 705l-331 694h200l236 -504l350 504h221l-483 -694zM585 1538h-106l235 348h178z" />
    <glyph glyph-name="Thorn" unicode="&#xde;" horiz-adv-x="948" 
d="M37 0l209 1399h190l-43 -285h45q220 0 337.5 -97.5t117.5 -279.5q0 -210 -126.5 -322t-365.5 -112h-129l-43 -303h-192zM297 477h149q113 0 186 68.5t73 173.5q0 113 -76.5 170t-229.5 57h-32z" />
    <glyph glyph-name="germandbls" unicode="&#xdf;" horiz-adv-x="987" 
d="M193 0h-179l138 936q37 251 138 369t277 118q148 0 242 -91.5t94 -233.5q0 -110 -58 -190.5t-165 -116.5q92 -54 137 -134.5t45 -191.5q0 -232 -122.5 -362t-342.5 -130q-20 0 -30.5 0.5t-19.5 1.5l20 144q7 -1 16 -1.5t27 -0.5q135 0 206.5 91.5t71.5 264.5
q0 119 -56 188.5t-171 92.5l18 112q131 11 197.5 67t66.5 154q0 90 -50 143.5t-134 53.5q-91 0 -145.5 -81.5t-81.5 -258.5z" />
    <glyph glyph-name="agrave" unicode="&#xe0;" horiz-adv-x="948" 
d="M743 0h-174l17 115q-54 -68 -114 -100.5t-130 -32.5q-134 0 -223.5 105t-89.5 265q0 94 30.5 184t87.5 166q90 118 209 170t308 52h215zM612 285l70 487q-8 1 -18 1.5t-29 0.5q-184 0 -300 -113t-116 -290q0 -109 49.5 -175.5t128.5 -66.5q61 0 115 39t100 117zM702 1059
h-100l-285 348h166z" />
    <glyph glyph-name="aacute" unicode="&#xe1;" horiz-adv-x="948" 
d="M743 0h-174l17 115q-54 -68 -114 -100.5t-130 -32.5q-134 0 -223.5 105t-89.5 265q0 94 30.5 184t87.5 166q90 118 209 170t308 52h215zM612 285l70 487q-8 1 -18 1.5t-29 0.5q-184 0 -300 -113t-116 -290q0 -109 49.5 -175.5t128.5 -66.5q61 0 115 39t100 117zM544 1059
h-106l235 348h178z" />
    <glyph glyph-name="acircumflex" unicode="&#xe2;" horiz-adv-x="948" 
d="M743 0h-174l17 115q-54 -68 -114 -100.5t-130 -32.5q-134 0 -223.5 105t-89.5 265q0 94 30.5 184t87.5 166q90 118 209 170t308 52h215zM612 285l70 487q-8 1 -18 1.5t-29 0.5q-184 0 -300 -113t-116 -290q0 -109 49.5 -175.5t128.5 -66.5q61 0 115 39t100 117zM851 1059
h-94l-141 229l-229 -229h-107l270 348h154z" />
    <glyph glyph-name="atilde" unicode="&#xe3;" horiz-adv-x="948" 
d="M743 0h-174l17 115q-54 -68 -114 -100.5t-130 -32.5q-134 0 -223.5 105t-89.5 265q0 94 30.5 184t87.5 166q90 118 209 170t308 52h215zM612 285l70 487q-8 1 -18 1.5t-29 0.5q-184 0 -300 -113t-116 -290q0 -109 49.5 -175.5t128.5 -66.5q61 0 115 39t100 117zM884 1327
q-32 -104 -75 -148t-111 -44q-19 0 -38.5 3t-41.5 9l-65 20q-21 7 -38.5 11t-29.5 4q-31 0 -51 -18t-33 -58h-86q30 101 75 146.5t113 45.5q19 0 38.5 -3t39.5 -9l68 -22q21 -7 37 -10t30 -3q34 0 53.5 18.5t28.5 57.5h86z" />
    <glyph glyph-name="adieresis" unicode="&#xe4;" horiz-adv-x="948" 
d="M743 0h-174l17 115q-54 -68 -114 -100.5t-130 -32.5q-134 0 -223.5 105t-89.5 265q0 94 30.5 184t87.5 166q90 118 209 170t308 52h215zM612 285l70 487q-8 1 -18 1.5t-29 0.5q-184 0 -300 -113t-116 -290q0 -109 49.5 -175.5t128.5 -66.5q61 0 115 39t100 117zM686 1210
q0 38 29.5 67.5t68.5 29.5q40 0 69 -28.5t29 -68.5q0 -43 -28 -72.5t-70 -29.5q-40 0 -69 30.5t-29 71.5zM311 1210q0 38 29.5 67.5t68.5 29.5q40 0 69 -28.5t29 -68.5q0 -43 -28 -72.5t-70 -29.5q-40 0 -69 30.5t-29 71.5z" />
    <glyph glyph-name="aring" unicode="&#xe5;" horiz-adv-x="948" 
d="M463 1239q0 -63 43 -106t106 -43q62 0 106 43.5t44 105.5t-44 106t-106 44q-63 0 -106 -43.5t-43 -106.5zM365 1241q0 104 71 175t176 71t176.5 -71t71.5 -175q0 -105 -72 -177.5t-176 -72.5t-175.5 72.5t-71.5 177.5zM743 0h-174l17 115q-54 -68 -114 -100.5t-130 -32.5
q-134 0 -223.5 105t-89.5 265q0 94 30.5 184t87.5 166q90 118 209 170t308 52h215zM612 285l70 487q-8 1 -18 1.5t-29 0.5q-184 0 -300 -113t-116 -290q0 -109 49.5 -175.5t128.5 -66.5q61 0 115 39t100 117z" />
    <glyph glyph-name="ae" unicode="&#xe6;" horiz-adv-x="1489" 
d="M586 256l28 219h-12q-175 0 -286 -70.5t-111 -177.5q0 -53 33 -84.5t90 -31.5q52 0 115.5 35.5t142.5 109.5zM1337 272l-30 -182q-77 -56 -153.5 -83t-158.5 -27q-112 0 -195.5 48.5t-131.5 141.5q-96 -98 -186 -144t-183 -46q-117 0 -187.5 66.5t-70.5 176.5
q0 168 164 273.5t434 105.5l12 90v15q0 43 -36 69.5t-97 26.5q-65 0 -144.5 -32.5t-168.5 -94.5l14 174q77 46 154.5 69t156.5 23q96 0 154.5 -30.5t91.5 -96.5q61 64 127.5 95.5t138.5 31.5q160 0 246 -93.5t86 -266.5v-103h-583l-5 -61v-23q0 -114 65 -189t161 -75
q71 0 147.5 33t177.5 108zM817 606h391q0 4 1 12.5t1 12.5q0 80 -45.5 126t-126.5 46q-79 0 -135.5 -50.5t-85.5 -146.5z" />
    <glyph glyph-name="ccedilla" unicode="&#xe7;" horiz-adv-x="844" 
d="M715 229l-17 -180q-70 -34 -136.5 -50.5t-133.5 -16.5q-186 0 -298 108t-112 287q0 248 163 407.5t415 159.5q44 0 91.5 -5.5t94.5 -16.5l-16 -150q-41 8 -75.5 12t-63.5 4q-184 0 -303 -110t-119 -279q0 -123 65 -193.5t179 -70.5q67 0 132.5 23.5t133.5 70.5zM69 -418
l33 86q68 -20 124.5 -30.5t98.5 -10.5q61 0 93 27t32 78q0 44 -36.5 63t-127.5 19h-36l63 186h72l-35 -106h18q113 0 164 -40.5t51 -127.5q0 -88 -64.5 -141.5t-172.5 -53.5q-53 0 -122.5 13t-154.5 38z" />
    <glyph glyph-name="egrave" unicode="&#xe8;" horiz-adv-x="918" 
d="M768 270l-29 -186q-80 -53 -157.5 -78.5t-155.5 -25.5q-174 0 -285.5 122t-111.5 314q0 230 126.5 380t319.5 150q160 0 245 -93.5t85 -268.5v-105h-584l-4 -61v-23q0 -113 65 -188.5t160 -75.5q75 0 152.5 33t173.5 106zM250 608h389v25q0 78 -43 124t-117 46
q-87 0 -142.5 -47.5t-86.5 -147.5zM614 1059h-100l-285 348h166z" />
    <glyph glyph-name="eacute" unicode="&#xe9;" horiz-adv-x="918" 
d="M768 270l-29 -186q-80 -53 -157.5 -78.5t-155.5 -25.5q-174 0 -285.5 122t-111.5 314q0 230 126.5 380t319.5 150q160 0 245 -93.5t85 -268.5v-105h-584l-4 -61v-23q0 -113 65 -188.5t160 -75.5q75 0 152.5 33t173.5 106zM250 608h389v25q0 78 -43 124t-117 46
q-87 0 -142.5 -47.5t-86.5 -147.5zM456 1059h-106l235 348h178z" />
    <glyph glyph-name="ecircumflex" unicode="&#xea;" horiz-adv-x="918" 
d="M768 270l-29 -186q-80 -53 -157.5 -78.5t-155.5 -25.5q-174 0 -285.5 122t-111.5 314q0 230 126.5 380t319.5 150q160 0 245 -93.5t85 -268.5v-105h-584l-4 -61v-23q0 -113 65 -188.5t160 -75.5q75 0 152.5 33t173.5 106zM250 608h389v25q0 78 -43 124t-117 46
q-87 0 -142.5 -47.5t-86.5 -147.5zM763 1059h-94l-141 229l-229 -229h-107l270 348h154z" />
    <glyph glyph-name="edieresis" unicode="&#xeb;" horiz-adv-x="918" 
d="M768 270l-29 -186q-80 -53 -157.5 -78.5t-155.5 -25.5q-174 0 -285.5 122t-111.5 314q0 230 126.5 380t319.5 150q160 0 245 -93.5t85 -268.5v-105h-584l-4 -61v-23q0 -113 65 -188.5t160 -75.5q75 0 152.5 33t173.5 106zM250 608h389v25q0 78 -43 124t-117 46
q-87 0 -142.5 -47.5t-86.5 -147.5zM598 1210q0 38 29.5 67.5t68.5 29.5q40 0 69 -28.5t29 -68.5q0 -43 -28 -72.5t-70 -29.5q-40 0 -69 30.5t-29 71.5zM223 1210q0 38 29.5 67.5t68.5 29.5q40 0 69 -28.5t29 -68.5q0 -43 -28 -72.5t-70 -29.5q-40 0 -69 30.5t-29 71.5z" />
    <glyph glyph-name="igrave" unicode="&#xec;" horiz-adv-x="449" 
d="M209 0h-178l135 924h178zM395 1059h-100l-285 348h166z" />
    <glyph glyph-name="iacute" unicode="&#xed;" horiz-adv-x="449" 
d="M209 0h-178l135 924h178zM237 1059h-106l235 348h178z" />
    <glyph glyph-name="icircumflex" unicode="&#xee;" horiz-adv-x="449" 
d="M209 0h-178l135 924h178zM544 1059h-94l-141 229l-229 -229h-107l270 348h154z" />
    <glyph glyph-name="idieresis" unicode="&#xef;" horiz-adv-x="449" 
d="M209 0h-178l135 924h178zM379 1210q0 38 29.5 67.5t68.5 29.5q40 0 69 -28.5t29 -68.5q0 -43 -28 -72.5t-70 -29.5q-40 0 -69 30.5t-29 71.5zM4 1210q0 38 29.5 67.5t68.5 29.5q40 0 69 -28.5t29 -68.5q0 -43 -28 -72.5t-70 -29.5q-40 0 -69 30.5t-29 71.5z" />
    <glyph glyph-name="eth" unicode="&#xf0;" horiz-adv-x="930" 
d="M463 752q-103 0 -176.5 -111.5t-73.5 -269.5q0 -110 48 -177t126 -67q114 0 184 107t70 286q0 108 -48 170t-130 62zM692 774q-6 95 -21.5 169t-41.5 132l-252 -53l-25 100l228 49q-22 43 -51 83.5t-68 82.5l112 68q37 -33 74.5 -82t83.5 -125l189 41l28 -102l-174 -37
q39 -91 58.5 -198t19.5 -228q0 -333 -123 -516t-346 -183q-165 0 -261.5 108.5t-96.5 295.5q0 219 128 366.5t314 147.5q68 0 123.5 -29t101.5 -90z" />
    <glyph glyph-name="ntilde" unicode="&#xf1;" horiz-adv-x="977" 
d="M14 0l140 924h178l-23 -148q86 86 167 128t161 42q104 0 161.5 -66.5t57.5 -187.5q0 -30 -3 -65.5t-9 -75.5l-82 -551h-178l84 596q4 29 6 53t2 39q0 54 -27 81.5t-80 27.5q-64 0 -134 -47t-144 -140l-98 -610h-179zM850 1327q-32 -104 -75 -148t-111 -44q-19 0 -38.5 3
t-41.5 9l-65 20q-21 7 -38.5 11t-29.5 4q-31 0 -51 -18t-33 -58h-86q30 101 75 146.5t113 45.5q19 0 38.5 -3t39.5 -9l68 -22q21 -7 37 -10t30 -3q34 0 53.5 18.5t28.5 57.5h86z" />
    <glyph glyph-name="ograve" unicode="&#xf2;" horiz-adv-x="930" 
d="M25 393q0 231 130.5 391t311.5 160q170 0 268.5 -110.5t98.5 -303.5q0 -237 -130 -392.5t-327 -155.5q-164 0 -258 109.5t-94 301.5zM473 797q-105 0 -182.5 -123t-77.5 -295q0 -118 46.5 -186t125.5 -68q114 0 188 118t74 306q0 118 -45.5 183t-128.5 65zM635 1059h-100
l-285 348h166z" />
    <glyph glyph-name="oacute" unicode="&#xf3;" horiz-adv-x="930" 
d="M25 393q0 231 130.5 391t311.5 160q170 0 268.5 -110.5t98.5 -303.5q0 -237 -130 -392.5t-327 -155.5q-164 0 -258 109.5t-94 301.5zM473 797q-105 0 -182.5 -123t-77.5 -295q0 -118 46.5 -186t125.5 -68q114 0 188 118t74 306q0 118 -45.5 183t-128.5 65zM477 1059h-106
l235 348h178z" />
    <glyph glyph-name="ocircumflex" unicode="&#xf4;" horiz-adv-x="930" 
d="M25 393q0 231 130.5 391t311.5 160q170 0 268.5 -110.5t98.5 -303.5q0 -237 -130 -392.5t-327 -155.5q-164 0 -258 109.5t-94 301.5zM473 797q-105 0 -182.5 -123t-77.5 -295q0 -118 46.5 -186t125.5 -68q114 0 188 118t74 306q0 118 -45.5 183t-128.5 65zM784 1059h-94
l-141 229l-229 -229h-107l270 348h154z" />
    <glyph glyph-name="otilde" unicode="&#xf5;" horiz-adv-x="930" 
d="M25 393q0 231 130.5 391t311.5 160q170 0 268.5 -110.5t98.5 -303.5q0 -237 -130 -392.5t-327 -155.5q-164 0 -258 109.5t-94 301.5zM473 797q-105 0 -182.5 -123t-77.5 -295q0 -118 46.5 -186t125.5 -68q114 0 188 118t74 306q0 118 -45.5 183t-128.5 65zM817 1327
q-32 -104 -75 -148t-111 -44q-19 0 -38.5 3t-41.5 9l-65 20q-21 7 -38.5 11t-29.5 4q-31 0 -51 -18t-33 -58h-86q30 101 75 146.5t113 45.5q19 0 38.5 -3t39.5 -9l68 -22q21 -7 37 -10t30 -3q34 0 53.5 18.5t28.5 57.5h86z" />
    <glyph glyph-name="odieresis" unicode="&#xf6;" horiz-adv-x="930" 
d="M25 393q0 231 130.5 391t311.5 160q170 0 268.5 -110.5t98.5 -303.5q0 -237 -130 -392.5t-327 -155.5q-164 0 -258 109.5t-94 301.5zM473 797q-105 0 -182.5 -123t-77.5 -295q0 -118 46.5 -186t125.5 -68q114 0 188 118t74 306q0 118 -45.5 183t-128.5 65zM619 1210
q0 38 29.5 67.5t68.5 29.5q40 0 69 -28.5t29 -68.5q0 -43 -28 -72.5t-70 -29.5q-40 0 -69 30.5t-29 71.5zM244 1210q0 38 29.5 67.5t68.5 29.5q40 0 69 -28.5t29 -68.5q0 -43 -28 -72.5t-70 -29.5q-40 0 -69 30.5t-29 71.5z" />
    <glyph glyph-name="divide" unicode="&#xf7;" horiz-adv-x="1706" 
d="M854 367q51 0 88 -37t37 -88q0 -52 -36.5 -88.5t-88.5 -36.5q-53 0 -89 36t-36 89q0 51 37 88t88 37zM1452 680v-139h-1198v139h1198zM854 1106q51 0 88 -37.5t37 -89.5q0 -51 -36.5 -88t-88.5 -37t-88.5 36.5t-36.5 88.5t37 89.5t88 37.5z" />
    <glyph glyph-name="oslash" unicode="&#xf8;" horiz-adv-x="930" 
d="M94 127q-34 59 -50.5 125t-16.5 141q0 98 25 186t75 162q63 94 153.5 147.5t184.5 53.5q71 0 125.5 -17t99.5 -53l82 101l84 -72l-90 -115q35 -55 51.5 -116t16.5 -133q0 -242 -131 -399.5t-328 -157.5q-63 0 -115.5 18t-87.5 51l-80 -100l-88 65zM588 743
q-27 28 -52.5 40t-60.5 12q-105 0 -183.5 -118.5t-78.5 -281.5q0 -19 2.5 -45.5t7.5 -60.5zM635 627l-361 -449q12 -24 42 -38.5t71 -14.5q107 0 183.5 116t76.5 281q0 20 -3 46t-9 59z" />
    <glyph glyph-name="ugrave" unicode="&#xf9;" horiz-adv-x="977" 
d="M893 924l-137 -924h-178l20 150q-86 -87 -167 -128.5t-161 -41.5q-104 0 -161.5 66t-57.5 187q0 31 3 66.5t9 75.5l84 549h177l-82 -588q-4 -28 -6.5 -53t-2.5 -39q0 -54 27.5 -81.5t79.5 -27.5q64 0 134 47t144 140l97 602h178zM659 1059h-100l-285 348h166z" />
    <glyph glyph-name="uacute" unicode="&#xfa;" horiz-adv-x="977" 
d="M893 924l-137 -924h-178l20 150q-86 -87 -167 -128.5t-161 -41.5q-104 0 -161.5 66t-57.5 187q0 31 3 66.5t9 75.5l84 549h177l-82 -588q-4 -28 -6.5 -53t-2.5 -39q0 -54 27.5 -81.5t79.5 -27.5q64 0 134 47t144 140l97 602h178zM501 1059h-106l235 348h178z" />
    <glyph glyph-name="ucircumflex" unicode="&#xfb;" horiz-adv-x="977" 
d="M893 924l-137 -924h-178l20 150q-86 -87 -167 -128.5t-161 -41.5q-104 0 -161.5 66t-57.5 187q0 31 3 66.5t9 75.5l84 549h177l-82 -588q-4 -28 -6.5 -53t-2.5 -39q0 -54 27.5 -81.5t79.5 -27.5q64 0 134 47t144 140l97 602h178zM808 1059h-94l-141 229l-229 -229h-107
l270 348h154z" />
    <glyph glyph-name="udieresis" unicode="&#xfc;" horiz-adv-x="977" 
d="M893 924l-137 -924h-178l20 150q-86 -87 -167 -128.5t-161 -41.5q-104 0 -161.5 66t-57.5 187q0 31 3 66.5t9 75.5l84 549h177l-82 -588q-4 -28 -6.5 -53t-2.5 -39q0 -54 27.5 -81.5t79.5 -27.5q64 0 134 47t144 140l97 602h178zM643 1210q0 38 29.5 67.5t68.5 29.5
q40 0 69 -28.5t29 -68.5q0 -43 -28 -72.5t-70 -29.5q-40 0 -69 30.5t-29 71.5zM268 1210q0 38 29.5 67.5t68.5 29.5q40 0 69 -28.5t29 -68.5q0 -43 -28 -72.5t-70 -29.5q-40 0 -69 30.5t-29 71.5z" />
    <glyph glyph-name="yacute" unicode="&#xfd;" horiz-adv-x="801" 
d="M139 -465h-184l250 522l-166 867h174l117 -607l291 607h190zM413 1059h-106l235 348h178z" />
    <glyph glyph-name="thorn" unicode="&#xfe;" horiz-adv-x="973" 
d="M234 135q10 -1 21 -1.5t32 -0.5q195 0 305 100.5t110 278.5q0 140 -70 221.5t-192 81.5q-24 0 -51.5 -6.5t-58.5 -20.5zM145 -465h-178l170 1149q-57 -43 -97.5 -103.5t-47.5 -60.5q-6 0 -10.5 6t-4.5 15q0 38 51.5 119.5t129.5 152.5l86 586h176l-70 -481q41 15 78 22.5
t74 7.5q169 0 275 -122t106 -318q0 -242 -162.5 -384t-441.5 -142q-27 0 -42 0.5t-27 -5.5z" />
    <glyph glyph-name="ydieresis" unicode="&#xff;" horiz-adv-x="801" 
d="M139 -465h-184l250 522l-166 867h174l117 -607l291 607h190zM555 1210q0 38 29.5 67.5t68.5 29.5q40 0 69 -28.5t29 -68.5q0 -43 -28 -72.5t-70 -29.5q-40 0 -69 30.5t-29 71.5zM180 1210q0 38 29.5 67.5t68.5 29.5q40 0 69 -28.5t29 -68.5q0 -43 -28 -72.5t-70 -29.5
q-40 0 -69 30.5t-29 71.5z" />
    <glyph glyph-name="Cacute" unicode="&#x106;" horiz-adv-x="1165" 
d="M1063 307l-27 -209q-99 -61 -201 -92t-204 -31q-246 0 -400.5 166t-154.5 428q0 393 261.5 622.5t715.5 229.5q35 0 70.5 -1.5t72.5 -4.5l-20 -178q-9 0 -26 1q-65 3 -89 3q-359 0 -569.5 -180.5t-210.5 -485.5q0 -186 98.5 -301.5t255.5 -115.5q91 0 194 35.5t234 113.5
zM762 1538h-106l235 348h178z" />
    <glyph glyph-name="cacute" unicode="&#x107;" horiz-adv-x="844" 
d="M715 229l-17 -180q-70 -34 -136.5 -50.5t-133.5 -16.5q-186 0 -298 108t-112 287q0 248 163 407.5t415 159.5q44 0 91.5 -5.5t94.5 -16.5l-16 -150q-41 8 -75.5 12t-63.5 4q-184 0 -303 -110t-119 -279q0 -123 65 -193.5t179 -70.5q67 0 132.5 23.5t133.5 70.5zM477 1059
h-106l235 348h178z" />
    <glyph glyph-name="Ccaron" unicode="&#x10c;" horiz-adv-x="1165" 
d="M1063 307l-27 -209q-99 -61 -201 -92t-204 -31q-246 0 -400.5 166t-154.5 428q0 393 261.5 622.5t715.5 229.5q35 0 70.5 -1.5t72.5 -4.5l-20 -178q-9 0 -26 1q-65 3 -89 3q-359 0 -569.5 -180.5t-210.5 -485.5q0 -186 98.5 -301.5t255.5 -115.5q91 0 194 35.5t234 113.5
zM560 1886h96l139 -227l229 227h107l-268 -348h-156z" />
    <glyph glyph-name="ccaron" unicode="&#x10d;" horiz-adv-x="844" 
d="M715 229l-17 -180q-70 -34 -136.5 -50.5t-133.5 -16.5q-186 0 -298 108t-112 287q0 248 163 407.5t415 159.5q44 0 91.5 -5.5t94.5 -16.5l-16 -150q-41 8 -75.5 12t-63.5 4q-184 0 -303 -110t-119 -279q0 -123 65 -193.5t179 -70.5q67 0 132.5 23.5t133.5 70.5zM275 1407
h96l139 -227l229 227h107l-268 -348h-156z" />
    <glyph glyph-name="dcroat" unicode="&#x111;" horiz-adv-x="952" 
d="M586 139l94 653q-8 2 -17.5 2.5t-27.5 0.5q-188 0 -307 -109t-119 -276q0 -123 77.5 -203t192.5 -80q21 0 48 3t59 9zM928 1245h155l-16 -115h-156l-168 -1132q-78 -8 -136 -12t-99 -4q-224 0 -353.5 108.5t-129.5 294.5q0 237 180.5 401t451.5 164q22 0 33 -0.5t19 -0.5
l26 181h-295l17 115h295l22 154h178z" />
    <glyph glyph-name="Gbreve" unicode="&#x11e;" horiz-adv-x="1319" 
d="M1159 133q-117 -79 -237.5 -118.5t-245.5 -39.5q-266 0 -433 173t-167 448q0 167 62 312.5t181 260.5q130 125 314 188.5t416 63.5q61 0 130 -6.5t150 -19.5l-26 -172q-75 11 -145 16.5t-136 5.5q-333 0 -537 -179t-204 -468q0 -204 113.5 -323t310.5 -119q72 0 141.5 18
t144.5 57l37 238h-211l17 156h399zM497 1849h88v-20q0 -63 39 -94t117 -31q85 0 141.5 35t90.5 110h92q-42 -139 -125.5 -206.5t-212.5 -67.5q-114 0 -173 58t-59 171q0 18 0.5 27t1.5 18z" />
    <glyph glyph-name="gbreve" unicode="&#x11f;" horiz-adv-x="854" 
d="M213 567q0 -78 47.5 -130t116.5 -52q77 0 129.5 60.5t52.5 150.5q0 81 -44.5 130.5t-117.5 49.5q-80 0 -132 -58.5t-52 -150.5zM334 -84q-144 -41 -192 -69t-48 -64q0 -53 58.5 -84t160.5 -31t158.5 29.5t56.5 81.5q0 43 -45 75.5t-149 61.5zM180 -35q-83 37 -116 72.5
t-33 83.5q0 54 43 99t125 75q-76 41 -113 107t-37 159q0 173 114 268t322 95h359l-21 -142h-157q34 -40 50.5 -84.5t16.5 -95.5q0 -108 -57 -195t-156 -128q-69 -29 -165 -45q-17 -3 -26 -5q-67 -11 -95.5 -27.5t-28.5 -41.5q0 -52 139 -87q75 -20 119 -34
q133 -42 188.5 -97t55.5 -141q0 -119 -105.5 -192.5t-282.5 -73.5t-285 64.5t-108 164.5q0 73 66.5 126t187.5 75zM188 1370h88v-20q0 -63 39 -94t117 -31q85 0 141.5 35t90.5 110h92q-42 -139 -125.5 -206.5t-212.5 -67.5q-114 0 -173 58t-59 171q0 18 0.5 27t1.5 18z" />
    <glyph glyph-name="Idotaccent" unicode="&#x130;" horiz-adv-x="512" 
d="M248 0h-191l207 1399h193zM297 1691q0 42 31.5 74.5t73.5 32.5t74 -32.5t32 -74.5q0 -45 -30.5 -75.5t-75.5 -30.5q-44 0 -74.5 31t-30.5 75z" />
    <glyph glyph-name="dotlessi" unicode="&#x131;" horiz-adv-x="449" 
d="M209 0h-178l135 924h178z" />
    <glyph glyph-name="Lslash" unicode="&#x141;" horiz-adv-x="883" 
d="M66 0l86 569l-179 -102l23 168l180 104l98 660h193l-88 -586l311 180l-24 -172l-312 -180l-71 -475h569l-27 -166h-759z" />
    <glyph glyph-name="lslash" unicode="&#x142;" horiz-adv-x="485" 
d="M137 627l-153 -90l18 143l156 90l96 629h182l-84 -568l154 91l-19 -142l-155 -90l-105 -690h-182z" />
    <glyph glyph-name="OE" unicode="&#x152;" horiz-adv-x="1917" 
d="M836 0q-242 0 -338 12.5t-154 42.5q-133 68 -203.5 201.5t-70.5 316.5q0 201 77 379.5t213 294.5q68 57 140 91t151 46q53 8 112.5 11.5t143.5 3.5h111h833l-24 -166h-557l-64 -426h492l-25 -172h-491l-70 -467h739l-24 -168h-991zM688 168h232l155 1065h-223
q-158 0 -260 -42.5t-170 -135.5q-72 -97 -111 -221.5t-39 -258.5q0 -118 31 -203t94 -139q43 -35 99.5 -50t191.5 -15z" />
    <glyph glyph-name="oe" unicode="&#x153;" horiz-adv-x="1526" 
d="M477 799q-106 0 -183 -122t-77 -294q0 -119 46 -187.5t124 -68.5q116 0 190 117.5t74 306.5q0 118 -45.5 183t-128.5 65zM1376 268l-28 -184q-79 -52 -157 -77t-157 -25q-108 0 -188.5 43.5t-128.5 128.5q-67 -86 -152.5 -129t-185.5 -43q-160 0 -254 111t-94 302
q0 234 131.5 391.5t322.5 157.5q103 0 174.5 -40.5t114.5 -123.5q64 79 141 118.5t168 39.5q156 0 243 -92.5t87 -257.5v-10l-2 -103h-580l-4 -61v-23q0 -113 64.5 -188.5t159.5 -75.5q71 0 147 32.5t178 108.5zM858 602h389q0 4 1 12.5t1 12.5q0 80 -45.5 126t-126.5 46
q-78 0 -134 -50t-85 -147z" />
    <glyph glyph-name="Scedilla" unicode="&#x15e;" horiz-adv-x="881" 
d="M14 80l31 201q96 -66 178 -97.5t156 -31.5q93 0 152 53.5t59 136.5q0 98 -215 274q-6 5 -11 9q-152 124 -207 214t-55 199q0 164 126.5 273.5t320.5 109.5q55 0 120 -15t146 -46l-22 -186q-70 36 -130 53.5t-114 17.5q-113 0 -183.5 -55t-70.5 -141q0 -107 218 -288
q16 -13 24 -20q4 -3 11 -9q232 -192 232 -370q0 -175 -114 -281t-306 -106q-86 0 -171.5 26t-174.5 79zM30 -418l33 86q68 -20 124.5 -30.5t98.5 -10.5q61 0 93 27t32 78q0 44 -36.5 63t-127.5 19h-36l63 186h72l-35 -106h18q113 0 164 -40.5t51 -127.5q0 -88 -64.5 -141.5
t-172.5 -53.5q-53 0 -122.5 13t-154.5 38z" />
    <glyph glyph-name="scedilla" unicode="&#x15f;" horiz-adv-x="750" 
d="M-2 109l43 172q93 -75 158.5 -107.5t122.5 -32.5q54 0 89 27t35 68q0 64 -164 179l-3 3q-130 91 -165.5 146t-35.5 128q0 113 80.5 182.5t214.5 69.5q81 0 154.5 -24t138.5 -72l-15 -186q-79 62 -151 93t-135 31q-49 0 -79 -22.5t-30 -58.5q0 -54 127 -142q58 -40 92 -65
q86 -66 120 -122.5t34 -129.5q0 -116 -84.5 -190t-216.5 -74q-84 0 -163.5 30.5t-166.5 96.5zM-35 -418l33 86q68 -20 124.5 -30.5t98.5 -10.5q61 0 93 27t32 78q0 44 -36.5 63t-127.5 19h-36l63 186h72l-35 -106h18q113 0 164 -40.5t51 -127.5q0 -88 -64.5 -141.5
t-172.5 -53.5q-53 0 -122.5 13t-154.5 38z" />
    <glyph glyph-name="Scaron" unicode="&#x160;" horiz-adv-x="881" 
d="M14 80l31 201q96 -66 178 -97.5t156 -31.5q93 0 152 53.5t59 136.5q0 98 -215 274q-6 5 -11 9q-152 124 -207 214t-55 199q0 164 126.5 273.5t320.5 109.5q55 0 120 -15t146 -46l-22 -186q-70 36 -130 53.5t-114 17.5q-113 0 -183.5 -55t-70.5 -141q0 -107 218 -288
q16 -13 24 -20q4 -3 11 -9q232 -192 232 -370q0 -175 -114 -281t-306 -106q-86 0 -171.5 26t-174.5 79zM328 1886h96l139 -227l229 227h107l-268 -348h-156z" />
    <glyph glyph-name="scaron" unicode="&#x161;" horiz-adv-x="750" 
d="M-2 109l43 172q93 -75 158.5 -107.5t122.5 -32.5q54 0 89 27t35 68q0 64 -164 179l-3 3q-130 91 -165.5 146t-35.5 128q0 113 80.5 182.5t214.5 69.5q81 0 154.5 -24t138.5 -72l-15 -186q-79 62 -151 93t-135 31q-49 0 -79 -22.5t-30 -58.5q0 -54 127 -142q58 -40 92 -65
q86 -66 120 -122.5t34 -129.5q0 -116 -84.5 -190t-216.5 -74q-84 0 -163.5 30.5t-166.5 96.5zM185 1407h96l139 -227l229 227h107l-268 -348h-156z" />
    <glyph glyph-name="Ydieresis" unicode="&#x178;" horiz-adv-x="993" 
d="M489 0h-190l104 705l-331 694h200l236 -504l350 504h221l-483 -694zM727 1689q0 38 29.5 67.5t68.5 29.5q40 0 69 -28.5t29 -68.5q0 -43 -28 -72.5t-70 -29.5q-40 0 -69 30.5t-29 71.5zM352 1689q0 38 29.5 67.5t68.5 29.5q40 0 69 -28.5t29 -68.5q0 -43 -28 -72.5
t-70 -29.5q-40 0 -69 30.5t-29 71.5z" />
    <glyph glyph-name="Zcaron" unicode="&#x17d;" horiz-adv-x="1319" 
d="M1165 0h-1179l1003 1223h-799l25 176h1159l-1016 -1219h834zM547 1886h96l139 -227l229 227h107l-268 -348h-156z" />
    <glyph glyph-name="zcaron" unicode="&#x17e;" horiz-adv-x="862" 
d="M760 0h-838l2 18l606 746h-477l23 160h780v-19l-602 -743h539zM242 1407h96l139 -227l229 227h107l-268 -348h-156z" />
    <glyph glyph-name="florin" unicode="&#x192;" horiz-adv-x="1034" 
d="M29 -398l33 185q28 -9 45.5 -12.5t31.5 -3.5q76 0 115 57t65 231l101 670h-168l27 170h167l27 180q25 168 108 251t226 83q25 0 56 -6.5t75 -20.5l-29 -192q-22 10 -43.5 15t-42.5 5q-66 0 -103.5 -40.5t-49.5 -124.5l-23 -150h182l-26 -178h-182l-109 -735
q-34 -235 -112 -323.5t-238 -88.5q-36 0 -68.5 6.5t-64.5 21.5z" />
    <glyph glyph-name="circumflex" unicode="&#x2c6;" 
d="M831 1059h-94l-141 229l-229 -229h-107l270 348h154z" />
    <glyph glyph-name="caron" unicode="&#x2c7;" 
d="M322 1407h96l139 -227l229 227h107l-268 -348h-156z" />
    <glyph glyph-name="breve" unicode="&#x2d8;" 
d="M272 1370h88v-20q0 -63 39 -94t117 -31q85 0 141.5 35t90.5 110h92q-42 -139 -125.5 -206.5t-212.5 -67.5q-114 0 -173 58t-59 171q0 18 0.5 27t1.5 18z" />
    <glyph glyph-name="dotaccent" unicode="&#x2d9;" 
d="M475 1212q0 42 31.5 74.5t73.5 32.5t74 -32.5t32 -74.5q0 -45 -30.5 -75.5t-75.5 -30.5q-44 0 -74.5 31t-30.5 75z" />
    <glyph glyph-name="ring" unicode="&#x2da;" 
d="M449 1282q0 -63 43 -106t106 -43q62 0 106 43.5t44 105.5t-44 106t-106 44q-63 0 -106 -43.5t-43 -106.5zM350 1284q0 104 71.5 175t176.5 71t176.5 -71t71.5 -175t-72 -176t-176 -72t-176 72t-72 176z" />
    <glyph glyph-name="ogonek" unicode="&#x2db;" 
d="M494 0q-70 -63 -103 -117.5t-33 -105.5q0 -45 22 -63.5t75 -18.5h90l-19 -129h-69q-114 0 -169 40t-55 124q0 65 41 125t148 145h72z" />
    <glyph glyph-name="tilde" unicode="&#x2dc;" 
d="M864 1327q-32 -104 -75 -148t-111 -44q-19 0 -38.5 3t-41.5 9l-65 20q-21 7 -38.5 11t-29.5 4q-31 0 -51 -18t-33 -58h-86q30 101 75 146.5t113 45.5q19 0 38.5 -3t39.5 -9l68 -22q21 -7 37 -10t30 -3q34 0 53.5 18.5t28.5 57.5h86z" />
    <glyph glyph-name="hungarumlaut" unicode="&#x2dd;" 
d="M819 1403h158l-260 -348h-84zM539 1403h157l-241 -348h-84z" />
    <glyph glyph-name="Omega" unicode="&#x3a9;" horiz-adv-x="1565" 
d="M1487 178v-178h-600v178q177 97 276 263t99 368q0 240 -132 385t-348 145t-348.5 -145.5t-132.5 -384.5q0 -202 99.5 -368t277.5 -263v-178h-600v178h319q-158 139 -230.5 288t-72.5 333q0 318 191.5 515t496.5 197q303 0 495.5 -196.5t192.5 -505.5q0 -194 -71 -342
t-232 -289h320z" />
    <glyph glyph-name="pi" unicode="&#x3c0;" horiz-adv-x="1206" 
d="M1159 913h-182l-105 -487q-15 -74 -22.5 -120t-7.5 -68q0 -58 23.5 -82.5t78.5 -24.5q17 0 40 2.5t60 7.5l-30 -141q-30 -8 -57.5 -12t-53.5 -4q-118 0 -178.5 51t-60.5 151q0 46 10.5 118t44.5 233l80 376h-326l-194 -913h-181l195 913h-41q-54 0 -84 -32t-39 -101h-160
q28 166 99.5 228.5t236.5 62.5h889z" />
    <glyph glyph-name="endash" unicode="&#x2013;" 
d="M989 524l-18 -123h-1006l19 123h1005z" />
    <glyph glyph-name="emdash" unicode="&#x2014;" horiz-adv-x="2048" 
d="M-35 401l19 123h2048l-19 -123h-2048z" />
    <glyph glyph-name="quoteleft" unicode="&#x2018;" horiz-adv-x="483" 
d="M446 1360q-45 -13 -74.5 -43.5t-43.5 -79.5q43 -15 66.5 -42t23.5 -62q0 -49 -33.5 -84t-79.5 -35q-51 0 -84 38.5t-33 100.5q0 98 71 172t187 96v-61z" />
    <glyph glyph-name="quoteright" unicode="&#x2019;" horiz-adv-x="483" 
d="M215 1077q46 14 75.5 44.5t43.5 78.5q-43 15 -66.5 42.5t-23.5 62.5q0 48 33 82t79 34q52 0 84.5 -38.5t32.5 -100.5q0 -97 -70.5 -170.5t-187.5 -95.5v61z" />
    <glyph glyph-name="quotesinglbase" unicode="&#x201a;" horiz-adv-x="483" 
d="M23 -150q45 14 74.5 44.5t43.5 78.5q-43 15 -66.5 42.5t-23.5 62.5q0 49 33.5 84t79.5 35q51 0 84 -39t33 -101q0 -97 -71 -171.5t-187 -96.5v61z" />
    <glyph glyph-name="quotedblleft" unicode="&#x201c;" horiz-adv-x="852" 
d="M815 1360q-45 -13 -74.5 -43.5t-44.5 -79.5q43 -15 66.5 -42t23.5 -62q0 -49 -33 -83t-79 -34q-52 0 -84.5 38.5t-32.5 100.5q0 97 70.5 170.5t187.5 95.5v-61zM446 1360q-45 -13 -75.5 -44t-44.5 -79q43 -15 67.5 -42.5t24.5 -61.5q0 -49 -33 -83t-80 -34
q-52 0 -84.5 38t-32.5 101q0 97 70.5 170.5t187.5 95.5v-61z" />
    <glyph glyph-name="quotedblright" unicode="&#x201d;" horiz-adv-x="852" 
d="M215 1077q46 14 75.5 44.5t43.5 78.5q-43 15 -66.5 42.5t-23.5 62.5q0 48 33 82t79 34q52 0 84.5 -38.5t32.5 -100.5q0 -97 -70.5 -170.5t-187.5 -95.5v61zM584 1077q46 14 76 44.5t45 78.5q-44 15 -68.5 42.5t-24.5 62.5q0 48 33 82t80 34q52 0 84.5 -38.5t32.5 -100.5
q0 -97 -70.5 -170.5t-187.5 -95.5v61z" />
    <glyph glyph-name="quotedblbase" unicode="&#x201e;" horiz-adv-x="852" 
d="M23 -150q45 14 74.5 44.5t43.5 78.5q-43 15 -66.5 42.5t-23.5 62.5q0 49 33.5 84t79.5 35q51 0 84 -39t33 -101q0 -97 -71 -171.5t-187 -96.5v61zM391 -150q46 14 75.5 44.5t43.5 78.5q-43 15 -66.5 42.5t-23.5 62.5q0 49 33 84t79 35q52 0 84.5 -39t32.5 -101
q0 -97 -70.5 -171.5t-187.5 -96.5v61z" />
    <glyph glyph-name="dagger" unicode="&#x2020;" horiz-adv-x="1034" 
d="M465 809l-399 -39l30 203l385 -39l23 465h231l-127 -465l400 39l-31 -203l-385 39l-94 -993h-232z" />
    <glyph glyph-name="daggerdbl" unicode="&#x2021;" horiz-adv-x="1034" 
d="M467 858l-391 -41l30 203l379 -39l15 418h233l-121 -418l389 39l-30 -203l-377 41l18 -252l-92 -250l387 41l-30 -204l-375 40l-6 -417h-234l113 417l-389 -40l28 204l379 -41l-10 250z" />
    <glyph glyph-name="bullet" unicode="&#x2022;" horiz-adv-x="1208" 
d="M307 762q0 123 87 209t210 86q122 0 208.5 -86.5t86.5 -208.5t-87.5 -209.5t-209.5 -87.5q-123 0 -209 87t-86 210z" />
    <glyph glyph-name="ellipsis" unicode="&#x2026;" horiz-adv-x="2048" 
d="M152 88q0 44 30.5 74.5t75.5 30.5t76 -30.5t31 -74.5t-31 -75t-76 -31q-44 0 -75 31t-31 75zM834 88q0 44 30.5 74.5t75.5 30.5t76 -30.5t31 -74.5t-31 -75t-76 -31q-44 0 -75 31t-31 75zM1518 88q0 44 30.5 74.5t75.5 30.5t76 -30.5t31 -74.5t-31 -75t-76 -31
q-44 0 -75 31t-31 75z" />
    <glyph glyph-name="perthousand" unicode="&#x2030;" horiz-adv-x="2896" 
d="M2181 391q0 -101 70.5 -171t171.5 -70q100 0 170.5 70t70.5 171q0 102 -70 172t-171 70q-102 0 -172 -70t-70 -172zM2005 391q0 175 121.5 296.5t296.5 121.5q174 0 296 -121.5t122 -296.5q0 -173 -122 -294.5t-296 -121.5q-175 0 -296.5 121t-121.5 295zM1247 391
q0 -101 70.5 -171t171.5 -70q100 0 170 70t70 171q0 102 -69.5 172t-170.5 70t-171.5 -70t-70.5 -172zM1071 391q0 175 121.5 296.5t296.5 121.5q174 0 295 -121.5t121 -296.5q0 -173 -121.5 -294.5t-294.5 -121.5q-175 0 -296.5 121t-121.5 295zM426 -25l944 1446h168
l-948 -1446h-164zM231 1006q0 -101 70.5 -171.5t171.5 -70.5q100 0 171 70.5t71 171.5q0 100 -71 170.5t-171 70.5q-101 0 -171.5 -70t-70.5 -171zM57 1004q0 175 120.5 296t295.5 121q174 0 296 -121.5t122 -295.5t-122 -295t-296 -121t-295 120.5t-121 295.5z" />
    <glyph glyph-name="guilsinglleft" unicode="&#x2039;" horiz-adv-x="518" 
d="M379 152h-146l-202 303l280 317h156l-285 -317z" />
    <glyph glyph-name="guilsinglright" unicode="&#x203a;" horiz-adv-x="518" 
d="M70 772h145l203 -303l-281 -317h-155l284 317z" />
    <glyph glyph-name="franc" unicode="&#x20a3;" horiz-adv-x="1616" 
d="M49 0l209 1399h746l-25 -166h-559l-64 -426h494l-25 -172h-493l-92 -635h-191zM1165 0h-172l138 924h172l-25 -174q68 106 122 147t120 41q17 0 36.5 -4t41.5 -12l-46 -166q-14 3 -26 4.5t-25 1.5q-77 0 -139 -57.5t-119 -182.5z" />
    <glyph glyph-name="trademark" unicode="&#x2122;" horiz-adv-x="1706" 
d="M963 1458l151 -385l141 385h150v-538h-98v444l-166 -444h-56l-174 444v-444h-98v538h150zM694 1458v-80h-172v-458h-108v458h-172v80h452z" />
    <glyph glyph-name="partialdiff" unicode="&#x2202;" horiz-adv-x="1059" 
d="M756 621q15 87 22.5 168.5t7.5 156.5q0 129 -36.5 194.5t-108.5 65.5q-55 0 -127 -58t-108 -58t-60 22t-24 53q0 62 72 111t173 49q180 0 287 -155t107 -418q0 -335 -144.5 -556t-357.5 -221q-152 0 -253.5 108t-101.5 271q0 198 110.5 326.5t272.5 128.5
q101 0 166 -45.5t103 -142.5zM707 494q0 116 -43.5 178.5t-122.5 62.5q-109 0 -179.5 -129t-70.5 -336q0 -116 43 -177.5t123 -61.5q109 0 179.5 130t70.5 333z" />
    <glyph glyph-name="Delta" unicode="&#x2206;" horiz-adv-x="1370" 
d="M1102 178l-418 1084l-418 -1084h836zM797 1473l579 -1473h-1382l579 1473h224z" />
    <glyph glyph-name="product" unicode="&#x220f;" horiz-adv-x="1550" 
d="M156 1473h1237v-1866h-240v1661h-758v-1661h-239v1866z" />
    <glyph glyph-name="summation" unicode="&#x2211;" horiz-adv-x="1380" 
d="M55 1473h1258v-193h-959l672 -717l-694 -764h1007v-192h-1314v149l725 801l-695 739v177z" />
    <glyph glyph-name="minus" unicode="&#x2212;" horiz-adv-x="1706" 
d="M1452 682v-141h-1198v141h1198z" />
    <glyph glyph-name="fraction" unicode="&#x2215;" horiz-adv-x="350" 
d="M530 1421h152l-872 -1439h-152z" />
    <glyph glyph-name="periodcentered" unicode="&#x2219;" horiz-adv-x="516" 
d="M139 711q0 50 34 84t85 34q49 0 84 -34.5t35 -83.5q0 -51 -34 -85t-85 -34t-85 34t-34 85z" />
    <glyph glyph-name="radical" unicode="&#x221a;" horiz-adv-x="1305" 
d="M1305 1661v-96h-115l-594 -1606h-66l-319 883l-125 -45l-25 80l283 98l256 -709l516 1395h189z" />
    <glyph glyph-name="infinity" unicode="&#x221e;" horiz-adv-x="1706" 
d="M915 559q50 -89 116.5 -133.5t150.5 -44.5q101 0 165 67.5t64 172.5q0 101 -59 168t-148 67q-81 0 -146.5 -66.5t-142.5 -230.5zM793 666q-49 88 -115.5 132t-151.5 44q-101 0 -165 -66.5t-64 -171.5q0 -101 59 -168t148 -67q81 0 146.5 66t142.5 231zM842 737
q68 138 147 203.5t176 65.5q133 0 227.5 -113t94.5 -279q0 -174 -83.5 -281.5t-217.5 -107.5q-95 0 -168.5 58.5t-153.5 199.5q-71 -136 -148.5 -199t-172.5 -63q-135 0 -228.5 112t-93.5 277q0 175 83.5 283t217.5 108q95 0 170 -61.5t150 -202.5z" />
    <glyph glyph-name="integral" unicode="&#x222b;" horiz-adv-x="1067" 
d="M311 -262q106 0 120 688q2 108 3 165q12 515 107 737t297 222q80 0 130 -42t50 -107q0 -54 -32 -85.5t-87 -31.5q-42 0 -70 19t-40 54q-6 15 -10.5 51t-20.5 36q-107 0 -121 -619q-4 -193 -8 -303q-17 -479 -111.5 -686t-290.5 -207q-79 0 -129.5 41.5t-50.5 106.5
q0 56 34 87.5t95 31.5q33 0 57 -14.5t39 -42.5q10 -17 15 -59t24 -42z" />
    <glyph glyph-name="approxequal" unicode="&#x2248;" horiz-adv-x="1706" 
d="M1530 430q-105 -73 -199.5 -107t-189.5 -34t-285 67.5t-293 67.5q-82 0 -171.5 -36t-213.5 -122v156q108 73 204 109t183 36q115 0 305 -68.5t273 -68.5q88 0 177 35.5t210 120.5v-156zM1530 799q-105 -73 -199.5 -107.5t-189.5 -34.5t-285 68t-293 68q-83 0 -171.5 -36
t-213.5 -122v156q106 72 202 107.5t185 35.5q116 0 305.5 -67.5t272.5 -67.5q87 0 175 34.5t212 120.5v-155z" />
    <glyph glyph-name="notequal" unicode="&#x2260;" horiz-adv-x="1706" 
d="M1313 1112l-187 -235h326v-136h-416l-205 -262h621v-135h-709l-249 -317l-105 84l184 233h-319v135h408l204 262h-612v136h702l252 317z" />
    <glyph glyph-name="lessequal" unicode="&#x2264;" horiz-adv-x="1706" 
d="M1446 162v-139h-1184v139h1184zM1444 1059l-936 -309l936 -306v-149l-1182 395v121l1182 395v-147z" />
    <glyph glyph-name="greaterequal" unicode="&#x2265;" horiz-adv-x="1706" 
d="M1446 162v-139h-1184v139h1184zM1446 811v-121l-1184 -395v149l938 306l-938 309v147z" />
    <glyph glyph-name="lozenge" unicode="&#x25ca;" horiz-adv-x="1012" 
d="M506 1409l-385 -817l385 -825l385 825zM506 1653l500 -1061l-500 -1069l-500 1069z" />
    <glyph glyph-name="apple" unicode="&#xf000;" horiz-adv-x="1618" 
d="M836 1216q-1 6 -1.5 14t-0.5 23q0 124 95 229.5t236 131.5q1 -10 1.5 -23t0.5 -39q0 -131 -103.5 -234.5t-203.5 -103.5h-8q-3 0 -7.5 1t-8.5 1zM1505 403q-114 -247 -205 -342.5t-204 -95.5q-50 0 -131.5 33t-122.5 33q-45 0 -131 -33t-127 -33q-64 0 -128.5 44
t-129.5 132q-102 140 -157.5 295.5t-55.5 300.5q0 219 125 356.5t323 137.5q68 0 155 -34t124 -34q34 0 121.5 35t152.5 35q110 0 198 -40t161 -124q-102 -65 -151.5 -145.5t-49.5 -182.5q0 -113 60 -200t173 -138z" />
    <glyph glyph-name="fi" unicode="&#xf001;" horiz-adv-x="930" 
d="M690 0h-172l137 924h172zM150 -379h-168l168 1147h-148l23 156h147l27 149q29 173 119.5 257.5t244.5 84.5q136 0 214.5 -67.5t78.5 -184.5q0 -10 -1 -21.5t-3 -33.5h-164q1 6 1.5 13.5t0.5 21.5q0 60 -33.5 92.5t-97.5 32.5q-83 0 -128 -56.5t-66 -191.5l-15 -96h180
l-22 -156h-182z" />
    <glyph glyph-name="fl" unicode="&#xf002;" horiz-adv-x="934" 
d="M698 0h-176l213 1397h176zM195 1034q35 200 128 289.5t265 89.5q26 0 50.5 -2t47.5 -6l-22 -148q-18 5 -36.5 7t-37.5 2q-97 0 -152 -53.5t-73 -163.5l-19 -125h193l-21 -156h-194l-172 -1147h-170l172 1147h-148l21 156h149z" />
    </font>
</defs>
</svg>
