<?xml version="1.0" standalone="no"?>
<!DOCTYPE svg PUBLIC "-//W3C//DTD SVG 1.1//EN" "http://www.w3.org/Graphics/SVG/1.1/DTD/svg11.dtd" >
<svg xmlns="http://www.w3.org/2000/svg" xmlns:xlink="http://www.w3.org/1999/xlink" version="1.1">
<metadata>
Created by FontForge 20170731 at Thu Sep 24 17:45:57 2020
 By Aleksey,,,
Copyright 1990-1999 as an unpublished work by Bitstream Inc.  All rights reserved.  Confidential.
</metadata>
<defs>
<font id="Humanist521BT-RomanCondensed" horiz-adv-x="1024" >
  <font-face 
    font-family="Humanist 521 Condensed"
    font-weight="500"
    font-stretch="condensed"
    units-per-em="2048"
    panose-1="0 0 0 0 0 0 0 0 0 0"
    ascent="1638"
    descent="-410"
    x-height="924"
    cap-height="1399"
    bbox="-342 -483 2048 1874"
    underline-thickness="112"
    underline-position="-343"
    unicode-range="U+0020-FB02"
  />
<missing-glyph horiz-adv-x="378" 
 />
    <glyph glyph-name=".notdef" horiz-adv-x="378" 
 />
    <glyph glyph-name=".null" horiz-adv-x="0" 
 />
    <glyph glyph-name="nonmarkingreturn" horiz-adv-x="682" 
 />
    <glyph glyph-name="space" unicode=" " horiz-adv-x="378" 
 />
    <glyph glyph-name="exclam" unicode="!" horiz-adv-x="407" 
d="M193 428q-95 333 -95 760q0 118 25 173.5t82 55.5t80.5 -61t23.5 -195q0 -360 -94 -733h-22zM90 96q0 47 34 82t81 35t80.5 -34t33.5 -83q0 -47 -33.5 -80.5t-80.5 -33.5t-81 33.5t-34 80.5z" />
    <glyph glyph-name="quotedbl" unicode="&#x22;" horiz-adv-x="569" 
d="M199 1434v-553h-101v553h101zM473 1434v-553h-102v553h102z" />
    <glyph glyph-name="numbersign" unicode="#" horiz-adv-x="1574" 
d="M918 1454l-168 -483h264l172 483h127l-170 -483h315l-37 -107h-317l-98 -278h340l-37 -107h-340l-170 -479h-129l172 479h-269l-172 -479h-127l170 479h-327l39 107h325l101 278h-353l35 107h354l173 483h127zM975 864h-266l-97 -278h267z" />
    <glyph glyph-name="dollar" unicode="$" horiz-adv-x="755" 
d="M57 37v168q126 -72 265 -72v514l-78 80q-104 105 -149.5 183t-45.5 188q0 250 273 309v80h108v-72q119 0 223 -43v-153q-109 53 -202 53h-21v-496q148 -108 217.5 -212.5t69.5 -229.5q0 -135 -73 -221.5t-214 -118.5v-201h-108v193q-155 0 -265 51zM430 147
q123 49 123 177q0 125 -123 233v-410zM322 870v390q-58 -31 -85.5 -72.5t-27.5 -102.5q0 -56 27 -105.5t86 -109.5z" />
    <glyph glyph-name="percent" unicode="%" horiz-adv-x="1228" 
d="M154 -25l786 1446h133l-784 -1446h-135zM70 1049q0 183 58 277.5t165 94.5q231 0 231 -381q0 -181 -59 -273.5t-172 -92.5q-108 0 -165.5 95t-57.5 280zM209 1049q0 -133 20 -193.5t68 -60.5q49 0 67.5 58.5t18.5 193.5t-20 196.5t-68 61.5q-49 0 -67.5 -60.5
t-18.5 -195.5zM705 350q0 183 58 278t165 95q231 0 231 -379q0 -181 -59 -275t-172 -94q-108 0 -165.5 95t-57.5 280zM844 350q0 -133 20 -193.5t68 -60.5q49 0 67.5 58.5t18.5 193.5q0 136 -20 197t-68 61q-49 0 -67.5 -60.5t-18.5 -195.5z" />
    <glyph glyph-name="ampersand" unicode="&#x26;" horiz-adv-x="890" 
d="M629 106q-116 -131 -244 -131t-219.5 119.5t-91.5 296.5q0 257 213 449q-90 178 -90 305q0 126 69.5 201t179.5 75t182 -72.5t72 -187.5q0 -177 -213 -360l150 -322q30 99 45 228h160q-18 -196 -107 -422l135 -285h-190zM362 680q-116 -131 -116 -287q0 -108 44.5 -173.5
t110.5 -65.5q81 0 154 120zM420 936q125 134 125 225q0 50 -26 80.5t-64 30.5q-42 0 -69.5 -34t-27.5 -87q0 -73 62 -215z" />
    <glyph glyph-name="quotesingle" unicode="'" horiz-adv-x="294" 
d="M199 1434v-553h-101v553h101z" />
    <glyph glyph-name="parenleft" unicode="(" horiz-adv-x="587" 
d="M451 -465q-324 433 -324 950q0 491 324 936h96q-248 -447 -248 -952q0 -490 248 -934h-96z" />
    <glyph glyph-name="parenright" unicode=")" horiz-adv-x="587" 
d="M139 -465h-96q126 226 186 454t60 480q0 508 -246 952h96q322 -442 322 -936q0 -520 -322 -950z" />
    <glyph glyph-name="asterisk" unicode="*" horiz-adv-x="962" 
d="M715 1350l96 -97l-276 -211l344 45v-135l-344 45l276 -211l-96 -96l-211 277l45 -344h-135l45 344l-211 -277l-98 96l278 211l-346 -45v135l346 -45l-278 213l98 97l211 -277l-45 344h135l-45 -344z" />
    <glyph glyph-name="plus" unicode="+" horiz-adv-x="1705" 
d="M903 1221v-562h549v-98h-549v-561h-98v561h-551v98h551v562h98z" />
    <glyph glyph-name="comma" unicode="," horiz-adv-x="378" 
d="M154 -18q-82 43 -82 116q0 47 31 80t75 33q57 0 93 -48t36 -130q0 -208 -209 -318v39q56 90 56 213v15z" />
    <glyph glyph-name="hyphen" unicode="-" horiz-adv-x="550" 
d="M86 389v148h379v-148h-379z" />
    <glyph glyph-name="period" unicode="." horiz-adv-x="378" 
d="M74 96q0 48 33.5 82.5t80.5 34.5q48 0 82.5 -34t34.5 -83q0 -47 -34.5 -80.5t-82.5 -33.5q-47 0 -80.5 33.5t-33.5 80.5z" />
    <glyph glyph-name="slash" unicode="/" horiz-adv-x="530" 
d="M-16 -190l493 1611h127l-495 -1611h-125z" />
    <glyph glyph-name="zero" unicode="0" horiz-adv-x="757" 
d="M70 698q0 356 80 539.5t229 183.5t230 -184t81 -539t-81 -539t-230 -184t-229 183.5t-80 539.5zM242 698q0 -565 137 -565t137 565q0 288 -33 428t-104 140q-72 0 -104.5 -139t-32.5 -429z" />
    <glyph glyph-name="one" unicode="1" horiz-adv-x="606" 
d="M217 0v1399h172v-1399h-172z" />
    <glyph glyph-name="two" unicode="2" horiz-adv-x="710" 
d="M33 0v35q185 316 277.5 566t92.5 411q0 235 -182 235q-85 0 -162 -51v168q106 61 205 61q146 0 234 -101.5t88 -276.5q0 -157 -80 -370.5t-242 -516.5h348v-160h-579z" />
    <glyph glyph-name="three" unicode="3" horiz-adv-x="710" 
d="M59 12v174q88 -45 150 -45q91 0 142.5 68.5t51.5 191.5t-53 192t-151 73v159q196 12 196 238q0 90 -47.5 142t-124.5 52q-64 0 -129 -38v163q77 39 160 39q138 0 221.5 -93t83.5 -253q0 -119 -51.5 -197t-159.5 -124q115 -31 174.5 -122t59.5 -237q0 -191 -95.5 -306.5
t-244.5 -115.5q-104 0 -183 39z" />
    <glyph glyph-name="four" unicode="4" horiz-adv-x="755" 
d="M47 381v162l391 878h162v-907h84v-133h-84v-381h-162v381h-391zM166 512h272v645q-30 -99 -61 -170z" />
    <glyph glyph-name="five" unicode="5" horiz-adv-x="729" 
d="M84 12v174q76 -43 141 -43q99 0 158 74.5t59 202.5q0 262 -239 262q-16 0 -62 -4v721h439v-160h-273v-410q150 -15 230.5 -122t80.5 -291q0 -198 -100.5 -319.5t-255.5 -121.5q-80 0 -178 37z" />
    <glyph glyph-name="six" unicode="6" horiz-adv-x="739" 
d="M305 842q58 18 101 18q117 0 183 -113t66 -325q0 -209 -81 -328t-212 -119q-134 0 -210 125.5t-76 360.5q0 300 180 655l141 283h187zM250 418q0 -141 30.5 -216t86.5 -75t86 76.5t30 224.5q0 141 -27.5 209t-88.5 68t-89 -70.5t-28 -216.5z" />
    <glyph glyph-name="seven" unicode="7" horiz-adv-x="696" 
d="M135 2l279 1231h-369v166h571l-313 -1428z" />
    <glyph glyph-name="eight" unicode="8" horiz-adv-x="757" 
d="M250 735q-148 89 -148 316q0 167 78 268.5t197 101.5q125 0 201.5 -99t76.5 -265q0 -236 -145 -322q91 -49 129.5 -130t38.5 -214q0 -197 -81.5 -306.5t-219.5 -109.5q-134 0 -215.5 112t-81.5 306q0 261 170 342zM252 401q0 -132 33 -201t92 -69q62 0 95.5 67.5
t33.5 196.5q0 126 -30 186t-97 60q-127 0 -127 -240zM268 1059q0 -116 29 -176t82 -60q52 0 81 60.5t29 171.5q0 112 -26 164.5t-84 52.5q-111 0 -111 -213z" />
    <glyph glyph-name="nine" unicode="9" horiz-adv-x="739" 
d="M430 557q-65 -20 -100 -20q-118 0 -185 113t-67 325q0 209 81 328.5t212 119.5q134 0 211 -125.5t77 -359.5q0 -302 -180 -657l-141 -281h-186zM485 979q0 141 -31 216t-87 75q-115 0 -115 -301q0 -141 28 -208t89 -67t88.5 69.5t27.5 215.5z" />
    <glyph glyph-name="colon" unicode=":" horiz-adv-x="407" 
d="M90 825q0 47 34 82t81 35t80.5 -34t33.5 -83q0 -47 -33.5 -80.5t-80.5 -33.5t-81 33.5t-34 80.5zM90 96q0 47 34 82t81 35t80.5 -34t33.5 -83q0 -47 -33.5 -80.5t-80.5 -33.5t-81 33.5t-34 80.5z" />
    <glyph glyph-name="semicolon" unicode=";" horiz-adv-x="407" 
d="M90 825q0 47 34 82t81 35t80.5 -34t33.5 -83q0 -47 -33.5 -80.5t-80.5 -33.5t-81 33.5t-34 80.5zM168 -18q-82 43 -82 116q0 47 31.5 80t75.5 33q57 0 93 -48t36 -130q0 -208 -209 -318v39q55 89 55 213v15z" />
    <glyph glyph-name="less" unicode="&#x3c;" horiz-adv-x="1705" 
d="M1442 1026l-1022 -416l1022 -413v-109l-1178 481v82l1178 484v-109z" />
    <glyph glyph-name="equal" unicode="=" horiz-adv-x="1705" 
d="M1452 846v-98h-1198v98h1198zM1452 473v-98h-1198v98h1198z" />
    <glyph glyph-name="greater" unicode="&#x3e;" horiz-adv-x="1705" 
d="M1442 651v-82l-1178 -481v109l1022 413l-1022 416v109z" />
    <glyph glyph-name="question" unicode="?" horiz-adv-x="555" 
d="M223 358q-56 33 -81 82t-25 121q0 85 59 213q20 44 62.5 126.5t59.5 128t17 85.5q0 131 -118 131q-61 0 -125 -47l92 217q32 4 49 4q124 0 203.5 -83.5t79.5 -209.5q0 -55 -21.5 -120t-42 -106t-72.5 -134l-18 -33q-34 -59 -45.5 -81.5t-34 -73.5t-31 -97.5t-8.5 -99.5
v-23zM125 96q0 47 35 82t82 35t80.5 -34t33.5 -83q0 -47 -33.5 -80.5t-80.5 -33.5q-48 0 -82.5 33.5t-34.5 80.5z" />
    <glyph glyph-name="at" unicode="@" horiz-adv-x="2048" 
d="M1210 469l62 248q-19 93 -76 145.5t-139 52.5q-155 0 -255 -134.5t-100 -336.5q0 -112 55 -173.5t152 -61.5q106 0 189 71t112 189zM1298 836l60 125h94l-139 -562q-17 -76 -17 -92q0 -43 28 -67.5t79 -24.5q107 0 211 82q96 76 150.5 203t54.5 284q0 164 -87.5 296
t-249.5 208t-370 76q-349 0 -582 -199q-297 -253 -297 -653q0 -173 59.5 -304.5t184.5 -232.5q101 -82 243 -128t302 -46q172 0 335.5 50t299.5 143l39 -55q-298 -222 -654 -222q-381 0 -622 185q-155 118 -229 273.5t-74 361.5q0 204 86 382t252 314q268 221 659 221
q164 0 309.5 -45t247.5 -123q260 -201 260 -508q0 -171 -62 -309.5t-181 -232.5q-142 -111 -310 -111q-192 0 -192 151q0 4 1 14t1 15q-51 -88 -127 -134t-168 -46q-153 0 -233 84t-80 244q0 232 135.5 389t328.5 157q190 0 254 -163z" />
    <glyph glyph-name="A" unicode="A" horiz-adv-x="757" 
d="M25 0l260 1399h188l262 -1399h-176l-51 309h-256l-53 -309h-174zM279 471h200l-73 451q-17 113 -27 213q-11 -108 -27 -213z" />
    <glyph glyph-name="B" unicode="B" horiz-adv-x="837" 
d="M133 0v1399h172q193 0 296.5 -91.5t103.5 -258.5q0 -186 -173 -295q105 -46 154 -128.5t49 -215.5q0 -187 -104 -298.5t-269 -111.5h-229zM301 164h29q116 0 171.5 61.5t55.5 188.5q0 122 -57.5 181.5t-175.5 59.5h-23v-491zM301 817h27q204 0 204 221q0 199 -202 199
h-29v-420z" />
    <glyph glyph-name="C" unicode="C" horiz-adv-x="706" 
d="M641 61q-78 -81 -197 -81q-182 0 -276 178t-94 528q0 371 89 554t273 183q107 0 205 -65v-180q-93 84 -176 84q-121 0 -165 -127t-44 -418q0 -296 44 -434t153 -138q90 0 188 101v-185z" />
    <glyph glyph-name="D" unicode="D" horiz-adv-x="882" 
d="M127 0v1399h201q473 0 473 -699q0 -700 -473 -700h-201zM299 166h31q151 0 221 130t70 402q0 277 -68.5 407t-222.5 130h-31v-1069z" />
    <glyph glyph-name="E" unicode="E" horiz-adv-x="735" 
d="M133 0v1399h498v-164h-328v-420h303v-164h-303v-485h344v-166h-514z" />
    <glyph glyph-name="F" unicode="F" horiz-adv-x="630" 
d="M133 0v1399h428v-166h-256v-420h232v-166h-232v-647h-172z" />
    <glyph glyph-name="G" unicode="G" horiz-adv-x="878" 
d="M776 57q-116 -84 -233 -84q-217 0 -343 187.5t-126 531.5q0 354 118.5 542.5t331.5 188.5q136 0 252 -98v-199q-125 134 -250 134q-132 0 -202 -145t-70 -425q0 -271 70.5 -412t199.5 -141q30 0 82 15v442h-127v162h297v-699z" />
    <glyph glyph-name="H" unicode="H" horiz-adv-x="888" 
d="M131 0v1399h172v-615h283v615h172v-1399h-172v623h-283v-623h-172z" />
    <glyph glyph-name="I" unicode="I" horiz-adv-x="460" 
d="M143 0v1399h172v-1399h-172z" />
    <glyph glyph-name="J" unicode="J" horiz-adv-x="471" 
d="M-14 -406l-21 162q41 -10 78 -10q69 0 91 39.5t22 138.5v1475h174v-1503q0 -159 -60.5 -234.5t-189.5 -75.5q-47 0 -94 8z" />
    <glyph glyph-name="K" unicode="K" horiz-adv-x="743" 
d="M133 0v1399h170v-682l197 682h190l-241 -688l288 -711h-192l-242 686v-686h-170z" />
    <glyph glyph-name="L" unicode="L" horiz-adv-x="663" 
d="M137 0v1399h174v-1231h344v-168h-518z" />
    <glyph glyph-name="M" unicode="M" horiz-adv-x="999" 
d="M133 0v1399h162l156 -398q15 -40 49 -147q24 82 51 150l156 395h161v-1399h-161v819q0 105 10 228l-217 -527l-217 527q12 -147 12 -228v-819h-162z" />
    <glyph glyph-name="N" unicode="N" horiz-adv-x="890" 
d="M133 1399h148l241 -684q2 -7 84 -254q-10 151 -10 332v606h162v-1399h-150l-239 676q-9 25 -21 61t-31 93.5t-32 97.5q10 -151 10 -330v-598h-162v1399z" />
    <glyph glyph-name="O" unicode="O" horiz-adv-x="905" 
d="M74 698q0 355 98 539t281 184q184 0 281 -183t97 -540q0 -356 -97 -539.5t-281 -183.5q-183 0 -281 184t-98 539zM254 698q0 -561 197 -561q97 0 148.5 141.5t51.5 419.5q0 277 -52 420.5t-148 143.5t-146.5 -142.5t-50.5 -421.5z" />
    <glyph glyph-name="P" unicode="P" horiz-adv-x="768" 
d="M133 0v1399h172q195 0 302.5 -100t107.5 -279q0 -178 -102.5 -287.5t-256.5 -109.5h-51v-623h-172zM305 786h6q110 0 167 55.5t57 164.5q0 112 -56.5 170.5t-163.5 58.5h-10v-449z" />
    <glyph glyph-name="Q" unicode="Q" horiz-adv-x="905" 
d="M362 -12q-149 55 -218.5 229t-69.5 481q0 355 98 539t281 184q184 0 281 -183t97 -540q0 -600 -266 -692q73 -123 176 -123q36 0 68 35l35 -24l-133 -177q-200 29 -349 271zM254 698q0 -278 51 -419.5t148 -141.5q198 0 198 561q0 278 -51 421t-147 143t-147.5 -143
t-51.5 -421z" />
    <glyph glyph-name="R" unicode="R" horiz-adv-x="778" 
d="M133 0v1399h166q159 0 252.5 -101t93.5 -272q0 -209 -164 -299q69 -36 110.5 -119t78.5 -235l88 -373h-176l-78 334q-38 161 -79 236t-97 75q-9 0 -25 -4v-641h-170zM303 803h16q72 0 111 51.5t39 149.5q0 115 -41 174t-117 59h-8v-434z" />
    <glyph glyph-name="S" unicode="S" horiz-adv-x="645" 
d="M80 29v192q84 -78 162 -78q62 0 99.5 41.5t37.5 110.5q0 29 -6.5 59.5t-24 71t-30.5 67.5t-43 85t-44 86q-82 165 -119.5 266.5t-37.5 189.5q0 134 80.5 218.5t205.5 84.5q76 0 152 -43v-170q-69 54 -133 54q-60 0 -95.5 -37t-35.5 -99q0 -85 80 -251q23 -47 64.5 -130
t62.5 -128.5t46.5 -107.5t36.5 -114t11 -102q0 -139 -86 -228.5t-211 -89.5q-84 0 -172 52z" />
    <glyph glyph-name="T" unicode="T" horiz-adv-x="675" 
d="M252 0v1233h-223v166h618v-166h-223v-1233h-172z" />
    <glyph glyph-name="U" unicode="U" horiz-adv-x="882" 
d="M127 1399h174v-1071q0 -91 35.5 -138t103.5 -47q142 0 142 185v1071h172v-1071q0 -162 -86.5 -257.5t-227.5 -95.5q-147 0 -230 92.5t-83 260.5v1071z" />
    <glyph glyph-name="V" unicode="V" horiz-adv-x="720" 
d="M295 0l-266 1399h180l125 -764q19 -127 26 -213q11 119 27 213l125 764h180l-266 -1399h-131z" />
    <glyph glyph-name="W" unicode="W" horiz-adv-x="1241" 
d="M29 1399h178l147 -826q15 -83 27 -190q11 115 22 172l148 844h139l144 -824q20 -109 28 -192q9 111 27 201l147 815h178l-286 -1399h-144l-135 774q-10 52 -26 209q-12 -129 -27 -207l-137 -776h-144z" />
    <glyph glyph-name="X" unicode="X" horiz-adv-x="757" 
d="M25 0l256 741l-230 658h178l150 -490l147 490h181l-228 -658l256 -741h-184l-172 537l-170 -537h-184z" />
    <glyph glyph-name="Y" unicode="Y" horiz-adv-x="681" 
d="M18 1399h183l141 -516l139 516h183l-238 -752v-647h-170v647z" />
    <glyph glyph-name="Z" unicode="Z" horiz-adv-x="663" 
d="M55 0l326 1237h-303v162h520l-326 -1235h326v-164h-543z" />
    <glyph glyph-name="bracketleft" unicode="[" horiz-adv-x="598" 
d="M184 -426v1825h381v-105h-223v-1616h223v-104h-381z" />
    <glyph glyph-name="backslash" unicode="\" horiz-adv-x="530" 
d="M-37 1421h125l496 -1611h-129z" />
    <glyph glyph-name="bracketright" unicode="]" horiz-adv-x="598" 
d="M33 -426v104h221v1616h-221v105h379v-1825h-379z" />
    <glyph glyph-name="asciicircum" unicode="^" horiz-adv-x="2048" 
d="M1094 1458l530 -557h-143l-457 455l-459 -455h-143l532 557h140z" />
    <glyph glyph-name="underscore" unicode="_" 
d="M1024 -383v-100h-1024v100h1024z" />
    <glyph glyph-name="grave" unicode="`" 
d="M627 1055h-97l-227 278h160z" />
    <glyph glyph-name="a" unicode="a" horiz-adv-x="702" 
d="M426 96q-88 -114 -188 -114q-80 0 -131.5 62t-51.5 161q0 113 88.5 202.5t282.5 186.5v115q0 38 -30 63t-79 25q-111 0 -237 -138v172q111 111 248 111q112 0 181 -67t69 -173v-526q0 -22 6.5 -31.5t23.5 -9.5q18 0 56 47v-123q-72 -75 -132 -75q-85 0 -106 112zM426 233
v240q-215 -114 -215 -248q0 -43 23.5 -70.5t58.5 -27.5q73 0 133 106z" />
    <glyph glyph-name="b" unicode="b" horiz-adv-x="737" 
d="M109 0v1399h153v-527q63 72 139 72q117 0 196 -131.5t79 -351.5q0 -218 -80 -349.5t-195 -131.5q-81 0 -139 73v-53h-153zM262 193q54 -72 105 -72q64 0 105.5 91t41.5 249q0 159 -41.5 249.5t-107.5 90.5q-57 0 -103 -70v-538z" />
    <glyph glyph-name="c" unicode="c" horiz-adv-x="587" 
d="M537 25q-56 -43 -148 -43q-145 0 -238.5 125.5t-93.5 341.5q0 236 88.5 365.5t241.5 129.5q76 0 150 -41v-153q-65 45 -123 45q-90 0 -143.5 -89.5t-53.5 -250.5q0 -150 56 -237t143 -87q61 0 121 51v-157z" />
    <glyph glyph-name="d" unicode="d" horiz-adv-x="737" 
d="M475 53q-58 -73 -141 -73q-115 0 -194 131t-79 350q0 221 78 351t195 130q80 0 141 -70v527h154v-1399h-154v53zM475 193v538q-46 70 -104 70q-66 0 -107 -90.5t-41 -249.5q0 -158 42 -250t106 -92q60 0 104 74z" />
    <glyph glyph-name="e" unicode="e" horiz-adv-x="612" 
d="M530 59q-74 -77 -176 -77q-145 0 -221 125t-76 368q0 230 65.5 349.5t186.5 119.5q118 0 180 -112.5t62 -329.5q0 -51 -2 -80h-330v-19q0 -133 43 -203.5t121 -70.5q77 0 147 82v-152zM217 551h176v51q0 106 -20.5 155.5t-69.5 49.5q-45 0 -65.5 -53.5t-20.5 -167.5v-35z
" />
    <glyph glyph-name="f" unicode="f" horiz-adv-x="432" 
d="M129 0v780h-78v144h78v155q0 166 64 247t194 81q16 0 62 -4v-135h-17q-78 0 -113.5 -41.5t-35.5 -132.5v-170h100v-144h-100v-780h-154z" />
    <glyph glyph-name="g" unicode="g" horiz-adv-x="698" 
d="M186 0q-94 51 -94 127q0 53 30.5 90t96.5 68q-135 95 -135 301q0 338 287 338h286v-136h-120q49 -85 49 -204q0 -129 -41 -210t-117 -108q-31 -11 -72 -20t-61 -14t-35.5 -19t-15.5 -37q0 -11 4 -19.5t14.5 -16t21.5 -13t31 -12.5t37 -12.5t46.5 -14t52.5 -16.5
q98 -32 149 -97t51 -153q0 -135 -85 -211t-234 -76q-131 0 -211 69.5t-80 180.5q0 144 145 215zM514 -195q0 59 -51 100.5t-125 41.5q-69 0 -111.5 -39t-42.5 -101q0 -66 42 -101.5t120 -35.5q74 0 121 38.5t47 96.5zM229 586q0 -219 113 -219q48 0 74 56.5t26 162.5
q0 213 -102 213q-111 0 -111 -213z" />
    <glyph glyph-name="h" unicode="h" horiz-adv-x="743" 
d="M109 0v1399h153v-570q70 113 176 113q201 0 201 -270v-672h-154v668q0 70 -19.5 103.5t-64.5 33.5q-98 0 -139 -109v-696h-153z" />
    <glyph glyph-name="i" unicode="i" horiz-adv-x="382" 
d="M115 0v924h155v-924h-155zM96 1300q0 40 28.5 69.5t68.5 29.5q39 0 67.5 -29.5t28.5 -69.5q0 -39 -28.5 -67.5t-67.5 -28.5q-38 0 -67.5 29t-29.5 67z" />
    <glyph glyph-name="j" unicode="j" horiz-adv-x="397" 
d="M27 -315q64 12 84 43.5t20 107.5v1088h154v-1117q0 -132 -66 -201t-192 -71v150zM111 1298q0 40 28.5 69.5t67.5 29.5t67.5 -29.5t28.5 -69.5q0 -39 -28.5 -67.5t-67.5 -28.5q-38 0 -67 29t-29 67z" />
    <glyph glyph-name="k" unicode="k" horiz-adv-x="710" 
d="M109 0v1399h155v-916l232 441h170l-244 -439l278 -485h-176l-260 475v-475h-155z" />
    <glyph glyph-name="l" unicode="l" horiz-adv-x="382" 
d="M115 0v1399h155v-1399h-155z" />
    <glyph glyph-name="m" unicode="m" horiz-adv-x="1118" 
d="M109 0v924h153v-95q72 113 176 113q67 0 111 -30.5t72 -96.5q89 127 192 127q203 0 203 -270v-672h-154v668q0 70 -20.5 103.5t-65.5 33.5t-81 -28t-56 -81v-696h-154v668q0 70 -19.5 103.5t-64.5 33.5t-82 -28t-57 -81v-696h-153z" />
    <glyph glyph-name="n" unicode="n" horiz-adv-x="743" 
d="M109 0v924h153v-95q70 113 176 113q203 0 203 -270v-672h-154v668q0 70 -20.5 103.5t-65.5 33.5q-98 0 -139 -109v-696h-153z" />
    <glyph glyph-name="o" unicode="o" horiz-adv-x="690" 
d="M57 463q0 231 76.5 356t210.5 125q136 0 212.5 -124t76.5 -357t-76.5 -357t-212.5 -124q-134 0 -210.5 125t-76.5 356zM217 461q0 -164 33 -249t94 -85q60 0 93.5 85.5t33.5 248.5q0 164 -33 250t-94 86t-94 -85.5t-33 -250.5z" />
    <glyph glyph-name="p" unicode="p" horiz-adv-x="737" 
d="M262 731v-538q46 -70 103 -70q66 0 107.5 90.5t41.5 249.5q0 158 -41.5 250t-105.5 92q-50 0 -105 -74zM109 -465v1389h153v-54q59 74 139 74q115 0 195 -131.5t80 -349.5q0 -220 -79 -350.5t-196 -130.5q-79 0 -139 69v-516h-153z" />
    <glyph glyph-name="q" unicode="q" horiz-adv-x="737" 
d="M475 51q-60 -69 -141 -69q-117 0 -195 130t-78 351q0 219 79 350t194 131q82 0 141 -74v54h154v-1389h-154v516zM475 193v538q-55 74 -104 74q-64 0 -106 -92t-42 -250q0 -159 41 -249.5t107 -90.5q58 0 104 70z" />
    <glyph glyph-name="r" unicode="r" horiz-adv-x="544" 
d="M113 0v924h149v-236q40 132 80.5 193t95.5 61q41 0 92 -31l-18 -168q-42 25 -68 25q-63 0 -120.5 -106t-57.5 -265v-397h-153z" />
    <glyph glyph-name="s" unicode="s" horiz-adv-x="544" 
d="M74 49v178q94 -94 159 -94q36 0 61 22t25 52q0 25 -7 50.5t-25.5 58.5t-33.5 56t-48 71.5t-51 76.5q-76 116 -76 217q0 90 58.5 148.5t146.5 58.5q104 0 157 -53v-143q-68 53 -127 53q-36 0 -58 -19.5t-22 -50.5q0 -17 5 -33.5t19 -41t23.5 -39t35.5 -50.5t38 -53
q62 -89 92.5 -159.5t30.5 -149.5q0 -101 -59 -162t-150 -61q-112 0 -194 67z" />
    <glyph glyph-name="t" unicode="t" horiz-adv-x="485" 
d="M12 782q172 202 281 394v-252h151v-142h-151v-579q0 -72 61 -72q29 0 90 23v-144q-62 -30 -137 -30q-100 0 -134 54t-34 177v571h-127z" />
    <glyph glyph-name="u" unicode="u" horiz-adv-x="743" 
d="M104 924h154v-668q0 -70 19.5 -103.5t64.5 -33.5q47 0 84 28.5t55 81.5v695h154v-924h-154v94q-65 -110 -176 -110q-102 0 -151.5 66t-49.5 202v672z" />
    <glyph glyph-name="v" unicode="v" horiz-adv-x="649" 
d="M18 924h164l111 -412q27 -100 33 -174q14 110 30 172l111 414h164l-287 -942h-39z" />
    <glyph glyph-name="w" unicode="w" horiz-adv-x="937" 
d="M18 924h164l92 -420q2 -13 9.5 -47t11.5 -57t6 -44q17 106 29 146l121 422h36l117 -416q30 -114 35 -152q6 70 25 152l92 416h164l-256 -942h-37l-129 458q-18 64 -29 131q-10 -69 -27 -131l-129 -458h-39z" />
    <glyph glyph-name="x" unicode="x" horiz-adv-x="645" 
d="M14 0l217 489l-192 435h166l117 -303l118 303h166l-194 -435l219 -489h-170l-139 342l-138 -342h-170z" />
    <glyph glyph-name="y" unicode="y" horiz-adv-x="645" 
d="M61 -465l195 641l-242 748h166l150 -510l135 510h166l-410 -1389h-160z" />
    <glyph glyph-name="z" unicode="z" horiz-adv-x="598" 
d="M39 0l297 784h-273v140h482l-293 -785h297v-139h-510z" />
    <glyph glyph-name="braceleft" unicode="{" 
d="M854 1370h-37q-71 0 -114 -12t-67.5 -44t-33 -77t-8.5 -121v-242q0 -158 -39.5 -234t-157.5 -110q118 -34 157.5 -110t39.5 -234v-241q0 -75 8 -119.5t31.5 -77t65 -45t110.5 -12.5q7 0 22 1t23 1v-107h-47q-71 0 -122.5 7.5t-89.5 26.5t-61.5 45.5t-37.5 70t-19.5 95
t-5.5 124.5v244q0 153 -56.5 216.5t-195.5 63.5q-7 0 -22 -1t-23 -1v109q8 0 23 -1t22 -1q139 0 195.5 63.5t56.5 216.5v242q0 110 13 176.5t50.5 112.5t102 64t170.5 18h47v-107z" />
    <glyph glyph-name="bar" unicode="|" 
d="M567 1565v-2048h-108v2048h108z" />
    <glyph glyph-name="braceright" unicode="}" 
d="M555 1106v-242q0 -153 56.5 -216.5t195.5 -63.5q7 0 22 1t23 1v-109q-8 0 -23 1t-22 1q-139 0 -195.5 -63.5t-56.5 -216.5v-244q0 -110 -13 -176t-50.5 -112t-102 -63.5t-170.5 -17.5h-47v107h39q70 0 112.5 11.5t67 42.5t33 76.5t8.5 121.5v241q0 159 39 234.5
t158 109.5q-119 34 -158 109.5t-39 234.5v242q0 76 -8 121t-31.5 77.5t-65 45t-110.5 12.5q-7 0 -22 -1t-23 -1v107h47q106 0 170.5 -18t102 -64t50.5 -112.5t13 -176.5z" />
    <glyph glyph-name="asciitilde" unicode="~" horiz-adv-x="1705" 
d="M1530 637q-201 -143 -387 -143q-20 0 -41.5 2t-37.5 4t-39 7.5t-34 8t-37 11t-32.5 10.5t-35 12.5t-32.5 11.5q-69 25 -99.5 35.5t-86.5 22.5t-103 12q-87 0 -180 -40t-207 -120v113q210 145 387 145q52 0 108.5 -11.5t86.5 -21.5t94 -34q4 -1 40 -14.5t44 -16t38 -12
t43.5 -12.5t38 -8.5t44.5 -7t41 -1.5q89 0 181.5 40t205.5 120v-113z" />
    <glyph glyph-name="exclamdown" unicode="&#xa1;" horiz-adv-x="407" 
d="M319 1300q0 -47 -33.5 -80.5t-80.5 -33.5q-48 0 -82.5 32.5t-34.5 81.5q0 47 35 82t82 35t80.5 -34.5t33.5 -82.5zM217 969q92 -323 92 -760q0 -119 -23.5 -173t-80.5 -54q-58 0 -82.5 61.5t-24.5 194.5q0 354 95 731h24z" />
    <glyph glyph-name="cent" unicode="&#xa2;" horiz-adv-x="692" 
d="M322 12q-108 43 -167 158.5t-59 288.5q0 236 89 363.5t247 129.5l25 205h94l-29 -223q20 -5 56 -23v-151q-44 29 -70 37l-76 -656h10q79 0 136 49v-155q-67 -45 -136 -45q-4 0 -13 1t-13 1l-33 -264h-92zM346 186l70 615q-75 -25 -115.5 -111.5t-40.5 -226.5
q0 -194 86 -277z" />
    <glyph glyph-name="sterling" unicode="&#xa3;" horiz-adv-x="755" 
d="M109 -12l79 600h-92v151h115l35 236q32 218 124 332t230 114q29 0 43 -2l45 -151q-27 6 -49 6q-188 0 -231 -322l-29 -213h133v-151h-158l-51 -414q18 4 51 4q44 0 118.5 -15.5t105.5 -15.5q66 0 127 37v-168q-67 -30 -162 -30q-38 0 -125.5 23.5t-136.5 23.5
q-83 0 -172 -45z" />
    <glyph glyph-name="currency" unicode="&#xa4;" horiz-adv-x="757" 
d="M696 49q-71 -74 -184 -74q-301 0 -344 539h-148l33 98h111q-2 29 -2 86q0 61 2 90h-144l33 99h115q41 534 336 534q109 0 192 -59v-180q-87 84 -166 84q-94 0 -137.5 -90.5t-54.5 -288.5h319l-32 -99h-291v-176h233l-32 -98h-197q12 -192 54 -286.5t126 -94.5
q88 0 178 100v-184z" />
    <glyph glyph-name="yen" unicode="&#xa5;" horiz-adv-x="757" 
d="M694 1399l-141 -453h141v-98h-174l-53 -176h227v-99h-237v-573h-156v573h-238v99h230l-55 176h-175v98h144l-144 453h177l106 -398q20 -73 33 -159q15 94 33 162l106 395h176z" />
    <glyph glyph-name="brokenbar" unicode="&#xa6;" 
d="M567 1432v-758h-108v758h108zM567 408v-758h-108v758h108z" />
    <glyph glyph-name="section" unicode="&#xa7;" horiz-adv-x="962" 
d="M172 59q158 -110 293 -110q74 0 115 31.5t41 87.5q0 53 -45.5 95.5t-151.5 100.5q-195 105 -238 146q-53 52 -77.5 107t-24.5 126q0 181 197 268q-113 85 -113 224q0 134 85.5 211t238.5 77t278 -73v-181q-160 97 -274 97q-72 0 -111 -32t-39 -91q0 -60 53 -103t199 -122
q60 -33 99.5 -58.5t76.5 -57.5t58 -64.5t33 -75.5t12 -95q0 -175 -197 -264q115 -87 115 -227q0 -130 -86.5 -208.5t-237.5 -78.5q-160 0 -299 86v184zM567 379q72 34 106 76.5t34 101.5q0 57 -30 95.5t-97 76.5l-185 107q-71 -34 -105 -77t-34 -102q0 -56 30.5 -95.5
t96.5 -78.5z" />
    <glyph glyph-name="dieresis" unicode="&#xa8;" 
d="M283 1186q0 36 27 62t65 26q37 0 62.5 -25.5t25.5 -62.5q0 -40 -25 -66t-63 -26q-40 0 -66 26t-26 66zM559 1186q0 35 26.5 61.5t63.5 26.5t63.5 -25.5t26.5 -62.5q0 -40 -25 -66t-65 -26q-38 0 -64 26t-26 66z" />
    <glyph glyph-name="copyright" unicode="&#xa9;" horiz-adv-x="1705" 
d="M852 1456q149 0 283.5 -55.5t238.5 -159.5q102 -102 156.5 -236t54.5 -282q0 -306 -211 -514q-107 -106 -242 -162.5t-280 -56.5t-277.5 55.5t-238.5 161.5q-104 104 -159.5 237t-55.5 279t56.5 280t162.5 242q208 211 512 211zM1505 723q0 132 -48.5 251t-139.5 210
q-192 192 -465 192q-272 0 -457 -188q-95 -96 -144.5 -215.5t-49.5 -249.5q0 -129 49 -247t143 -212t212 -143t247 -49q130 0 250.5 49.5t216.5 144.5q186 183 186 457zM1073 915q-19 80 -75.5 124t-141.5 44q-121 0 -189.5 -94.5t-68.5 -267.5q0 -167 69 -260.5t189 -93.5
q89 0 150.5 50t78.5 138h115q-11 -125 -108.5 -205t-241.5 -80q-175 0 -278 121t-103 336q0 205 108.5 327t282.5 122q135 0 226.5 -72t103.5 -189h-117z" />
    <glyph glyph-name="ordfeminine" unicode="&#xaa;" horiz-adv-x="526" 
d="M319 819q-68 -80 -141 -80q-60 0 -98.5 43t-38.5 113q0 79 66 141t212 131v80q0 27 -22.5 44.5t-58.5 17.5q-86 0 -179 -97v121q84 78 187 78q84 0 136 -47t52 -121v-369q0 -28 23 -28q11 0 41 33v-86q-54 -54 -99 -54q-31 0 -52 21t-28 59zM319 915v168
q-161 -81 -161 -174q0 -30 18 -49.5t43 -19.5q54 0 100 75z" />
    <glyph glyph-name="guillemotleft" unicode="&#xab;" horiz-adv-x="829" 
d="M293 780h145l-219 -317l219 -301h-145l-227 301zM614 780h150l-221 -317l221 -301h-150l-223 301z" />
    <glyph glyph-name="logicalnot" unicode="&#xac;" horiz-adv-x="1705" 
d="M1452 858v-502h-96v402h-1102v100h1198z" />
    <glyph glyph-name="registered" unicode="&#xae;" horiz-adv-x="1705" 
d="M852 1456q310 0 522 -215q102 -102 156.5 -236t54.5 -282q0 -306 -211 -514q-107 -106 -242 -162.5t-280 -56.5q-146 0 -279 55.5t-237 161.5q-104 104 -159.5 237t-55.5 279q0 145 56.5 280t162.5 242q208 211 512 211zM1505 721q0 134 -48 253.5t-138 209.5
q-192 192 -467 192q-267 0 -455 -188q-95 -97 -145.5 -216.5t-50.5 -248.5t49 -247t143 -212t212 -143t247 -49q130 0 250.5 49.5t216.5 144.5q186 180 186 455zM874 1157q177 0 263 -56.5t86 -176.5q0 -89 -54 -149.5t-145 -72.5l188 -389h-145l-178 371h-197v-371h-127
v844h309zM850 1071h-158v-303h158q129 0 185.5 31.5t56.5 115.5t-58 120t-184 36z" />
    <glyph glyph-name="macron" unicode="&#xaf;" 
d="M295 1128v113h432v-113h-432z" />
    <glyph glyph-name="degree" unicode="&#xb0;" horiz-adv-x="673" 
d="M338 1452q115 0 195.5 -81t80.5 -197q0 -115 -81 -197t-197 -82q-117 0 -197 81t-80 198t81.5 197.5t197.5 80.5zM545 1174q0 86 -60.5 147t-146.5 61t-147.5 -61t-61.5 -147q0 -87 61 -147t148 -60t147 60t60 147z" />
    <glyph glyph-name="plusminus" unicode="&#xb1;" horiz-adv-x="1705" 
d="M903 1169v-348h549v-98h-549v-348h-98v348h-551v98h551v348h98zM1452 150v-99h-1198v99h1198z" />
    <glyph glyph-name="twosuperior" unicode="&#xb2;" horiz-adv-x="468" 
d="M23 559v21q243 381 243 585q0 142 -121 142q-59 0 -106 -31v102q72 37 135 37q96 0 154.5 -61t58.5 -166q0 -95 -53 -223t-160 -310h229v-96h-380z" />
    <glyph glyph-name="threesuperior" unicode="&#xb3;" horiz-adv-x="468" 
d="M39 567v105q63 -29 98 -29q60 0 94.5 42.5t34.5 115.5t-35 113.5t-100 43.5v97q129 6 129 141q0 55 -30.5 86t-82.5 31q-38 0 -86 -23v99q51 22 107 22q92 0 146.5 -55.5t54.5 -151.5q0 -137 -140 -192q154 -38 154 -215q0 -115 -62.5 -184.5t-160.5 -69.5q-65 0 -121 24
z" />
    <glyph glyph-name="acute" unicode="&#xb4;" 
d="M397 1055l164 278h160l-227 -278h-97z" />
    <glyph glyph-name="mu" unicode="&#xb5;" horiz-adv-x="1110" 
d="M344 1065l-125 -592q-16 -75 -16 -139q0 -117 58 -180.5t167 -63.5q124 0 214 106.5t134 311.5l121 557h139l-164 -770q-22 -99 -22 -133q0 -66 68 -66q16 0 36 2l-20 -110q-43 -11 -86 -11q-137 0 -137 146v14q-41 -77 -119.5 -119.5t-179.5 -42.5q-92 0 -161.5 40.5
t-107.5 115.5l-114 -557h-140l316 1491h139z" />
    <glyph glyph-name="paragraph" unicode="&#xb6;" 
d="M940 1409h-127v-1409h-82v1409h-188v-1409h-82v782q-175 7 -276 102t-101 246q0 156 106.5 252.5t286.5 96.5h463v-70z" />
    <glyph glyph-name="periodcentered" unicode="&#xb7;" horiz-adv-x="378" 
d="M74 702q0 47 34.5 82t81.5 35q48 0 81.5 -34t33.5 -83q0 -47 -34 -81.5t-81 -34.5t-81.5 34.5t-34.5 81.5z" />
    <glyph glyph-name="cedilla" unicode="&#xb8;" 
d="M315 -389v90q125 -37 191 -37q102 0 102 84q0 74 -112 74q-23 0 -35 -2v180h67v-92h11q85 0 133.5 -42.5t48.5 -115.5q0 -83 -54 -130.5t-149 -47.5q-84 0 -203 39z" />
    <glyph glyph-name="onesuperior" unicode="&#xb9;" horiz-adv-x="399" 
d="M143 559v840h113v-840h-113z" />
    <glyph glyph-name="ordmasculine" unicode="&#xba;" horiz-adv-x="518" 
d="M43 1075q0 162 57.5 250t157.5 88q101 0 159 -87.5t58 -250.5t-57.5 -249.5t-159.5 -86.5q-100 0 -157.5 87t-57.5 249zM164 1073q0 -114 24.5 -173.5t69.5 -59.5t70.5 59.5t25.5 173.5q0 115 -25.5 175.5t-70.5 60.5t-69.5 -59.5t-24.5 -176.5z" />
    <glyph glyph-name="guillemotright" unicode="&#xbb;" horiz-adv-x="829" 
d="M537 780l227 -317l-227 -301h-146l219 301l-219 317h146zM215 780l223 -317l-223 -301h-149l223 301l-223 317h149z" />
    <glyph glyph-name="onequarter" unicode="&#xbc;" horiz-adv-x="1200" 
d="M137 614v783h109v-783h-109zM39 -25l887 1446h139l-885 -1446h-141zM752 213v90l247 494h103v-508h51v-76h-51v-213h-103v213h-247zM827 287h172v360q-23 -62 -38 -94z" />
    <glyph glyph-name="onehalf" unicode="&#xbd;" horiz-adv-x="1171" 
d="M137 614v783h109v-783h-109zM39 -25l887 1446h139l-885 -1446h-141zM743 0v20q234 354 234 547q0 131 -115 131q-53 0 -102 -28v94q65 35 129 35q92 0 147.5 -57t55.5 -156q0 -88 -50.5 -207.5t-152.5 -288.5h219v-90h-365z" />
    <glyph glyph-name="threequarters" unicode="&#xbe;" horiz-adv-x="1265" 
d="M37 621v98q58 -25 94 -25q57 0 90 38.5t33 107.5t-33.5 106.5t-95.5 40.5v90q125 6 125 133q0 50 -30.5 79.5t-78.5 29.5q-38 0 -82 -23v93q52 22 101 22q87 0 139.5 -52t52.5 -142q0 -67 -32.5 -111t-100.5 -70q148 -35 148 -200q0 -106 -60.5 -171t-154.5 -65
q-63 0 -115 21zM106 -25l887 1446h140l-885 -1446h-142zM819 213v90l248 494h102v-508h52v-76h-52v-213h-102v213h-248zM895 287h172v360q-19 -54 -39 -94z" />
    <glyph glyph-name="questiondown" unicode="&#xbf;" horiz-adv-x="555" 
d="M434 1300q0 -47 -34.5 -80.5t-82.5 -33.5t-81 32.5t-33 81.5q0 48 33.5 82.5t80.5 34.5t82 -35t35 -82zM336 1038q56 -33 81 -81t25 -119q0 -87 -59 -215q-20 -44 -62.5 -126.5t-59.5 -128t-17 -85.5q0 -131 118 -131q58 0 125 49l-92 -217q-32 -4 -49 -4
q-124 0 -204.5 82.5t-80.5 207.5q0 20 2 40.5t8.5 43t11 39.5t16.5 44l18 40.5t23 45.5t23 43.5t27 49t27 48.5q34 59 45.5 81.5t34 73.5t31 97.5t8.5 99.5v22z" />
    <glyph glyph-name="Agrave" unicode="&#xc0;" horiz-adv-x="757" 
d="M25 0l260 1399h188l262 -1399h-176l-51 309h-256l-53 -309h-174zM279 471h200l-73 451q-17 113 -27 213q-11 -108 -27 -213zM494 1534h-97l-227 278h160z" />
    <glyph glyph-name="Aacute" unicode="&#xc1;" horiz-adv-x="757" 
d="M25 0l260 1399h188l262 -1399h-176l-51 309h-256l-53 -309h-174zM279 471h200l-73 451q-17 113 -27 213q-11 -108 -27 -213zM264 1534l164 278h160l-228 -278h-96z" />
    <glyph glyph-name="Acircumflex" unicode="&#xc2;" horiz-adv-x="757" 
d="M25 0l260 1399h188l262 -1399h-176l-51 309h-256l-53 -309h-174zM279 471h200l-73 451q-17 113 -27 213q-11 -108 -27 -213zM143 1534l158 278h156l157 -278h-98l-137 182l-139 -182h-97z" />
    <glyph glyph-name="Atilde" unicode="&#xc3;" horiz-adv-x="757" 
d="M25 0l260 1399h188l262 -1399h-176l-51 309h-256l-53 -309h-174zM279 471h200l-73 451q-17 113 -27 213q-11 -108 -27 -213zM612 1755q-15 -82 -55.5 -124t-103.5 -42q-18 0 -50 8l-75 23q-12 4 -39 4q-54 0 -74 -53h-70q13 79 53.5 121.5t100.5 42.5q11 0 47 -9l78 -20
q24 -8 41 -8q58 0 76 57h71z" />
    <glyph glyph-name="Adieresis" unicode="&#xc4;" horiz-adv-x="757" 
d="M25 0l260 1399h188l262 -1399h-176l-51 309h-256l-53 -309h-174zM279 471h200l-73 451q-17 113 -27 213q-11 -108 -27 -213zM150 1665q0 36 27 62t65 26q37 0 62.5 -25.5t25.5 -62.5q0 -40 -25 -66t-63 -26q-40 0 -66 26t-26 66zM426 1665q0 35 26.5 61.5t63.5 26.5
t63.5 -25.5t26.5 -62.5q0 -40 -25 -66t-65 -26q-38 0 -64 26t-26 66z" />
    <glyph glyph-name="Aring" unicode="&#xc5;" horiz-adv-x="757" 
d="M25 0l260 1399h188l262 -1399h-176l-51 309h-256l-53 -309h-174zM279 471h200l-73 451q-17 113 -27 213q-11 -108 -27 -213zM178 1671q0 85 58 144t143 59t144 -59t59 -144q0 -86 -59 -143.5t-144 -57.5t-143 58t-58 143zM272 1671q0 -44 31.5 -76t75.5 -32q43 0 75.5 32
t32.5 76t-32 76.5t-76 32.5t-75.5 -31.5t-31.5 -77.5z" />
    <glyph glyph-name="AE" unicode="&#xc6;" horiz-adv-x="1085" 
d="M25 0l323 1399h656v-164h-328v-420h303v-164h-303v-485h342v-166h-514v551h-189l-114 -551h-176zM350 713h154v522h-45z" />
    <glyph glyph-name="Ccedilla" unicode="&#xc7;" horiz-adv-x="706" 
d="M641 61q-78 -81 -197 -81q-182 0 -276 178t-94 528q0 371 89 554t273 183q107 0 205 -65v-180q-93 84 -176 84q-121 0 -165 -127t-44 -418q0 -296 44 -434t153 -138q90 0 188 101v-185zM211 -389v90q125 -37 190 -37q103 0 103 84q0 74 -113 74q-23 0 -35 -2v180h68v-92
h10q85 0 133.5 -42.5t48.5 -115.5q0 -83 -53.5 -130.5t-148.5 -47.5q-84 0 -203 39z" />
    <glyph glyph-name="Egrave" unicode="&#xc8;" horiz-adv-x="735" 
d="M133 0v1399h498v-164h-328v-420h303v-164h-303v-485h344v-166h-514zM498 1534h-97l-227 278h160z" />
    <glyph glyph-name="Eacute" unicode="&#xc9;" horiz-adv-x="735" 
d="M133 0v1399h498v-164h-328v-420h303v-164h-303v-485h344v-166h-514zM268 1534l164 278h160l-227 -278h-97z" />
    <glyph glyph-name="Ecircumflex" unicode="&#xca;" horiz-adv-x="735" 
d="M133 0v1399h498v-164h-328v-420h303v-164h-303v-485h344v-166h-514zM147 1534l158 278h156l157 -278h-98l-137 182l-139 -182h-97z" />
    <glyph glyph-name="Edieresis" unicode="&#xcb;" horiz-adv-x="735" 
d="M133 0v1399h498v-164h-328v-420h303v-164h-303v-485h344v-166h-514zM154 1665q0 36 27 62t65 26q37 0 62.5 -25.5t25.5 -62.5q0 -40 -25 -66t-63 -26q-40 0 -66 26t-26 66zM430 1665q0 35 26.5 61.5t63.5 26.5t63.5 -25.5t26.5 -62.5q0 -40 -25 -66t-65 -26q-38 0 -64 26
t-26 66z" />
    <glyph glyph-name="Igrave" unicode="&#xcc;" horiz-adv-x="460" 
d="M143 0v1399h172v-1399h-172zM346 1534h-96l-227 278h159z" />
    <glyph glyph-name="Iacute" unicode="&#xcd;" horiz-adv-x="460" 
d="M143 0v1399h172v-1399h-172zM117 1534l164 278h159l-227 -278h-96z" />
    <glyph glyph-name="Icircumflex" unicode="&#xce;" horiz-adv-x="460" 
d="M143 0v1399h172v-1399h-172zM-4 1534l158 278h155l158 -278h-98l-138 182l-139 -182h-96z" />
    <glyph glyph-name="Idieresis" unicode="&#xcf;" horiz-adv-x="460" 
d="M143 0v1399h172v-1399h-172zM2 1665q0 36 27 62t65 26q37 0 62.5 -25.5t25.5 -62.5q0 -40 -25 -66t-63 -26q-40 0 -66 26t-26 66zM279 1665q0 35 26.5 61.5t63.5 26.5t63.5 -25.5t26.5 -62.5q0 -40 -25 -66t-65 -26q-38 0 -64 26t-26 66z" />
    <glyph glyph-name="Eth" unicode="&#xd0;" horiz-adv-x="890" 
d="M137 0v633h-127v141h127v625h201q473 0 473 -699q0 -700 -473 -700h-201zM309 166h31q151 0 221 130t70 402q0 277 -68.5 407t-222.5 130h-31v-461h160v-141h-160v-467z" />
    <glyph glyph-name="Ntilde" unicode="&#xd1;" horiz-adv-x="890" 
d="M133 1399h148l241 -684q2 -7 84 -254q-10 151 -10 332v606h162v-1399h-150l-239 676q-9 25 -21 61t-31 93.5t-32 97.5q10 -151 10 -330v-598h-162v1399zM680 1755q-15 -81 -56 -123.5t-104 -42.5q-17 0 -49 8l-76 23q-12 4 -39 4q-53 0 -73 -53h-70q13 79 53.5 121.5
t100.5 42.5q11 0 47 -9l78 -20q24 -8 40 -8q58 0 76 57h72z" />
    <glyph glyph-name="Ograve" unicode="&#xd2;" horiz-adv-x="905" 
d="M74 698q0 355 98 539t281 184q184 0 281 -183t97 -540q0 -356 -97 -539.5t-281 -183.5q-183 0 -281 184t-98 539zM254 698q0 -561 197 -561q97 0 148.5 141.5t51.5 419.5q0 277 -52 420.5t-148 143.5t-146.5 -142.5t-50.5 -421.5zM567 1534h-96l-227 278h159z" />
    <glyph glyph-name="Oacute" unicode="&#xd3;" horiz-adv-x="905" 
d="M74 698q0 355 98 539t281 184q184 0 281 -183t97 -540q0 -356 -97 -539.5t-281 -183.5q-183 0 -281 184t-98 539zM254 698q0 -561 197 -561q97 0 148.5 141.5t51.5 419.5q0 277 -52 420.5t-148 143.5t-146.5 -142.5t-50.5 -421.5zM338 1534l164 278h160l-228 -278h-96z
" />
    <glyph glyph-name="Ocircumflex" unicode="&#xd4;" horiz-adv-x="905" 
d="M74 698q0 355 98 539t281 184q184 0 281 -183t97 -540q0 -356 -97 -539.5t-281 -183.5q-183 0 -281 184t-98 539zM254 698q0 -561 197 -561q97 0 148.5 141.5t51.5 419.5q0 277 -52 420.5t-148 143.5t-146.5 -142.5t-50.5 -421.5zM217 1534l158 278h155l158 -278h-98
l-137 182l-140 -182h-96z" />
    <glyph glyph-name="Otilde" unicode="&#xd5;" horiz-adv-x="905" 
d="M74 698q0 355 98 539t281 184q184 0 281 -183t97 -540q0 -356 -97 -539.5t-281 -183.5q-183 0 -281 184t-98 539zM254 698q0 -561 197 -561q97 0 148.5 141.5t51.5 419.5q0 277 -52 420.5t-148 143.5t-146.5 -142.5t-50.5 -421.5zM686 1755q-15 -81 -56 -123.5
t-104 -42.5q-17 0 -49 8l-76 23q-12 4 -39 4q-53 0 -73 -53h-70q13 79 53.5 121.5t100.5 42.5q11 0 47 -9l78 -20q24 -8 41 -8q57 0 75 57h72z" />
    <glyph glyph-name="Odieresis" unicode="&#xd6;" horiz-adv-x="905" 
d="M74 698q0 355 98 539t281 184q184 0 281 -183t97 -540q0 -356 -97 -539.5t-281 -183.5q-183 0 -281 184t-98 539zM254 698q0 -561 197 -561q97 0 148.5 141.5t51.5 419.5q0 277 -52 420.5t-148 143.5t-146.5 -142.5t-50.5 -421.5zM223 1665q0 36 27 62t65 26
q37 0 62.5 -25.5t25.5 -62.5q0 -40 -25 -66t-63 -26q-40 0 -66 26t-26 66zM500 1665q0 35 26.5 61.5t63.5 26.5t63.5 -25.5t26.5 -62.5q0 -40 -25 -66t-65 -26q-38 0 -64 26t-26 66z" />
    <glyph glyph-name="multiply" unicode="&#xd7;" horiz-adv-x="1705" 
d="M856 680l481 481l70 -69l-481 -482l481 -481l-70 -70l-481 482l-481 -482l-70 70l481 481l-481 482l70 69z" />
    <glyph glyph-name="Oslash" unicode="&#xd8;" horiz-adv-x="905" 
d="M137 231q-63 181 -63 467q0 355 98 539t281 184q137 0 233 -116l74 141l104 -47l-104 -213q71 -194 71 -469q0 -368 -96 -555t-282 -187q-139 0 -248 127l-82 -155l-107 47zM258 471l340 655q-55 140 -145 140q-98 0 -150.5 -140.5t-52.5 -414.5q0 -125 8 -240zM297 281
q28 -72 68.5 -110t87.5 -38q95 0 148.5 137t53.5 396q0 100 -14 282z" />
    <glyph glyph-name="Ugrave" unicode="&#xd9;" horiz-adv-x="882" 
d="M127 1399h174v-1071q0 -91 35.5 -138t103.5 -47q142 0 142 185v1071h172v-1071q0 -162 -86.5 -257.5t-227.5 -95.5q-147 0 -230 92.5t-83 260.5v1071zM557 1534h-96l-228 278h160z" />
    <glyph glyph-name="Uacute" unicode="&#xda;" horiz-adv-x="882" 
d="M127 1399h174v-1071q0 -91 35.5 -138t103.5 -47q142 0 142 185v1071h172v-1071q0 -162 -86.5 -257.5t-227.5 -95.5q-147 0 -230 92.5t-83 260.5v1071zM328 1534l164 278h159l-227 -278h-96z" />
    <glyph glyph-name="Ucircumflex" unicode="&#xdb;" horiz-adv-x="882" 
d="M127 1399h174v-1071q0 -91 35.5 -138t103.5 -47q142 0 142 185v1071h172v-1071q0 -162 -86.5 -257.5t-227.5 -95.5q-147 0 -230 92.5t-83 260.5v1071zM207 1534l158 278h155l158 -278h-98l-138 182l-139 -182h-96z" />
    <glyph glyph-name="Udieresis" unicode="&#xdc;" horiz-adv-x="882" 
d="M127 1399h174v-1071q0 -91 35.5 -138t103.5 -47q142 0 142 185v1071h172v-1071q0 -162 -86.5 -257.5t-227.5 -95.5q-147 0 -230 92.5t-83 260.5v1071zM213 1665q0 36 27 62t65 26q37 0 62.5 -25.5t25.5 -62.5q0 -40 -25 -66t-63 -26q-40 0 -66 26t-26 66zM489 1665
q0 35 27 61.5t64 26.5t63.5 -25.5t26.5 -62.5q0 -40 -25 -66t-65 -26q-38 0 -64.5 26.5t-26.5 65.5z" />
    <glyph glyph-name="Yacute" unicode="&#xdd;" horiz-adv-x="681" 
d="M18 1399h183l141 -516l139 516h183l-238 -752v-647h-170v647zM227 1534l164 278h160l-227 -278h-97z" />
    <glyph glyph-name="Thorn" unicode="&#xde;" horiz-adv-x="778" 
d="M305 508h6q224 0 224 219q0 112 -56 169.5t-164 57.5h-10v-446zM133 0v1399h172v-281l39 -2q180 -10 275.5 -108.5t95.5 -268.5q0 -180 -102.5 -287.5t-270.5 -107.5h-37v-344h-172z" />
    <glyph glyph-name="germandbls" unicode="&#xdf;" horiz-adv-x="753" 
d="M106 0v1112q0 151 64 228t188 77q128 0 196.5 -84t68.5 -243q0 -97 -29 -162t-94 -109q99 -44 137.5 -137t38.5 -264q0 -210 -67 -318t-191 -108q-35 0 -76 8v145q24 -6 45 -6q68 0 97.5 70t29.5 219q0 161 -32.5 230.5t-123.5 76.5v139q60 1 85.5 49t25.5 152
q0 106 -23.5 153.5t-85.5 47.5q-48 0 -74 -35t-26 -100v-1141h-154z" />
    <glyph glyph-name="agrave" unicode="&#xe0;" horiz-adv-x="702" 
d="M426 96q-88 -114 -188 -114q-80 0 -131.5 62t-51.5 161q0 113 88.5 202.5t282.5 186.5v115q0 38 -30 63t-79 25q-111 0 -237 -138v172q111 111 248 111q112 0 181 -67t69 -173v-526q0 -22 6.5 -31.5t23.5 -9.5q18 0 56 47v-123q-72 -75 -132 -75q-85 0 -106 112zM426 233
v240q-215 -114 -215 -248q0 -43 23.5 -70.5t58.5 -27.5q73 0 133 106zM449 1055h-97l-227 278h160z" />
    <glyph glyph-name="aacute" unicode="&#xe1;" horiz-adv-x="702" 
d="M426 96q-88 -114 -188 -114q-80 0 -131.5 62t-51.5 161q0 113 88.5 202.5t282.5 186.5v115q0 38 -30 63t-79 25q-111 0 -237 -138v172q111 111 248 111q112 0 181 -67t69 -173v-526q0 -22 6.5 -31.5t23.5 -9.5q18 0 56 47v-123q-72 -75 -132 -75q-85 0 -106 112zM426 233
v240q-215 -114 -215 -248q0 -43 23.5 -70.5t58.5 -27.5q73 0 133 106zM219 1055l164 278h160l-228 -278h-96z" />
    <glyph glyph-name="acircumflex" unicode="&#xe2;" horiz-adv-x="702" 
d="M426 96q-88 -114 -188 -114q-80 0 -131.5 62t-51.5 161q0 113 88.5 202.5t282.5 186.5v115q0 38 -30 63t-79 25q-111 0 -237 -138v172q111 111 248 111q112 0 181 -67t69 -173v-526q0 -22 6.5 -31.5t23.5 -9.5q18 0 56 47v-123q-72 -75 -132 -75q-85 0 -106 112zM426 233
v240q-215 -114 -215 -248q0 -43 23.5 -70.5t58.5 -27.5q73 0 133 106zM98 1055l158 278h156l157 -278h-98l-137 182l-139 -182h-97z" />
    <glyph glyph-name="atilde" unicode="&#xe3;" horiz-adv-x="702" 
d="M426 96q-88 -114 -188 -114q-80 0 -131.5 62t-51.5 161q0 113 88.5 202.5t282.5 186.5v115q0 38 -30 63t-79 25q-111 0 -237 -138v172q111 111 248 111q112 0 181 -67t69 -173v-526q0 -22 6.5 -31.5t23.5 -9.5q18 0 56 47v-123q-72 -75 -132 -75q-85 0 -106 112zM426 233
v240q-215 -114 -215 -248q0 -43 23.5 -70.5t58.5 -27.5q73 0 133 106zM567 1276q-15 -82 -55.5 -124t-103.5 -42q-18 0 -50 8l-75 23q-12 4 -39 4q-54 0 -74 -53h-70q13 79 53.5 121t100.5 42q15 0 47 -8l78 -20q24 -8 41 -8q58 0 76 57h71z" />
    <glyph glyph-name="adieresis" unicode="&#xe4;" horiz-adv-x="702" 
d="M426 96q-88 -114 -188 -114q-80 0 -131.5 62t-51.5 161q0 113 88.5 202.5t282.5 186.5v115q0 38 -30 63t-79 25q-111 0 -237 -138v172q111 111 248 111q112 0 181 -67t69 -173v-526q0 -22 6.5 -31.5t23.5 -9.5q18 0 56 47v-123q-72 -75 -132 -75q-85 0 -106 112zM426 233
v240q-215 -114 -215 -248q0 -43 23.5 -70.5t58.5 -27.5q73 0 133 106zM104 1186q0 35 27.5 61.5t65.5 26.5q37 0 62.5 -25.5t25.5 -62.5q0 -40 -25 -66t-63 -26q-40 0 -66.5 26t-26.5 66zM381 1186q0 35 26.5 61.5t63.5 26.5t63.5 -25.5t26.5 -62.5q0 -40 -25 -66t-65 -26
q-38 0 -64 26t-26 66z" />
    <glyph glyph-name="aring" unicode="&#xe5;" horiz-adv-x="702" 
d="M426 96q-88 -114 -188 -114q-80 0 -131.5 62t-51.5 161q0 113 88.5 202.5t282.5 186.5v115q0 38 -30 63t-79 25q-111 0 -237 -138v172q111 111 248 111q112 0 181 -67t69 -173v-526q0 -22 6.5 -31.5t23.5 -9.5q18 0 56 47v-123q-72 -75 -132 -75q-85 0 -106 112zM426 233
v240q-215 -114 -215 -248q0 -43 23.5 -70.5t58.5 -27.5q73 0 133 106zM131 1217q0 85 58 143.5t143 58.5t144 -58.5t59 -143.5q0 -86 -59 -143.5t-144 -57.5t-143 58t-58 143zM225 1217q0 -44 31.5 -76.5t75.5 -32.5q43 0 75.5 32.5t32.5 76.5t-32 76t-76 32t-75.5 -31.5
t-31.5 -76.5z" />
    <glyph glyph-name="ae" unicode="&#xe6;" horiz-adv-x="976" 
d="M571 422v-33q0 -130 43.5 -198t122.5 -68q77 0 148 86v-150q-77 -77 -174 -77q-143 0 -244 143q-110 -143 -229 -143q-78 0 -130.5 62t-52.5 161q0 114 90 204t285 185v117q0 38 -30.5 64t-80.5 26q-109 0 -239 -142v172q111 111 260 111q101 0 162 -82q76 82 160 82
q243 0 243 -436q0 -55 -2 -84h-332zM432 223v252q-111 -56 -168 -121t-57 -131q0 -44 25 -72t63 -28q35 0 72 25.5t65 74.5zM567 547h185v47q0 111 -21.5 165t-68.5 54q-50 0 -72.5 -56.5t-22.5 -174.5v-35z" />
    <glyph glyph-name="ccedilla" unicode="&#xe7;" horiz-adv-x="587" 
d="M537 25q-56 -43 -148 -43q-145 0 -238.5 125.5t-93.5 341.5q0 236 88.5 365.5t241.5 129.5q76 0 150 -41v-153q-65 45 -123 45q-90 0 -143.5 -89.5t-53.5 -250.5q0 -150 56 -237t143 -87q61 0 121 51v-157zM154 -389v90q125 -37 190 -37q102 0 102 84q0 74 -112 74
q-23 0 -35 -2v180h68v-92h10q85 0 133.5 -42.5t48.5 -115.5q0 -83 -54 -130.5t-149 -47.5q-83 0 -202 39z" />
    <glyph glyph-name="egrave" unicode="&#xe8;" horiz-adv-x="612" 
d="M530 59q-74 -77 -176 -77q-145 0 -221 125t-76 368q0 230 65.5 349.5t186.5 119.5q118 0 180 -112.5t62 -329.5q0 -51 -2 -80h-330v-19q0 -133 43 -203.5t121 -70.5q77 0 147 82v-152zM217 551h176v51q0 106 -20.5 155.5t-69.5 49.5q-45 0 -65.5 -53.5t-20.5 -167.5v-35z
M434 1055h-96l-227 278h159z" />
    <glyph glyph-name="eacute" unicode="&#xe9;" horiz-adv-x="612" 
d="M530 59q-74 -77 -176 -77q-145 0 -221 125t-76 368q0 230 65.5 349.5t186.5 119.5q118 0 180 -112.5t62 -329.5q0 -51 -2 -80h-330v-19q0 -133 43 -203.5t121 -70.5q77 0 147 82v-152zM217 551h176v51q0 106 -20.5 155.5t-69.5 49.5q-45 0 -65.5 -53.5t-20.5 -167.5v-35z
M205 1055l164 278h159l-227 -278h-96z" />
    <glyph glyph-name="ecircumflex" unicode="&#xea;" horiz-adv-x="612" 
d="M530 59q-74 -77 -176 -77q-145 0 -221 125t-76 368q0 230 65.5 349.5t186.5 119.5q118 0 180 -112.5t62 -329.5q0 -51 -2 -80h-330v-19q0 -133 43 -203.5t121 -70.5q77 0 147 82v-152zM217 551h176v51q0 106 -20.5 155.5t-69.5 49.5q-45 0 -65.5 -53.5t-20.5 -167.5v-35z
M84 1055l158 278h155l158 -278h-98l-138 182l-139 -182h-96z" />
    <glyph glyph-name="edieresis" unicode="&#xeb;" horiz-adv-x="612" 
d="M530 59q-74 -77 -176 -77q-145 0 -221 125t-76 368q0 230 65.5 349.5t186.5 119.5q118 0 180 -112.5t62 -329.5q0 -51 -2 -80h-330v-19q0 -133 43 -203.5t121 -70.5q77 0 147 82v-152zM217 551h176v51q0 106 -20.5 155.5t-69.5 49.5q-45 0 -65.5 -53.5t-20.5 -167.5v-35z
M90 1186q0 36 27 62t65 26q37 0 62.5 -25.5t25.5 -62.5q0 -40 -25 -66t-63 -26q-40 0 -66 26t-26 66zM367 1186q0 35 26.5 61.5t63.5 26.5t63.5 -25.5t26.5 -62.5q0 -40 -25 -66t-65 -26q-38 0 -64 26t-26 66z" />
    <glyph glyph-name="igrave" unicode="&#xec;" horiz-adv-x="382" 
d="M115 0v924h155v-924h-155zM313 1055h-96l-227 278h160z" />
    <glyph glyph-name="iacute" unicode="&#xed;" horiz-adv-x="382" 
d="M115 0v924h155v-924h-155zM84 1055l164 278h160l-228 -278h-96z" />
    <glyph glyph-name="icircumflex" unicode="&#xee;" horiz-adv-x="382" 
d="M115 0v924h155v-924h-155zM-37 1055l158 278h155l158 -278h-98l-137 182l-140 -182h-96z" />
    <glyph glyph-name="idieresis" unicode="&#xef;" horiz-adv-x="382" 
d="M115 0v924h155v-924h-155zM-31 1186q0 36 27 62t65 26q37 0 63 -25.5t26 -62.5q0 -40 -25.5 -66t-63.5 -26q-40 0 -66 26t-26 66zM246 1186q0 35 26.5 61.5t63.5 26.5t63.5 -25.5t26.5 -62.5q0 -40 -25 -66t-65 -26q-38 0 -64 26t-26 66z" />
    <glyph glyph-name="eth" unicode="&#xf0;" horiz-adv-x="690" 
d="M221 449q0 -160 32 -243t91 -83q58 0 91.5 84.5t33.5 241.5q0 158 -33.5 240.5t-91.5 82.5q-123 0 -123 -323zM399 905q-50 120 -100 191l-190 -78l-33 80l178 73q-57 91 -141 166l92 66q82 -77 170 -182l213 88l37 -80l-205 -84q207 -327 207 -696q0 -227 -74.5 -347
t-206.5 -120q-133 0 -208 120.5t-75 346.5q0 227 75.5 346.5t213.5 119.5q20 0 47 -10z" />
    <glyph glyph-name="ntilde" unicode="&#xf1;" horiz-adv-x="743" 
d="M109 0v924h153v-95q70 113 176 113q203 0 203 -270v-672h-154v668q0 70 -20.5 103.5t-65.5 33.5q-98 0 -139 -109v-696h-153zM606 1276q-15 -81 -56 -123.5t-104 -42.5q-17 0 -49 8l-75 23q-12 4 -39 4q-54 0 -74 -53h-70q13 79 53.5 121t100.5 42q15 0 47 -8l78 -20
q24 -8 41 -8q58 0 76 57h71z" />
    <glyph glyph-name="ograve" unicode="&#xf2;" horiz-adv-x="690" 
d="M57 463q0 231 76.5 356t210.5 125q136 0 212.5 -124t76.5 -357t-76.5 -357t-212.5 -124q-134 0 -210.5 125t-76.5 356zM217 461q0 -164 33 -249t94 -85q60 0 93.5 85.5t33.5 248.5q0 164 -33 250t-94 86t-94 -85.5t-33 -250.5zM461 1055h-96l-228 278h160z" />
    <glyph glyph-name="oacute" unicode="&#xf3;" horiz-adv-x="690" 
d="M57 463q0 231 76.5 356t210.5 125q136 0 212.5 -124t76.5 -357t-76.5 -357t-212.5 -124q-134 0 -210.5 125t-76.5 356zM217 461q0 -164 33 -249t94 -85q60 0 93.5 85.5t33.5 248.5q0 164 -33 250t-94 86t-94 -85.5t-33 -250.5zM231 1055l164 278h160l-227 -278h-97z" />
    <glyph glyph-name="ocircumflex" unicode="&#xf4;" horiz-adv-x="690" 
d="M57 463q0 231 76.5 356t210.5 125q136 0 212.5 -124t76.5 -357t-76.5 -357t-212.5 -124q-134 0 -210.5 125t-76.5 356zM217 461q0 -164 33 -249t94 -85q60 0 93.5 85.5t33.5 248.5q0 164 -33 250t-94 86t-94 -85.5t-33 -250.5zM111 1055l157 278h156l158 -278h-99
l-137 182l-139 -182h-96z" />
    <glyph glyph-name="otilde" unicode="&#xf5;" horiz-adv-x="690" 
d="M57 463q0 231 76.5 356t210.5 125q136 0 212.5 -124t76.5 -357t-76.5 -357t-212.5 -124q-134 0 -210.5 125t-76.5 356zM217 461q0 -164 33 -249t94 -85q60 0 93.5 85.5t33.5 248.5q0 164 -33 250t-94 86t-94 -85.5t-33 -250.5zM580 1276q-15 -81 -56 -123.5t-104 -42.5
q-17 0 -49 8l-76 23q-12 4 -39 4q-54 0 -74 -53h-69q13 79 53 121t100 42q15 0 47 -8l78 -20q24 -8 41 -8q58 0 76 57h72z" />
    <glyph glyph-name="odieresis" unicode="&#xf6;" horiz-adv-x="690" 
d="M57 463q0 231 76.5 356t210.5 125q136 0 212.5 -124t76.5 -357t-76.5 -357t-212.5 -124q-134 0 -210.5 125t-76.5 356zM217 461q0 -164 33 -249t94 -85q60 0 93.5 85.5t33.5 248.5q0 164 -33 250t-94 86t-94 -85.5t-33 -250.5zM117 1186q0 36 27 62t65 26
q37 0 62.5 -25.5t25.5 -62.5q0 -40 -25 -66t-63 -26q-40 0 -66 26t-26 66zM393 1186q0 35 26.5 61.5t63.5 26.5t63.5 -25.5t26.5 -62.5q0 -40 -25 -66t-65 -26q-38 0 -64 26t-26 66z" />
    <glyph glyph-name="divide" unicode="&#xf7;" horiz-adv-x="1705" 
d="M854 1071q44 0 75.5 -32t31.5 -76q0 -43 -31 -75t-76 -32t-75.5 31t-30.5 76q0 44 31.5 76t74.5 32zM1452 659v-98h-1198v98h1198zM854 365q44 0 75.5 -31.5t31.5 -75.5q0 -43 -31 -74.5t-76 -31.5q-44 0 -75 31t-31 75t31.5 75.5t74.5 31.5z" />
    <glyph glyph-name="oslash" unicode="&#xf8;" horiz-adv-x="690" 
d="M252 197q40 -76 92 -76q60 0 97.5 82t37.5 233q0 86 -14 187zM217 350l201 406q-28 49 -74 49q-58 0 -96.5 -85t-38.5 -233q0 -58 8 -137zM111 145q-54 134 -54 336q0 219 78 341t209 122q87 0 139 -49l62 111l94 -43l-80 -154q74 -142 74 -354q0 -227 -77.5 -350
t-211.5 -123q-90 0 -164 65l-69 -135l-97 49z" />
    <glyph glyph-name="ugrave" unicode="&#xf9;" horiz-adv-x="743" 
d="M104 924h154v-668q0 -70 19.5 -103.5t64.5 -33.5q47 0 84 28.5t55 81.5v695h154v-924h-154v94q-65 -110 -176 -110q-102 0 -151.5 66t-49.5 202v672zM487 1055h-96l-227 278h160z" />
    <glyph glyph-name="uacute" unicode="&#xfa;" horiz-adv-x="743" 
d="M104 924h154v-668q0 -70 19.5 -103.5t64.5 -33.5q47 0 84 28.5t55 81.5v695h154v-924h-154v94q-65 -110 -176 -110q-102 0 -151.5 66t-49.5 202v672zM258 1055l164 278h160l-228 -278h-96z" />
    <glyph glyph-name="ucircumflex" unicode="&#xfb;" horiz-adv-x="743" 
d="M104 924h154v-668q0 -70 19.5 -103.5t64.5 -33.5q47 0 84 28.5t55 81.5v695h154v-924h-154v94q-65 -110 -176 -110q-102 0 -151.5 66t-49.5 202v672zM137 1055l158 278h156l157 -278h-98l-137 182l-140 -182h-96z" />
    <glyph glyph-name="udieresis" unicode="&#xfc;" horiz-adv-x="743" 
d="M104 924h154v-668q0 -70 19.5 -103.5t64.5 -33.5q47 0 84 28.5t55 81.5v695h154v-924h-154v94q-65 -110 -176 -110q-102 0 -151.5 66t-49.5 202v672zM143 1186q0 35 27.5 61.5t65.5 26.5q37 0 62.5 -25.5t25.5 -62.5q0 -40 -25 -66t-63 -26q-40 0 -66.5 26t-26.5 66z
M420 1186q0 35 26.5 61.5t63.5 26.5t63.5 -25.5t26.5 -62.5q0 -40 -25 -66t-65 -26q-38 0 -64 26t-26 66z" />
    <glyph glyph-name="yacute" unicode="&#xfd;" horiz-adv-x="645" 
d="M61 -465l195 641l-242 748h166l150 -510l135 510h166l-410 -1389h-160zM209 1055l164 278h159l-227 -278h-96z" />
    <glyph glyph-name="thorn" unicode="&#xfe;" horiz-adv-x="739" 
d="M262 731v-538q46 -70 103 -70q66 0 107.5 90.5t41.5 249.5q0 158 -41.5 250t-105.5 92q-50 0 -105 -74zM109 -465v1864h153v-529q59 74 139 74q115 0 195 -131.5t80 -349.5q0 -221 -78.5 -351t-196.5 -130q-79 0 -139 69v-516h-153z" />
    <glyph glyph-name="ydieresis" unicode="&#xff;" horiz-adv-x="645" 
d="M61 -465l195 641l-242 748h166l150 -510l135 510h166l-410 -1389h-160zM94 1186q0 36 27 62t65 26q37 0 62.5 -25.5t25.5 -62.5q0 -40 -25 -66t-63 -26q-40 0 -66 26t-26 66zM371 1186q0 35 26.5 61.5t63.5 26.5t63.5 -25.5t26.5 -62.5q0 -40 -25 -66t-65 -26
q-38 0 -64 26t-26 66z" />
    <glyph glyph-name="dotlessi" unicode="&#x131;" horiz-adv-x="382" 
d="M115 0v924h155v-924h-155z" />
    <glyph glyph-name="Lslash" unicode="&#x141;" horiz-adv-x="673" 
d="M147 0v580l-137 -95v168l137 95v651h172v-561l173 116v-168l-173 -114v-504h345v-168h-517z" />
    <glyph glyph-name="lslash" unicode="&#x142;" horiz-adv-x="403" 
d="M125 0v602l-115 -78v135l115 76v664h154v-578l114 78v-135l-114 -78v-686h-154z" />
    <glyph glyph-name="OE" unicode="&#x152;" horiz-adv-x="1161" 
d="M600 166v1069q-40 4 -59 4q-161 0 -226 -127t-65 -414q0 -283 66.5 -409.5t228.5 -126.5q15 0 55 4zM1100 1399v-164h-328v-420h303v-164h-303v-485h342v-166h-567q-250 0 -362.5 169.5t-112.5 530.5t113 530t362 169h553z" />
    <glyph glyph-name="oe" unicode="&#x153;" horiz-adv-x="1028" 
d="M942 59q-71 -77 -186 -77q-127 0 -207 110q-83 -110 -205 -110q-134 0 -210.5 125t-76.5 356t76.5 356t210.5 125q116 0 191 -102q78 100 178 100q128 0 189 -108t61 -332q0 -53 -2 -80h-332v-35q0 -129 42.5 -196.5t121.5 -67.5q78 0 149 86v-150zM213 463
q0 -166 35 -254t98 -88q61 0 96 88.5t35 253.5q0 166 -35 253t-96 87q-64 0 -98.5 -86t-34.5 -254zM625 547h184v47q0 111 -21.5 165t-68.5 54q-50 0 -72 -56.5t-22 -174.5v-35z" />
    <glyph glyph-name="Scaron" unicode="&#x160;" horiz-adv-x="645" 
d="M80 29v192q84 -78 162 -78q62 0 99.5 41.5t37.5 110.5q0 29 -6.5 59.5t-24 71t-30.5 67.5t-43 85t-44 86q-82 165 -119.5 266.5t-37.5 189.5q0 134 80.5 218.5t205.5 84.5q76 0 152 -43v-170q-69 54 -133 54q-60 0 -95.5 -37t-35.5 -99q0 -85 80 -251q23 -47 64.5 -130
t62.5 -128.5t46.5 -107.5t36.5 -114t11 -102q0 -139 -86 -228.5t-211 -89.5q-84 0 -172 52zM88 1812h96l140 -182l137 182h98l-158 -278h-155z" />
    <glyph glyph-name="scaron" unicode="&#x161;" horiz-adv-x="544" 
d="M74 49v178q94 -94 159 -94q36 0 61 22t25 52q0 25 -7 50.5t-25.5 58.5t-33.5 56t-48 71.5t-51 76.5q-76 116 -76 217q0 90 58.5 148.5t146.5 58.5q104 0 157 -53v-143q-68 53 -127 53q-36 0 -58 -19.5t-22 -50.5q0 -17 5 -33.5t19 -41t23.5 -39t35.5 -50.5t38 -53
q62 -89 92.5 -159.5t30.5 -149.5q0 -101 -59 -162t-150 -61q-112 0 -194 67zM37 1333h96l139 -182l138 182h98l-158 -278h-155z" />
    <glyph glyph-name="Ydieresis" unicode="&#x178;" horiz-adv-x="681" 
d="M18 1399h183l141 -516l139 516h183l-238 -752v-647h-170v647zM113 1665q0 36 27 62t65 26q37 0 62.5 -25.5t25.5 -62.5q0 -40 -25 -66t-63 -26q-40 0 -66 26t-26 66zM389 1665q0 35 26.5 61.5t63.5 26.5t63.5 -25.5t26.5 -62.5q0 -40 -25 -66t-65 -26q-38 0 -64 26
t-26 66z" />
    <glyph glyph-name="Zcaron" unicode="&#x17d;" horiz-adv-x="663" 
d="M55 0l326 1237h-303v162h520l-326 -1235h326v-164h-543zM96 1812h97l139 -182l137 182h98l-157 -278h-156z" />
    <glyph glyph-name="zcaron" unicode="&#x17e;" horiz-adv-x="598" 
d="M39 0l297 784h-273v140h482l-293 -785h297v-139h-510zM63 1333h97l139 -182l137 182h99l-158 -278h-156z" />
    <glyph glyph-name="florin" unicode="&#x192;" horiz-adv-x="755" 
d="M356 109l-12.5 -75t-12.5 -74.5t-11 -61t-13 -62.5t-13 -49t-17 -50t-19 -38q-44 -78 -113 -120t-155 -42q-47 0 -88 14l24 150q40 -4 49 -4q35 0 60.5 9t45.5 34.5t33 51.5t25.5 81t21 101t21.5 132l86 537h-153l20 143h152l39 240q32 201 115 299t223 98q47 0 88 -14
l-25 -149q-40 4 -49 4q-78 0 -118 -58t-62 -192l-37 -228h160l-19 -143h-160z" />
    <glyph glyph-name="circumflex" unicode="&#x2c6;" 
d="M276 1055l158 278h156l158 -278h-99l-137 182l-139 -182h-97z" />
    <glyph glyph-name="caron" unicode="&#x2c7;" 
d="M276 1333h97l139 -182l137 182h99l-158 -278h-156z" />
    <glyph glyph-name="breve" unicode="&#x2d8;" 
d="M279 1305h88q6 -111 145 -111t145 111h86q-8 -114 -64.5 -169t-166.5 -55q-113 0 -169.5 54.5t-63.5 169.5z" />
    <glyph glyph-name="dotaccent" unicode="&#x2d9;" 
d="M418 1184q0 38 28 67t66 29q37 0 65.5 -29t28.5 -67q0 -40 -27 -67t-67 -27t-67 27t-27 67z" />
    <glyph glyph-name="ring" unicode="&#x2da;" 
d="M311 1241q0 85 58 143t143 58t144 -58t59 -143q0 -86 -59 -144.5t-144 -58.5t-143 59t-58 144zM406 1241q0 -44 31 -76t75 -32q43 0 76 32t33 76t-32.5 76.5t-76.5 32.5t-75 -31.5t-31 -77.5z" />
    <glyph glyph-name="ogonek" unicode="&#x2db;" 
d="M590 0q-133 -112 -133 -223q0 -45 23 -63.5t77 -18.5h70v-115h-70q-201 0 -201 162q0 124 174 258h60z" />
    <glyph glyph-name="tilde" unicode="&#x2dc;" 
d="M745 1276q-15 -82 -55.5 -124t-103.5 -42q-17 0 -49 8l-76 23q-12 4 -39 4q-54 0 -74 -53h-69q13 79 53 121t100 42q15 0 47 -8l78 -20q24 -8 41 -8q58 0 76 57h71z" />
    <glyph glyph-name="hungarumlaut" unicode="&#x2dd;" 
d="M350 1055l111 278h141l-174 -278h-78zM557 1055l133 278h141l-196 -278h-78z" />
    <glyph glyph-name="endash" unicode="&#x2013;" 
d="M1024 518v-112h-1024v112h1024z" />
    <glyph glyph-name="emdash" unicode="&#x2014;" horiz-adv-x="2048" 
d="M2048 518v-112h-2048v112h2048z" />
    <glyph glyph-name="quoteleft" unicode="&#x2018;" horiz-adv-x="407" 
d="M240 1151q82 -43 82 -117q0 -47 -31.5 -79.5t-75.5 -32.5q-57 0 -93 48t-36 130q0 207 209 317v-39q-55 -89 -55 -213v-14z" />
    <glyph glyph-name="quoteright" unicode="&#x2019;" horiz-adv-x="407" 
d="M168 1188q-82 43 -82 117q0 47 31.5 79.5t75.5 32.5q57 0 93 -48t36 -130q0 -207 -209 -317v39q55 89 55 213v14z" />
    <glyph glyph-name="quotesinglbase" unicode="&#x201a;" horiz-adv-x="407" 
d="M168 -18q-82 43 -82 116q0 47 31.5 80t75.5 33q57 0 93 -48t36 -130q0 -208 -209 -318v39q55 89 55 213v15z" />
    <glyph glyph-name="quotedblleft" unicode="&#x201c;" horiz-adv-x="735" 
d="M240 1151q82 -43 82 -117q0 -47 -31.5 -79.5t-75.5 -32.5q-57 0 -93 48t-36 130q0 207 209 317v-39q-55 -89 -55 -213v-14zM565 1151q84 -44 84 -117q0 -47 -31 -79.5t-75 -32.5q-57 0 -94 48.5t-37 129.5q0 206 211 317v-39q-58 -94 -58 -215v-12z" />
    <glyph glyph-name="quotedblright" unicode="&#x201d;" horiz-adv-x="735" 
d="M496 1188q-82 43 -82 117q0 47 31 79.5t75 32.5q57 0 93 -48t36 -130q0 -207 -209 -317v39q56 90 56 213v14zM168 1188q-82 43 -82 117q0 47 31.5 79.5t75.5 32.5q57 0 93 -48t36 -130q0 -207 -209 -317v39q55 89 55 213v14z" />
    <glyph glyph-name="quotedblbase" unicode="&#x201e;" horiz-adv-x="735" 
d="M496 -18q-82 43 -82 116q0 47 31 80t75 33q57 0 93 -48t36 -130q0 -208 -209 -318v39q56 90 56 213v15zM168 -18q-82 43 -82 116q0 47 31.5 80t75.5 33q57 0 93 -48t36 -130q0 -208 -209 -318v39q55 89 55 213v15z" />
    <glyph glyph-name="dagger" unicode="&#x2020;" horiz-adv-x="962" 
d="M88 774v197l338 -39l-35 467h182l-36 -467l335 39v-197l-335 39l36 -997h-182l35 997z" />
    <glyph glyph-name="daggerdbl" unicode="&#x2021;" horiz-adv-x="962" 
d="M102 203v184l326 -41l-37 260l37 260l-326 -39v185l326 -41l-37 428h182l-36 -428l323 41v-185l-323 39l36 -260l-36 -260l323 41v-184l-323 41l34 -428h-182l39 428z" />
    <glyph glyph-name="bullet" unicode="&#x2022;" horiz-adv-x="1208" 
d="M307 762q0 123 87 209t210 86q122 0 208.5 -86t86.5 -209q0 -122 -87 -209.5t-210 -87.5t-209 87t-86 210z" />
    <glyph glyph-name="ellipsis" unicode="&#x2026;" horiz-adv-x="2048" 
d="M225 96q0 47 34 82t81 35q48 0 82.5 -34t34.5 -83q0 -47 -34.5 -80.5t-82.5 -33.5q-47 0 -81 33.5t-34 80.5zM907 96q0 47 34 82t81 35q48 0 82.5 -34t34.5 -83q0 -47 -34.5 -80.5t-82.5 -33.5q-47 0 -81 33.5t-34 80.5zM1591 96q0 47 34 82t81 35q48 0 82.5 -34
t34.5 -83q0 -47 -34.5 -80.5t-82.5 -33.5q-47 0 -81 33.5t-34 80.5z" />
    <glyph glyph-name="perthousand" unicode="&#x2030;" horiz-adv-x="1779" 
d="M844 350q0 -133 20 -193.5t68 -60.5q49 0 67.5 58.5t18.5 193.5q0 136 -20 197t-68 61q-49 0 -67.5 -60.5t-18.5 -195.5zM705 350q0 183 58 278t165 95q231 0 231 -379q0 -181 -59 -275t-172 -94q-108 0 -165.5 95t-57.5 280zM209 1049q0 -133 20 -193.5t68 -60.5
q49 0 67.5 58.5t18.5 193.5t-20 196.5t-68 61.5q-49 0 -67.5 -60.5t-18.5 -195.5zM70 1049q0 183 58 277.5t165 94.5q231 0 231 -381q0 -181 -59 -273.5t-172 -92.5q-108 0 -165.5 95t-57.5 280zM154 -25l786 1446h133l-784 -1446h-135zM1255 350q0 182 59.5 277.5
t166.5 95.5q231 0 231 -379q0 -181 -59 -275t-172 -94q-108 0 -167 95.5t-59 279.5zM1397 350q0 -133 20 -193.5t68 -60.5q49 0 67.5 58.5t18.5 193.5q0 136 -20 197t-68 61q-49 0 -67.5 -60.5t-18.5 -195.5z" />
    <glyph glyph-name="guilsinglleft" unicode="&#x2039;" horiz-adv-x="507" 
d="M291 780h149l-221 -317l221 -301h-149l-223 301z" />
    <glyph glyph-name="guilsinglright" unicode="&#x203a;" horiz-adv-x="507" 
d="M215 780l225 -317l-225 -301h-147l221 301l-221 317h147z" />
    <glyph glyph-name="fraction" unicode="&#x2044;" horiz-adv-x="342" 
d="M-342 -25l887 1446h139l-885 -1446h-141z" />
    <glyph glyph-name="Euro" unicode="&#x20ac;" horiz-adv-x="757" 
d="M696 49q-71 -74 -184 -74q-301 0 -344 539h-148l33 98h111q-2 29 -2 86q0 61 2 90h-144l33 99h115q41 534 336 534q109 0 192 -59v-180q-87 84 -166 84q-94 0 -137.5 -90.5t-54.5 -288.5h319l-32 -99h-291v-176h233l-32 -98h-197q12 -192 54 -286.5t126 -94.5
q88 0 178 100v-184z" />
    <glyph glyph-name="trademark" unicode="&#x2122;" horiz-adv-x="1705" 
d="M694 1454v-57h-172v-473h-82v473h-176v57h430zM938 1454l166 -422l156 422h116v-530h-71v467l-177 -467h-49l-186 467v-467h-72v530h117z" />
    <glyph glyph-name="minus" unicode="&#x2212;" horiz-adv-x="1705" 
d="M1452 659v-98h-1198v98h1198z" />
    <glyph glyph-name="fi" unicode="&#xfb01;" horiz-adv-x="802" 
d="M127 0v780h-80v144h80v155q0 166 63 247t195 81q15 0 61 -4v-135h-16q-78 0 -113.5 -41.5t-35.5 -132.5v-170h98v-144h-98v-780h-154zM537 0v924h153v-924h-153zM518 1300q0 40 28.5 69.5t67.5 29.5q40 0 68.5 -29.5t28.5 -69.5q0 -38 -28.5 -67t-68.5 -29q-38 0 -67 29
t-29 67z" />
    <glyph glyph-name="fl" unicode="&#xfb02;" horiz-adv-x="802" 
d="M127 0v780h-80v144h80v155q0 166 63 247t195 81q15 0 61 -4v-135h-16q-78 0 -113.5 -41.5t-35.5 -132.5v-170h98v-144h-98v-780h-154zM537 0v1399h153v-1399h-153z" />
    </font>
</defs>
</svg>
